<?xml version="1.0" encoding="UTF-8" standalone="no"?>
<!-- Created with Inkscape (http://www.inkscape.org/) -->

<svg
   width="32mm"
   height="32mm"
   viewBox="0 0 32 32"
   version="1.1"
   id="svg9733"
   xmlns:xlink="http://www.w3.org/1999/xlink"
   xmlns="http://www.w3.org/2000/svg"
   xmlns:svg="http://www.w3.org/2000/svg">
  <defs
     id="defs9730">
    <linearGradient
       xlink:href="#linearGradient5952"
       id="linearGradient5954"
       x1="776.01971"
       y1="2755.0198"
       x2="1006.7283"
       y2="2755.0198"
       gradientUnits="userSpaceOnUse"
       gradientTransform="matrix(0.00897571,0,0,0.00897571,-0.29280821,-1.0360667)" />
    <linearGradient
       id="linearGradient5952">
      <stop
         style="stop-color:#000000;stop-opacity:1;"
         offset="0"
         id="stop5950" />
    </linearGradient>
  </defs>
  <g
     id="layer1">
    <path
       id="path5948"
       style="display:inline;fill:none;stroke:url(#linearGradient5954);stroke-width:0.569;stroke-dasharray:none;stroke-opacity:1"
       d="m 6.6590773,23.611524 2.0981355,-0.01336 m -1.533378,-2.151541 -0.9143681,1.734609 m 1.3043204,3.240627 -1.1967443,-2.191794 m -2.0842251,2.514513 1.3849987,-2.514513 m -0.6319868,-2.568297 -0.7395629,1.761502 0.927812,1.425337 1.438784,-0.06723 0.4706356,-1.156407 -0.6319919,-0.9816 -0.9412609,0.06723 -0.3496106,0.753008 0.4571815,0.766455 H 6.4170428 L 6.6590773,23.61152 6.3498084,23.18123 5.9060706,23.15434 5.6640309,22.79128 m -1.8152872,-3.1465 1.8287362,3.159948 m 14.0113421,-8.726836 2.016985,-1.936308 -0.416843,-0.806795 m -3.079268,1.277425 -0.71267,2.070775 m 9.194359,-6.6482633 c -0.03803,0.1140983 -0.379961,1.0663476 -0.379961,1.0663476 m 1.421865,-1.7563516 -1.011906,0.6659312 -1.05141,-0.5893469 -0.0395,-1.2552797 1.011906,-0.6659322 1.05141,0.5893479 z m -6.672917,-1.0389564 0.800861,2.2043688 1.901636,1.8826179 m -11.523902,4.449826 11.542918,-4.449826 2.681304,-1.369176 3.289827,-0.741638 m -6.848156,8.834884 -0.777397,0.178865 0.116208,1.64987 m -7.4375,-2.030198 -0.418359,0.41836 -0.05705,1.388193 m -1.153249,-2.737236 4.405044,-1.275213 2.605237,2.300978 0.893768,1.901634 M 10.78718,13.88964 c 0.171149,0.07606 1.451787,0.952938 1.451787,0.952938 l 1.255078,1.464258 0.931801,0.03803 0.380325,0.57049 5.324576,0.114099 m -11.8682618,0.774095 2.6263168,-1.382618 1.806553,0.760653 0.35085,1.548825 M 7.4278305,16.649128 8.2455353,17.88519 m -6.0641666,5.470844 3.0792662,0.107573 M 6.5380574,10.823816 8.7433022,12.222261 10.78718,13.889638 7.4278305,16.649128 4.736219,17.681574 M 25.685997,6.1444079 20.807194,5.252319 21.060372,6.3057668 18.424843,5.3913992 12.024266,5.6603311 6.5380574,10.82382 4.736219,17.681578 l -0.8874753,1.963203 -1.667375,3.711257 2.151449,3.388541 3.2809694,-0.322719 1.1434257,-2.823695 -1.519929,-2.178435 -2.0438833,0.161359 3.0690847,-3.777535 2.2019768,0.227637 0.107571,0.484077 0.753012,0.107573 0.376503,-0.376505 1.344657,0.484078 9.197466,0.215145 4.894558,0.376503 0.322718,-0.753007 L 26.008714,17.385754 22.90486,17.116823 22.462079,16.34806 21.341793,16.33231 19.70919,14.149348 22.99668,13.029064 29.666187,9.2102333 29.77376,8.2420786 28.653474,6.6915018 27.693786,6.0894461" />
  </g>
</svg>
