<?xml version="1.0" encoding="UTF-8" standalone="no"?>
<!-- Created with Inkscape (http://www.inkscape.org/) -->

<svg
   width="32"
   height="32"
   viewBox="0 0 8.4666669 8.4666668"
   version="1.1"
   id="svg8"
   inkscape:version="1.2.2 (b0a8486, 2022-12-01)"
   sodipodi:docname="favicon-32x32.svg"
   xml:space="preserve"
   xmlns:inkscape="http://www.inkscape.org/namespaces/inkscape"
   xmlns:sodipodi="http://sodipodi.sourceforge.net/DTD/sodipodi-0.dtd"
   xmlns="http://www.w3.org/2000/svg"
   xmlns:svg="http://www.w3.org/2000/svg"
   xmlns:rdf="http://www.w3.org/1999/02/22-rdf-syntax-ns#"
   xmlns:cc="http://creativecommons.org/ns#"
   xmlns:dc="http://purl.org/dc/elements/1.1/"><defs
     id="defs2"><inkscape:path-effect
       effect="powerclip"
       id="path-effect989"
       is_visible="true"
       lpeversion="1"
       inverse="true"
       flatten="false"
       hide_clip="false"
       message="Use fill-rule evenodd on &lt;b&gt;fill and stroke&lt;/b&gt; dialog if no flatten result after convert clip to paths." /><inkscape:path-effect
       effect="powerclip"
       id="path-effect975"
       is_visible="true"
       lpeversion="1"
       inverse="true"
       flatten="false"
       hide_clip="false"
       message="Use fill-rule evenodd on &lt;b&gt;fill and stroke&lt;/b&gt; dialog if no flatten result after convert clip to paths." /><inkscape:path-effect
       effect="powerclip"
       id="path-effect867"
       is_visible="true"
       lpeversion="1"
       inverse="true"
       flatten="false"
       hide_clip="false"
       message="Use fill-rule evenodd on &lt;b&gt;fill and stroke&lt;/b&gt; dialog if no flatten result after convert clip to paths." /><inkscape:path-effect
       effect="powerclip"
       id="path-effect614"
       is_visible="true"
       lpeversion="1"
       inverse="true"
       flatten="false"
       hide_clip="false"
       message="Use fill-rule evenodd on &lt;b&gt;fill and stroke&lt;/b&gt; dialog if no flatten result after convert clip to paths." /><inkscape:path-effect
       effect="powerclip"
       id="path-effect509"
       is_visible="true"
       lpeversion="1"
       inverse="true"
       flatten="false"
       hide_clip="false"
       message="Use fill-rule evenodd on &lt;b&gt;fill and stroke&lt;/b&gt; dialog if no flatten result after convert clip to paths." /><clipPath
       clipPathUnits="userSpaceOnUse"
       id="clipPath941"><path
         id="path943"
         sodipodi:type="arc"
         sodipodi:cx="-128.76439"
         sodipodi:cy="63.161652"
         sodipodi:rx="30.944174"
         sodipodi:ry="30.944174"
         sodipodi:start="5.8371141"
         sodipodi:end="5.8231689"
         sodipodi:open="true"
         d="m -100.84813,49.811576 a 30.944174,30.944174 0 0 1 -14.46894,41.21962 30.944174,30.944174 0 0 1 -41.26981,-14.325146 30.944174,30.944174 0 0 1 14.18118,-41.319504 30.944174,30.944174 0 0 1 41.36869,14.037043"
         sodipodi:arc-type="arc" /></clipPath><clipPath
       clipPathUnits="userSpaceOnUse"
       id="clipPath505"><path
         id="path507"
         style="display:none;fill:#ffff00;stroke-width:0.506;stroke-miterlimit:0.5"
         d="M -7.8481293,70.172218 H 219.56689 V 161.03999 H -7.8481293 Z" /></clipPath><clipPath
       clipPathUnits="userSpaceOnUse"
       id="clipPath633"><rect
         style="fill:#ffff00;stroke-width:0.506;stroke-miterlimit:0.5"
         id="rect635"
         width="225.94148"
         height="166.50906"
         x="0.99306047"
         y="-95.354485" /></clipPath><clipPath
       clipPathUnits="userSpaceOnUse"
       id="clipPath971"><ellipse
         style="display:none;fill:#ff0000;stroke-width:0.548386;stroke-miterlimit:0.5"
         id="ellipse973"
         cx="27.762213"
         cy="-24.25852"
         rx="50.836838"
         ry="46.045929"
         d="M 78.599051,-24.25852 A 50.836838,46.045929 0 0 1 27.762213,21.787409 50.836838,46.045929 0 0 1 -23.074625,-24.25852 50.836838,46.045929 0 0 1 27.762213,-70.304449 50.836838,46.045929 0 0 1 78.599051,-24.25852 Z" /><path
         id="lpe_path-effect975"
         style="fill:#ff0000;stroke-width:0.548386;stroke-miterlimit:0.5"
         class="powerclip"
         d="M -78.544546,-97.898605 H 135.91246 V 161.87579 H -78.544546 Z M 78.599051,-24.25852 A 50.836838,46.045929 0 0 0 27.762213,-70.304449 50.836838,46.045929 0 0 0 -23.074625,-24.25852 50.836838,46.045929 0 0 0 27.762213,21.787409 50.836838,46.045929 0 0 0 78.599051,-24.25852 Z" /></clipPath><clipPath
       clipPathUnits="userSpaceOnUse"
       id="clipPath985"><rect
         style="display:none;fill:#ff0000;stroke-width:0.506;stroke-miterlimit:0.5"
         id="rect987"
         width="245.58859"
         height="90.867775"
         x="-89.874718"
         y="72.136925" /><path
         id="lpe_path-effect989"
         style="fill:#ff0000;stroke-width:0.506;stroke-miterlimit:0.5"
         class="powerclip"
         d="M -78.544546,-97.898605 H 135.91246 V 161.87579 H -78.544546 Z M -89.874718,72.136925 V 163.0047 H 155.71387 V 72.136925 Z" /></clipPath></defs><sodipodi:namedview
     id="base"
     pagecolor="#ffffff"
     bordercolor="#666666"
     borderopacity="1.0"
     inkscape:pageopacity="0.0"
     inkscape:pageshadow="2"
     inkscape:zoom="6.8535927"
     inkscape:cx="21.156787"
     inkscape:cy="19.624744"
     inkscape:document-units="mm"
     inkscape:current-layer="layer1"
     showgrid="false"
     inkscape:window-width="1280"
     inkscape:window-height="747"
     inkscape:window-x="0"
     inkscape:window-y="25"
     inkscape:window-maximized="0"
     showguides="false"
     inkscape:showpageshadow="2"
     inkscape:pagecheckerboard="0"
     inkscape:deskcolor="#d1d1d1" /><metadata
     id="metadata5"><rdf:RDF><cc:Work
         rdf:about=""><dc:format>image/svg+xml</dc:format><dc:type
           rdf:resource="http://purl.org/dc/dcmitype/StillImage" /></cc:Work></rdf:RDF></metadata><g
     inkscape:label="Capa 1"
     inkscape:groupmode="layer"
     id="layer1"
     transform="translate(18.16285,-11.23096)"><g
       id="g463"
       transform="matrix(0.05380104,0,0,0.05380104,-19.280664,10.261872)"><g
         id="g981"
         transform="translate(71.220691,114.93546)"
         clip-path="url(#clipPath985)"
         inkscape:path-effect="#path-effect989"
         style="fill:#f00000;fill-opacity:1"><path
           clip-path="url(#clipPath971)"
           inkscape:connector-curvature="0"
           id="path1049"
           d="m -60.232482,155.57345 c -2.436747,-2.63985 -0.834458,-5.33005 3.17461,-5.33005 0.879081,0 1.552695,-0.47953 1.552695,-1.10539 0,-1.23179 -2.655765,-1.52113 -3.382382,-0.36844 -0.705986,1.11995 -1.879101,0.88004 -1.879101,-0.38426 0,-0.61665 0.831742,-1.49275 1.848314,-1.94685 1.480114,-0.66119 2.228763,-0.58124 3.758201,0.40127 1.656211,1.06394 1.90989,1.75689 1.90989,5.2172 0,3.31574 -0.22237,3.98728 -1.315373,3.97254 -0.723453,-0.009 -2.005145,0.19698 -2.848206,0.45961 -1.015813,0.31636 -1.96654,0.005 -2.818648,-0.91563 z m 4.727305,-2.38232 c 0.912695,-1.67202 0.322647,-1.83784 -2.627037,-0.73831 -1.085303,0.40455 -1.763829,1.06775 -1.50786,1.47383 0.79281,1.25767 3.289279,0.81359 4.134897,-0.73552 z m 5.416155,2.52881 c -0.925704,-0.63569 -1.470147,-1.49365 -1.209869,-1.90653 0.316681,-0.50238 0.743543,-0.48571 1.290362,0.0504 1.01396,0.99412 3.280852,1.04459 3.884803,0.0866 0.247766,-0.39302 -0.746988,-1.20515 -2.210568,-1.8047 -2.047191,-0.8386 -2.661041,-1.51773 -2.661041,-2.94407 0,-2.45598 2.514161,-3.8362 4.98074,-2.73436 0.981212,0.43833 1.784024,1.30147 1.784024,1.91812 0,1.35672 -0.334248,1.38924 -2.24636,0.21855 -1.154691,-0.70703 -1.671789,-0.70911 -2.385185,-0.009 -0.713393,0.69945 -0.388111,1.07172 1.500386,1.71715 3.395555,1.1605 4.342802,3.16577 2.396746,5.07375 -1.82872,1.79287 -2.899033,1.86286 -5.124038,0.33492 z m 13.968808,0.37644 c -2.733504,-1.56239 -2.369002,-9.5376 0.435908,-9.5376 0.584155,0 1.274324,-0.82901 1.533711,-1.84231 0.259385,-1.01326 0.972541,-1.84232 1.58477,-1.84232 1.309844,0 1.441645,0.85703 0.30341,1.97298 -0.578538,0.56718 -0.23264,1.35962 1.211451,2.77545 1.640605,1.60847 1.932909,2.41428 1.552438,4.27943 -0.853457,4.18369 -3.598364,5.92242 -6.621696,4.19437 z m 4.29171,-4.74757 c 0,-2.49202 -0.260323,-2.98396 -1.683921,-3.18224 -1.189713,-0.16595 -1.929343,0.29356 -2.520162,1.56481 -1.139847,2.45277 0.282525,5.1125 2.563745,4.79404 1.373717,-0.19175 1.640338,-0.70805 1.640338,-3.17661 z m 21.588997,4.37975 c -2.456234,-1.68675 -2.389147,-7.20029 0.107118,-8.80389 2.3379668,-1.50189 5.5135958,-0.39667 6.1643498,2.14543 0.676966,2.64444 -0.118045,3.3841 -3.637571,3.3841 -2.9611038,0 -3.0557358,0.0661 -1.8225944,1.2752 1.0765824,1.05552 1.5558204,1.11897 2.7816204,0.36849 1.908323,-1.16848 2.252959,-1.14205 2.252959,0.17275 0,1.01855 -2.156862,2.60515 -3.541543,2.60515 -0.348596,0 -1.3855504,-0.51624 -2.3043368,-1.1472 z m 4.2116488,-6.66627 c -0.769175,-0.75414 -1.778466,-1.00258 -2.791797,-0.68726 -2.5338818,0.78846 -1.8375678,1.86837 1.204711,1.86837 2.561164,0 2.69228,-0.0975 1.587086,-1.18111 z m 21.1768762,6.33961 c -2.156092,-2.11388 -2.061122,-6.90261 0.167277,-8.43285 2.157287,-1.48145 3.048721,-1.44543 5.130554,0.20734 1.02928,0.81715 1.47999,1.71323 1.1361,2.25876 -0.42921,0.68089 -0.93385,0.58148 -2.042682,-0.40236 -1.936991,-1.71861 -4.0154,-0.51985 -4.0154,2.31604 0,2.79834 2.075688,4.03704 3.961289,2.36401 1.733423,-1.53802 2.427643,-1.59379 2.427643,-0.19511 0,1.17592 -2.795027,3.35796 -4.301267,3.35796 -0.528112,0 -1.636678,-0.66325 -2.463483,-1.47387 z m 9.583414,0.69789 c -1.51027,-0.8854 -1.74179,-3.66969 -0.41339,-4.97205 0.49606,-0.48637 1.65994,-0.88434 2.58639,-0.88434 0.92642,0 1.89489,-0.33394 2.15222,-0.74212 0.68106,-1.08039 -1.82968,-1.81506 -2.83487,-0.82956 -1.18556,1.16231 -2.05407,1.04122 -2.05407,-0.28646 0,-1.72236 3.22654,-2.89422 5.16639,-1.87637 1.35583,0.71139 1.59836,1.50571 1.59836,5.23429 0,3.01982 -0.29405,4.39874 -0.93955,4.40564 -0.51676,0.005 -1.61603,0.17025 -2.44283,0.36607 -0.82682,0.19571 -2.09521,0.009 -2.81865,-0.41514 z m 3.96119,-2.55804 c 1.26183,-1.49064 0.60419,-2.00495 -1.80547,-1.41199 -1.96295,0.48303 -2.41551,1.11368 -1.46671,2.04393 0.84255,0.82606 2.27162,0.5501 3.27218,-0.63194 z m 6.06753,1.92824 c -3.4001,-3.33349 -0.85217,-10.37041 3.37805,-9.3295 1.55793,0.3834 1.81397,0.18425 1.81397,-1.40995 0,-1.02101 0.33824,-1.85639 0.75163,-1.85639 0.44543,0 0.75164,2.70209 0.75164,6.63234 0,4.80921 -0.25836,6.63509 -0.93956,6.64238 -0.51673,0.005 -1.66931,0.20197 -2.56124,0.43659 -1.07394,0.28243 -2.1529,-0.0941 -3.19449,-1.11547 z m 5.04565,-3.87437 c 0.18768,-2.20602 -0.0601,-2.79098 -1.35142,-3.19282 -1.75795,-0.54698 -3.76371,0.70413 -3.76371,2.34776 0,2.1591 1.58799,4.00626 3.24535,3.77486 1.29281,-0.18035 1.68894,-0.80111 1.86978,-2.9298 z m 5.14407,4.17932 c -2.53423,-2.48459 -0.76006,-5.53154 3.22093,-5.53154 0.85397,0 1.55267,-0.34198 1.55267,-0.76001 0,-1.17524 -2.25461,-1.74579 -3.20739,-0.81167 -1.17306,1.15011 -2.05409,1.04515 -2.05409,-0.24476 0,-1.07376 2.18017,-2.60517 3.70881,-2.60517 0.4406,0 1.47751,0.66323 2.30433,1.47385 2.04984,2.00973 2.1948,8.83778 0.18788,8.85311 -0.7235,0.005 -2.02601,0.1972 -2.89453,0.42571 -0.94725,0.24942 -2.07514,-0.0706 -2.81865,-0.79963 z m 4.51425,-2.24713 c 0.24489,-0.62546 0.28121,-1.29794 0.0807,-1.4945 -0.66883,-0.6557 -4.42875,1.14369 -3.95619,1.89334 0.72125,1.14418 3.37864,0.87069 3.87554,-0.39884 z m 10.9496,2.20075 c -1.29458,-0.88897 -1.67054,-1.8747 -1.67054,-4.37975 0,-2.50508 0.37596,-3.49076 1.67054,-4.37976 2.15732,-1.48145 3.04871,-1.44543 5.13055,0.20734 1.0293,0.81715 1.48001,1.71323 1.13611,2.25876 -0.4292,0.68089 -0.93383,0.58148 -2.04267,-0.40236 -1.937,-1.71861 -4.01543,-0.51985 -4.01543,2.31604 0,2.79834 2.07567,4.03704 3.96131,2.36401 2.6671,-2.36647 3.50302,-0.83909 0.92436,1.68906 -1.80914,1.77373 -2.88647,1.8428 -5.09423,0.32666 z m 16.10217,0.0435 c -2.81989,-2.7647 -2.04499,-8.64148 1.2509,-9.48648 2.46781,-0.63272 5.02888,1.39153 5.02888,3.97477 0,2.06813 -0.17216,2.1938 -3.00654,2.1938 -1.65363,0 -3.00659,0.342 -3.00659,0.76002 0,1.24186 2.34782,1.74839 3.84759,0.83013 1.62115,-0.99262 2.17005,-1.0692 2.15403,-0.30066 -0.0507,2.43361 -4.41455,3.8457 -6.26827,2.0283 z m 4.77653,-6.21597 c 0,-0.89559 -2.77266,-1.75222 -3.7515,-1.15912 -1.4877,0.90142 -0.72176,1.84639 1.49654,1.84639 1.24021,0 2.25496,-0.30928 2.25496,-0.68727 z m 4.25047,5.97195 c -0.68414,-0.74123 -1.24393,-1.71239 -1.24393,-2.15814 0,-1.40023 2.28777,-3.12654 4.14334,-3.12654 0.97959,0 1.99156,-0.33397 2.24887,-0.74212 0.74825,-1.18699 -1.93866,-1.78872 -3.55843,-0.79698 -1.73907,1.06484 -2.30111,0.74522 -1.64359,-0.93468 0.47431,-1.21179 1.65681,-1.56253 4.41429,-1.30936 2.07878,0.19082 2.63888,1.39841 2.65206,5.71755 0.0127,3.64365 -0.0714,3.79295 -2.33735,4.23733 -3.24052,0.63538 -3.27612,0.62863 -4.67526,-0.88706 z m 4.78427,-1.98637 c 0.52292,-0.61771 0.77336,-1.29709 0.55656,-1.5097 -0.75392,-0.73913 -4.3298,0.58841 -4.3298,1.60741 0,1.37463 2.58358,1.30773 3.77324,-0.0978 z m 6.16528,2.18683 c -1.29458,-0.88898 -1.67049,-1.8747 -1.67049,-4.37975 0,-2.50508 0.37591,-3.4908 1.67049,-4.37978 2.2148,-1.52092 3.28511,-1.44705 5.121658,0.35356 1.90748,1.87015 1.16436,3.53976 -0.7998,1.79703 -2.176198,-1.93088 -4.631718,-0.78135 -4.344018,2.0336 0.30968,3.03121 2.29464,4.24312 4.192028,2.5596 2.66714,-2.36646 3.50299,-0.83909 0.92439,1.68904 -1.809148,1.77372 -2.886458,1.84282 -5.094258,0.3267 z m 13.704258,-0.36333 c -1.87918,-2.03586 -1.84024,-6.41113 0.0716,-8.01619 0.80612,-0.6769 1.84021,-1.87774 2.29788,-2.66855 0.45775,-0.79082 1.47244,-1.55932 2.25496,-1.70774 1.35992,-0.25806 1.36465,-0.20653 0.10763,1.16339 -1.61638,1.7613 -1.66326,2.42266 -0.17199,2.42266 2.96242,0 3.27925,8.04809 0.37677,9.57102 -2.11764,1.11117 -3.38655,0.91461 -4.93657,-0.76459 z m 4.97042,-2.26734 c 1.2483,-2.28681 -0.25176,-5.24465 -2.50097,-4.93134 -2.94233,0.4098 -2.80634,6.49839 0.1449,6.49839 0.82524,0 1.88537,-0.70519 2.35587,-1.56705 z m -187.050736,-3.40726 0.217171,-6.44808 3.153269,-0.22474 c 7.556013,-0.53825 8.638008,7.49102 1.142291,8.47673 -2.887933,0.37975 -3.168099,0.60354 -3.168099,2.53034 0,1.16256 -0.351406,2.11376 -0.780903,2.11376 -0.497161,0 -0.701991,-2.34293 -0.563729,-6.4481 z m 7.296125,-1.54517 c 1.015297,-1.85995 -0.34639,-3.06057 -3.471078,-3.06057 -2.254925,0 -2.480415,0.20091 -2.480415,2.21073 0,2.03104 0.211722,2.2108 2.604301,2.2108 1.763006,0 2.844273,-0.43965 3.347192,-1.36096 z m 22.610842,3.20326 c 0,-2.70207 0.327642,-4.79001 0.751638,-4.79001 0.424005,0 0.751642,2.08794 0.751642,4.79001 0,2.70204 -0.327637,4.79001 -0.751642,4.79001 -0.423996,0 -0.751638,-2.08797 -0.751638,-4.79001 z m 14.794785,4.31099 c -0.282494,-0.27688 -0.513618,-2.40034 -0.513618,-4.71865 0,-4.17717 0.02162,-4.21817 2.401415,-4.56062 1.320783,-0.19021 3.010064,-0.18942 3.753961,0.001 2.489383,0.63825 3.851837,8.83324 1.589917,9.56312 -0.603891,0.19471 -0.973639,-0.99455 -1.127461,-3.62689 -0.21194,-3.62711 -0.36802,-3.9171 -2.107989,-3.9171 -1.691125,0 -1.902643,0.33173 -2.114462,3.31612 -0.238841,3.36541 -0.95024,4.85583 -1.881763,3.94257 z m 25.7937978,-4.31099 c 0,-3.33533 0.285336,-4.79305 0.93954195,-4.80008 0.51675703,-0.005 1.66931605,-0.20195 2.56125305,-0.4366 2.722697,-0.71612 4.767248,2.00383 4.767248,6.34209 0,2.02653 -0.338238,3.6846 -0.751647,3.6846 -0.413396,0 -0.751633,-1.2631 -0.751633,-2.80685 0,-3.65569 -1.453695,-5.64797 -3.627568,-4.97155 -1.38654502,0.43148 -1.63391702,1.05882 -1.63391702,4.14343 0,1.99925 -0.33823703,3.63497 -0.75163103,3.63497 -0.42400595,0 -0.75164695,-2.08797 -0.75164695,-4.79001 z m 70.4037082,4.29873 c -0.6265,-0.6142 -0.659,-6.3541 -0.0447,-7.92311 0.27056,-0.69124 1.34127,-1.16563 2.63073,-1.16563 2.48926,0 2.907,1.14658 0.67125,1.84232 -1.23564,0.38447 -1.50331,1.11498 -1.50331,4.10273 0,3.37983 -0.53494,4.33869 -1.75382,3.14369 z m 36.058258,-0.0194 c -0.2643,-0.25929 -0.48067,-2.40564 -0.48067,-4.76999 0,-3.32978 0.25429,-4.29869 1.12749,-4.29869 0.87565,0 1.12749,0.97775 1.12749,4.37803 0,4.08907 -0.64602,5.79685 -1.77431,4.69065 z m 14.55217,-4.27869 c 0,-3.33535 0.28527,-4.79307 0.93954,-4.80008 0.51676,-0.005 1.6693,-0.20175 2.56126,-0.43658 2.72269,-0.71612 4.76723,2.00383 4.76723,6.34204 0,2.02658 -0.33824,3.68463 -0.75165,3.68463 -0.41341,0 -0.75162,-1.26308 -0.75162,-2.80685 0,-3.65571 -1.45372,-5.64795 -3.62755,-4.97151 -1.38656,0.43146 -1.63394,1.0588 -1.63394,4.14339 0,1.99926 -0.33826,3.63497 -0.75164,3.63497 -0.42398,0 -0.75163,-2.08794 -0.75163,-4.79001 z m -161.602719,-7.37069 c 0,-0.6755 0.363608,-1.10933 0.808012,-0.9641 0.44441,0.14498 0.808013,0.57909 0.808013,0.9641 0,0.38507 -0.363603,0.81891 -0.808013,0.96416 -0.444404,0.14498 -0.808012,-0.28861 -0.808012,-0.96416 z m 146.569879,0 c 0,-0.60793 0.50738,-1.10539 1.12749,-1.10539 0.62009,0 1.12749,0.49746 1.12749,1.10539 0,0.60799 -0.5074,1.10541 -1.12749,1.10541 -0.62011,0 -1.12749,-0.49742 -1.12749,-1.10541 z M 0.20851378,131.11598 c -6.32048098,-1.55017 -9.26223838,-5.8942 -9.71108938,-14.34016 -0.389044,-7.32063 0.6558024,-11.38158 3.6723314,-14.27302 4.280539,-4.103084 13.446507,-4.974574 18.9822362,-1.80484 3.039438,1.74034 5.755231,5.69748 5.755231,8.38582 0,2.05378 -0.09336,2.10181 -4.093004,2.10181 -3.715381,0 -4.183642,-0.18559 -5.0753272,-2.00941 -1.873625,-3.83264 -8.229348,-4.16283 -9.64926302,-0.5013 -0.95871503,2.47223 -0.92939603,11.07633 0.04381,12.85921 1.98588302,3.638 7.47134102,3.58381 9.41064302,-0.093 1.0430102,-1.9775 1.4628302,-2.14939 5.2484162,-2.14939 4.023409,0 4.114727,0.0466 4.114727,2.10177 0,2.82976 -2.796555,6.68854 -6.01313,8.29723 -3.1883852,1.59454 -9.2283772,2.27313 -12.68559222,1.42522 z M -64.524861,118.92386 v -12.15923 h -4.509842 -4.509843 v -3.70162 -3.701644 l 13.341616,0.20134 13.341619,0.20134 v 3.316204 3.31614 l -4.509843,0.36843 -4.509843,0.36847 -0.206531,11.97503 -0.206532,11.97501 h -4.115389 -4.115401 z m 18.791011,10.87776 c 0,-0.70481 2.422092,-7.83457 5.382428,-15.84387 l 5.382436,-14.562354 h 4.803065 4.803064 l 1.138564,2.671584 c 2.35926,5.53598 10.059338,26.9327 10.059338,27.95264 0,0.78538 -0.986006,1.06351 -3.770364,1.06351 -3.568939,0 -3.837378,-0.13763 -5.024876,-2.57925 l -1.25451,-2.57922 h -5.863821 -5.863825 l -1.099193,2.57922 c -1.050531,2.46503 -1.267295,2.57925 -4.89575,2.57925 -3.105514,0 -3.796556,-0.23338 -3.796556,-1.28151 z m 17.818034,-16.0362 c -0.873646,-2.63453 -1.790907,-4.79003 -2.038352,-4.79003 -0.247451,0 -1.077889,1.741 -1.84542,3.86886 -0.767534,2.12785 -1.547013,4.28339 -1.732179,4.79001 -0.240626,0.65838 0.738968,0.92113 3.433862,0.92113 h 3.770531 z m 51.332888,16.07707 c 0,-1.20693 9.25606,-26.57951 10.63681,-29.15745 1.02901,-1.921324 9.29272,-1.860944 10.34984,0.0756 1.33571,2.44698 10.58226,27.89693 10.58226,29.12636 0,0.94573 -0.79492,1.19616 -3.7966,1.19616 -3.62843,0 -3.8452,-0.11434 -4.89574,-2.57924 l -1.09917,-2.57922 h -5.99296 -5.99293 l -1.09918,2.57922 c -1.05054,2.46499 -1.26731,2.57924 -4.89578,2.57924 -3.05758,0 -3.79655,-0.2414 -3.79655,-1.24063 z m 19.34394,-12.20823 c -0.19751,-0.50662 -0.98984,-2.66216 -1.76014,-4.79001 -0.77029,-2.12786 -1.59764,-3.86886 -1.83851,-3.86886 -0.24078,0 -1.03041,1.741 -1.75451,3.86886 -0.72409,2.12785 -1.49053,4.28339 -1.70319,4.79001 -0.27992,0.6673 0.68851,0.92113 3.51466,0.92113 2.81164,0 3.80083,-0.25711 3.54169,-0.92113 z m 18.98974,-2.39503 V 99.395396 h 3.63996 3.63998 l 3.95572,7.000774 c 2.17569,3.85042 4.07378,7.00078 4.21803,7.00078 0.14435,0 2.05346,-3.16169 4.24262,-7.02592 l 3.98037,-7.025924 3.75818,0.20926 3.75819,0.20932 0.21358,14.001554 c 0.11744,7.70087 0.0251,14.74771 -0.20235,15.65964 -0.36178,1.44303 -0.90128,1.65808 -4.15957,1.65808 h -3.74391 l -0.0127,-8.65885 -0.0127,-8.65887 -2.22656,3.96017 c -3.06141,5.44499 -3.72132,6.09581 -5.92324,5.84133 -1.42672,-0.16469 -2.50008,-1.22776 -4.19835,-4.15735 l -2.28161,-3.93585 -0.18846,6.14664 c -0.28903,9.43048 -0.30532,9.46278 -4.71149,9.46278 h -3.7439 z m 37.60892,14.55427 c 0.0164,-0.70929 2.467028,-7.75612 5.449398,-15.65963 l 5.42249,-14.370024 4.9334,-0.21485 4.93342,-0.21485 5.41241,14.584804 c 2.97684,8.02163 5.40756,15.16511 5.40166,15.8744 -0.009,1.05658 -0.69678,1.28961 -3.80734,1.28961 -3.62845,0 -3.84522,-0.11434 -4.89577,-2.57923 l -1.09918,-2.57922 h -5.86383 -5.86383 l -1.25448,2.57922 c -1.18751,2.44145 -1.45596,2.57923 -5.0249,2.57923 -3.09996,0 -3.765588,-0.22934 -3.743448,-1.28961 z m 19.329838,-12.15924 c -0.19082,-0.50662 -0.93057,-2.66216 -1.64409,-4.79001 -0.71354,-2.12786 -1.53947,-3.86886 -1.83538,-3.86886 -0.29592,0 -1.25276,2.1555 -2.12643,4.79003 l -1.58842,4.78997 h 3.77054 c 2.70026,0 3.67211,-0.26143 3.42378,-0.92113 z M 11.766642,56.187009 C -11.13227,54.342506 -28.15571,49.558681 -34.192233,43.271907 c -7.656218,-7.97361 -12.091156,-27.176884 -12.822205,-55.520235 -0.59201,-22.952582 1.3737,-41.131771 5.894248,-54.510897 3.467338,-10.261994 6.190003,-13.758135 13.551735,-17.401585 23.5402098,-11.650393 88.953817,-11.650393 112.494027,0 7.3617,3.64345 10.08443,7.139591 13.55174,17.401585 4.520548,13.379126 6.486268,31.558315 5.894228,54.510897 -0.73103,28.343351 -5.165998,47.546625 -12.822188,55.520235 -4.99729,5.204427 -16.4047,9.120005 -33.70193,11.568028 -8.22161,1.1636 -37.670843,2.024464 -46.08078,1.347074 z m 28.29139,-13.959583 c 29.82886,-5.515909 51.04634,-30.384302 51.19369,-60.002685 0.0914,-18.342392 -6.2586,-32.712147 -20.15353,-45.607339 -5.1185,-4.750206 -7.97215,-6.70614 -14.08428,-9.653563 -11.06528,-5.335931 -15.29531,-6.272259 -28.33537,-6.272259 -13.040041,0 -17.270041,0.936328 -28.33532722,6.272259 -6.11213698,2.947423 -8.96579898,4.903357 -14.08427678,9.653563 -13.89492,12.895192 -20.244823,27.264947 -20.153558,45.607339 0.190422,38.271874 35.6930978,67.077511 73.952652,60.002685 z M 5.6132748,4.1015003 c -10.968602,-10.753866 -12.261824,-12.282191 -12.261824,-14.4909173 0,-2.233062 1.599337,-4.045612 16.7239932,-18.953762 19.595318,-19.31476 19.333318,-19.158473 28.655928,-17.09073 3.35911,0.745041 6.49825,1.363131 6.97591,1.373525 0.47762,0.01075 2.33792,-1.191969 4.134,-2.67198 1.79608,-1.479975 4.73314,-3.332416 6.52686,-4.116542 8.63589,-3.775079 10.17823,3.356197 2.67839,12.383768 l -3.29236,3.962943 1.56913,6.681499 c 0.91465,3.894718 1.35941,7.514763 1.06634,8.679277 -0.3169,1.259262 -6.93501,8.330861 -17.90435,19.1311963 C 24.464482,14.763702 22.876989,16.123266 20.479389,16.123266 c -2.363743,0 -3.736756,-1.110339 -14.8661142,-12.0217657 z m 33.7978172,-6.990741 c 11.60152,-11.4136943 17.07817,-17.3070163 17.07817,-18.3773563 0,-1.602212 -2.16858,-11.408103 -2.62098,-11.851662 -0.13615,-0.133689 -1.63165,0.655151 -3.3232,1.752624 -2.11467,1.372055 -3.0755,2.52372 -3.0755,3.686335 0,0.957654 -0.87659,2.366913 -2.02136,3.249765 -1.64819,1.271107 -2.86242,1.519078 -6.57686,1.343113 l -4.55551,-0.215784 -0.217,-5.162636 c -0.24083,-5.728576 0.50918,-7.366882 3.72004,-8.124933 1.65209,-0.390065 2.54836,0.05 5.15715,2.532161 l 3.15748,3.00425 2.21631,-1.282865 c 3.65509,-2.115751 5.05927,-4.006525 4.34116,-5.845688 -0.96419,-2.469527 -3.37539,-3.608988 -12.14371,-5.73863 -7.59257,-1.844091 -8.19244,-1.888803 -10.56009,-0.787281 -3.47428,1.616353 -34.3806972,32.14834 -34.3806972,33.964152 0,1.9810773 23.1686172,24.656156 25.1927842,24.656156 0.99967,0 7.480503,-5.8504917 18.611933,-16.8017207 z m -25.013721,4.073103 c -1.033502,-0.50386198 -2.514048,-2.188189 -3.290101,-3.743001 -1.3655102,-2.735706 -1.3681392,-3.008855 -0.08192,-8.4687983 0.730984,-3.103083 1.631526,-6.222259 2.001195,-6.93153 0.901364,-1.729505 3.392771,-1.635474 4.543751,0.171682 0.891392,1.399402 1.062184,1.334618 4.042783,-1.533343 2.989393,-2.876457 3.249443,-2.974287 6.597703,-2.482037 3.0448,0.447663 3.64637,0.844663 4.75681,3.138853 0.69911,1.444474 1.32945,3.147455 1.40063,3.784344 0.0716,0.636871 0.37812,1.737444 0.68196,2.445657 0.41766,0.973443 -0.79655,2.6538083 -4.97661,6.8872303 -7.557683,7.654225 -10.867582,9.075437 -15.676165,6.731158 z m 12.777891,-7.536807 c 3.49566,-3.44512 5.99938,-6.2638533 5.56385,-6.2638533 -0.43558,0 -1.58635,0.829071 -2.55727,1.842316 -0.97092,1.0132803 -2.0446,1.8423163 -2.38593,1.8423163 -1.33385,0 -0.51274,-2.0363993 1.63427,-4.0530853 1.24021,-1.164944 2.25495,-2.454958 2.25495,-2.866671 0,-0.411714 -1.28267,0.479364 -2.85036,1.980181 -2.67662,2.562465 -4.66606,3.475532 -4.66606,2.141451 0,-0.323059 1.35293,-1.882656 3.00655,-3.46573 1.65361,-1.583091 3.00658,-3.211701 3.00658,-3.619149 0,-0.407431 -1.45033,0.654702 -3.22291,2.360336 -3.00574,2.892119 -5.045153,3.903535 -5.045153,2.502054 0,-0.329439 1.014733,-1.552178 2.254933,-2.717087 1.2402,-1.164944 2.25493,-2.460155 2.25493,-2.878284 0,-0.418093 -1.95469,1.136217 -4.343753,3.454045 -2.389045,2.317828 -4.756722,4.214229 -5.261474,4.214229 -0.557218,0 -0.917751,-1.071146 -0.917751,-2.726602 0,-4.107134 -1.270595,-2.138852 -2.590507,4.012907 -1.621116,7.5556233 -0.185531,10.42858532 5.237834,10.48211532 1.864378,0.01935 3.410648,-1.10028602 8.627271,-6.24148902 z m 17.13743,-19.6758643 c 1.50729,-1.477788 1.01977,-2.049624 -1.3511,-1.584775 -1.33149,0.261178 -2.7116,0.06882 -3.37413,-0.470351 -1.669,-1.358041 -0.65057,-2.223905 2.08604,-1.773572 2.18188,0.35908 2.28732,0.295712 1.09832,-0.658017 -0.72346,-0.58042 -1.31538,-1.392683 -1.31538,-1.804988 0,-1.352467 -2.15148,-2.535512 -3.72214,-2.046756 -1.32347,0.41182 -1.53935,1.092059 -1.53935,4.850884 v 4.371861 h 3.60789 c 1.98435,0 4.01376,-0.397896 4.50985,-0.884286 z m 15.24709,-17.871022 c 3.83064,-6.547576 2.43103,-8.460357 -3.76954,-5.15165 -2.07779,1.108709 -4.293,2.574024 -4.9227,3.256217 -1.03983,1.126504 -0.88606,1.512967 1.67468,4.209714 3.27662,3.450711 3.73281,3.300248 7.01756,-2.314281 z"
           style="display:inline;fill:#f00000;fill-opacity:1;stroke-width:1.2"
           inkscape:label="path1049"
           inkscape:path-effect="#path-effect975"
           inkscape:original-d="m -60.232482,155.57345 c -2.436747,-2.63985 -0.834458,-5.33005 3.17461,-5.33005 0.879081,0 1.552695,-0.47953 1.552695,-1.10539 0,-1.23179 -2.655765,-1.52113 -3.382382,-0.36844 -0.705986,1.11995 -1.879101,0.88004 -1.879101,-0.38426 0,-0.61665 0.831742,-1.49275 1.848314,-1.94685 1.480114,-0.66119 2.228763,-0.58124 3.758201,0.40127 1.656211,1.06394 1.90989,1.75689 1.90989,5.2172 0,3.31574 -0.22237,3.98728 -1.315373,3.97254 -0.723453,-0.009 -2.005145,0.19698 -2.848206,0.45961 -1.015813,0.31636 -1.96654,0.005 -2.818648,-0.91563 z m 4.727305,-2.38232 c 0.912695,-1.67202 0.322647,-1.83784 -2.627037,-0.73831 -1.085303,0.40455 -1.763829,1.06775 -1.50786,1.47383 0.79281,1.25767 3.289279,0.81359 4.134897,-0.73552 z m 5.416155,2.52881 c -0.925704,-0.63569 -1.470147,-1.49365 -1.209869,-1.90653 0.316681,-0.50238 0.743543,-0.48571 1.290362,0.0504 1.01396,0.99412 3.280852,1.04459 3.884803,0.0866 0.247766,-0.39302 -0.746988,-1.20515 -2.210568,-1.8047 -2.047191,-0.8386 -2.661041,-1.51773 -2.661041,-2.94407 0,-2.45598 2.514161,-3.8362 4.98074,-2.73436 0.981212,0.43833 1.784024,1.30147 1.784024,1.91812 0,1.35672 -0.334248,1.38924 -2.24636,0.21855 -1.154691,-0.70703 -1.671789,-0.70911 -2.385185,-0.009 -0.713393,0.69945 -0.388111,1.07172 1.500386,1.71715 3.395555,1.1605 4.342802,3.16577 2.396746,5.07375 -1.82872,1.79287 -2.899033,1.86286 -5.124038,0.33492 z m 13.968808,0.37644 c -2.733504,-1.56239 -2.369002,-9.5376 0.435908,-9.5376 0.584155,0 1.274324,-0.82901 1.533711,-1.84231 0.259385,-1.01326 0.972541,-1.84232 1.58477,-1.84232 1.309844,0 1.441645,0.85703 0.30341,1.97298 -0.578538,0.56718 -0.23264,1.35962 1.211451,2.77545 1.640605,1.60847 1.932909,2.41428 1.552438,4.27943 -0.853457,4.18369 -3.598364,5.92242 -6.621696,4.19437 z m 4.29171,-4.74757 c 0,-2.49202 -0.260323,-2.98396 -1.683921,-3.18224 -1.189713,-0.16595 -1.929343,0.29356 -2.520162,1.56481 -1.139847,2.45277 0.282525,5.1125 2.563745,4.79404 1.373717,-0.19175 1.640338,-0.70805 1.640338,-3.17661 z m 21.588997,4.37975 c -2.456234,-1.68675 -2.389147,-7.20029 0.107118,-8.80389 2.3379668,-1.50189 5.5135958,-0.39667 6.1643498,2.14543 0.676966,2.64444 -0.118045,3.3841 -3.637571,3.3841 -2.9611038,0 -3.0557358,0.0661 -1.8225944,1.2752 1.0765824,1.05552 1.5558204,1.11897 2.7816204,0.36849 1.908323,-1.16848 2.252959,-1.14205 2.252959,0.17275 0,1.01855 -2.156862,2.60515 -3.541543,2.60515 -0.348596,0 -1.3855504,-0.51624 -2.3043368,-1.1472 z m 4.2116488,-6.66627 c -0.769175,-0.75414 -1.778466,-1.00258 -2.791797,-0.68726 -2.5338818,0.78846 -1.8375678,1.86837 1.204711,1.86837 2.561164,0 2.69228,-0.0975 1.587086,-1.18111 z m 21.1768762,6.33961 c -2.156092,-2.11388 -2.061122,-6.90261 0.167277,-8.43285 2.157287,-1.48145 3.048721,-1.44543 5.130554,0.20734 1.02928,0.81715 1.47999,1.71323 1.1361,2.25876 -0.42921,0.68089 -0.93385,0.58148 -2.042682,-0.40236 -1.936991,-1.71861 -4.0154,-0.51985 -4.0154,2.31604 0,2.79834 2.075688,4.03704 3.961289,2.36401 1.733423,-1.53802 2.427643,-1.59379 2.427643,-0.19511 0,1.17592 -2.795027,3.35796 -4.301267,3.35796 -0.528112,0 -1.636678,-0.66325 -2.463483,-1.47387 z m 9.583414,0.69789 c -1.51027,-0.8854 -1.74179,-3.66969 -0.41339,-4.97205 0.49606,-0.48637 1.65994,-0.88434 2.58639,-0.88434 0.92642,0 1.89489,-0.33394 2.15222,-0.74212 0.68106,-1.08039 -1.82968,-1.81506 -2.83487,-0.82956 -1.18556,1.16231 -2.05407,1.04122 -2.05407,-0.28646 0,-1.72236 3.22654,-2.89422 5.16639,-1.87637 1.35583,0.71139 1.59836,1.50571 1.59836,5.23429 0,3.01982 -0.29405,4.39874 -0.93955,4.40564 -0.51676,0.005 -1.61603,0.17025 -2.44283,0.36607 -0.82682,0.19571 -2.09521,0.009 -2.81865,-0.41514 z m 3.96119,-2.55804 c 1.26183,-1.49064 0.60419,-2.00495 -1.80547,-1.41199 -1.96295,0.48303 -2.41551,1.11368 -1.46671,2.04393 0.84255,0.82606 2.27162,0.5501 3.27218,-0.63194 z m 6.06753,1.92824 c -3.4001,-3.33349 -0.85217,-10.37041 3.37805,-9.3295 1.55793,0.3834 1.81397,0.18425 1.81397,-1.40995 0,-1.02101 0.33824,-1.85639 0.75163,-1.85639 0.44543,0 0.75164,2.70209 0.75164,6.63234 0,4.80921 -0.25836,6.63509 -0.93956,6.64238 -0.51673,0.005 -1.66931,0.20197 -2.56124,0.43659 -1.07394,0.28243 -2.1529,-0.0941 -3.19449,-1.11547 z m 5.04565,-3.87437 c 0.18768,-2.20602 -0.0601,-2.79098 -1.35142,-3.19282 -1.75795,-0.54698 -3.76371,0.70413 -3.76371,2.34776 0,2.1591 1.58799,4.00626 3.24535,3.77486 1.29281,-0.18035 1.68894,-0.80111 1.86978,-2.9298 z m 5.14407,4.17932 c -2.53423,-2.48459 -0.76006,-5.53154 3.22093,-5.53154 0.85397,0 1.55267,-0.34198 1.55267,-0.76001 0,-1.17524 -2.25461,-1.74579 -3.20739,-0.81167 -1.17306,1.15011 -2.05409,1.04515 -2.05409,-0.24476 0,-1.07376 2.18017,-2.60517 3.70881,-2.60517 0.4406,0 1.47751,0.66323 2.30433,1.47385 2.04984,2.00973 2.1948,8.83778 0.18788,8.85311 -0.7235,0.005 -2.02601,0.1972 -2.89453,0.42571 -0.94725,0.24942 -2.07514,-0.0706 -2.81865,-0.79963 z m 4.51425,-2.24713 c 0.24489,-0.62546 0.28121,-1.29794 0.0807,-1.4945 -0.66883,-0.6557 -4.42875,1.14369 -3.95619,1.89334 0.72125,1.14418 3.37864,0.87069 3.87554,-0.39884 z m 10.9496,2.20075 c -1.29458,-0.88897 -1.67054,-1.8747 -1.67054,-4.37975 0,-2.50508 0.37596,-3.49076 1.67054,-4.37976 2.15732,-1.48145 3.04871,-1.44543 5.13055,0.20734 1.0293,0.81715 1.48001,1.71323 1.13611,2.25876 -0.4292,0.68089 -0.93383,0.58148 -2.04267,-0.40236 -1.937,-1.71861 -4.01543,-0.51985 -4.01543,2.31604 0,2.79834 2.07567,4.03704 3.96131,2.36401 2.6671,-2.36647 3.50302,-0.83909 0.92436,1.68906 -1.80914,1.77373 -2.88647,1.8428 -5.09423,0.32666 z m 16.10217,0.0435 c -2.81989,-2.7647 -2.04499,-8.64148 1.2509,-9.48648 2.46781,-0.63272 5.02888,1.39153 5.02888,3.97477 0,2.06813 -0.17216,2.1938 -3.00654,2.1938 -1.65363,0 -3.00659,0.342 -3.00659,0.76002 0,1.24186 2.34782,1.74839 3.84759,0.83013 1.62115,-0.99262 2.17005,-1.0692 2.15403,-0.30066 -0.0507,2.43361 -4.41455,3.8457 -6.26827,2.0283 z m 4.77653,-6.21597 c 0,-0.89559 -2.77266,-1.75222 -3.7515,-1.15912 -1.4877,0.90142 -0.72176,1.84639 1.49654,1.84639 1.24021,0 2.25496,-0.30928 2.25496,-0.68727 z m 4.25047,5.97195 c -0.68414,-0.74123 -1.24393,-1.71239 -1.24393,-2.15814 0,-1.40023 2.28777,-3.12654 4.14334,-3.12654 0.97959,0 1.99156,-0.33397 2.24887,-0.74212 0.74825,-1.18699 -1.93866,-1.78872 -3.55843,-0.79698 -1.73907,1.06484 -2.30111,0.74522 -1.64359,-0.93468 0.47431,-1.21179 1.65681,-1.56253 4.41429,-1.30936 2.07878,0.19082 2.63888,1.39841 2.65206,5.71755 0.0127,3.64365 -0.0714,3.79295 -2.33735,4.23733 -3.24052,0.63538 -3.27612,0.62863 -4.67526,-0.88706 z m 4.78427,-1.98637 c 0.52292,-0.61771 0.77336,-1.29709 0.55656,-1.5097 -0.75392,-0.73913 -4.3298,0.58841 -4.3298,1.60741 0,1.37463 2.58358,1.30773 3.77324,-0.0978 z m 6.16528,2.18683 c -1.29458,-0.88898 -1.67049,-1.8747 -1.67049,-4.37975 0,-2.50508 0.37591,-3.4908 1.67049,-4.37978 2.2148,-1.52092 3.28511,-1.44705 5.121658,0.35356 1.90748,1.87015 1.16436,3.53976 -0.7998,1.79703 -2.176198,-1.93088 -4.631718,-0.78135 -4.344018,2.0336 0.30968,3.03121 2.29464,4.24312 4.192028,2.5596 2.66714,-2.36646 3.50299,-0.83909 0.92439,1.68904 -1.809148,1.77372 -2.886458,1.84282 -5.094258,0.3267 z m 13.704258,-0.36333 c -1.87918,-2.03586 -1.84024,-6.41113 0.0716,-8.01619 0.80612,-0.6769 1.84021,-1.87774 2.29788,-2.66855 0.45775,-0.79082 1.47244,-1.55932 2.25496,-1.70774 1.35992,-0.25806 1.36465,-0.20653 0.10763,1.16339 -1.61638,1.7613 -1.66326,2.42266 -0.17199,2.42266 2.96242,0 3.27925,8.04809 0.37677,9.57102 -2.11764,1.11117 -3.38655,0.91461 -4.93657,-0.76459 z m 4.97042,-2.26734 c 1.2483,-2.28681 -0.25176,-5.24465 -2.50097,-4.93134 -2.94233,0.4098 -2.80634,6.49839 0.1449,6.49839 0.82524,0 1.88537,-0.70519 2.35587,-1.56705 z m -187.050736,-3.40726 0.217171,-6.44808 3.153269,-0.22474 c 7.556013,-0.53825 8.638008,7.49102 1.142291,8.47673 -2.887933,0.37975 -3.168099,0.60354 -3.168099,2.53034 0,1.16256 -0.351406,2.11376 -0.780903,2.11376 -0.497161,0 -0.701991,-2.34293 -0.563729,-6.4481 z m 7.296125,-1.54517 c 1.015297,-1.85995 -0.34639,-3.06057 -3.471078,-3.06057 -2.254925,0 -2.480415,0.20091 -2.480415,2.21073 0,2.03104 0.211722,2.2108 2.604301,2.2108 1.763006,0 2.844273,-0.43965 3.347192,-1.36096 z m 22.610842,3.20326 c 0,-2.70207 0.327642,-4.79001 0.751638,-4.79001 0.424005,0 0.751642,2.08794 0.751642,4.79001 0,2.70204 -0.327637,4.79001 -0.751642,4.79001 -0.423996,0 -0.751638,-2.08797 -0.751638,-4.79001 z m 14.794785,4.31099 c -0.282494,-0.27688 -0.513618,-2.40034 -0.513618,-4.71865 0,-4.17717 0.02162,-4.21817 2.401415,-4.56062 1.320783,-0.19021 3.010064,-0.18942 3.753961,0.001 2.489383,0.63825 3.851837,8.83324 1.589917,9.56312 -0.603891,0.19471 -0.973639,-0.99455 -1.127461,-3.62689 -0.21194,-3.62711 -0.36802,-3.9171 -2.107989,-3.9171 -1.691125,0 -1.902643,0.33173 -2.114462,3.31612 -0.238841,3.36541 -0.95024,4.85583 -1.881763,3.94257 z m 25.7937978,-4.31099 c 0,-3.33533 0.285336,-4.79305 0.93954195,-4.80008 0.51675703,-0.005 1.66931605,-0.20195 2.56125305,-0.4366 2.722697,-0.71612 4.767248,2.00383 4.767248,6.34209 0,2.02653 -0.338238,3.6846 -0.751647,3.6846 -0.413396,0 -0.751633,-1.2631 -0.751633,-2.80685 0,-3.65569 -1.453695,-5.64797 -3.627568,-4.97155 -1.38654502,0.43148 -1.63391702,1.05882 -1.63391702,4.14343 0,1.99925 -0.33823703,3.63497 -0.75163103,3.63497 -0.42400595,0 -0.75164695,-2.08797 -0.75164695,-4.79001 z m 70.4037082,4.29873 c -0.6265,-0.6142 -0.659,-6.3541 -0.0447,-7.92311 0.27056,-0.69124 1.34127,-1.16563 2.63073,-1.16563 2.48926,0 2.907,1.14658 0.67125,1.84232 -1.23564,0.38447 -1.50331,1.11498 -1.50331,4.10273 0,3.37983 -0.53494,4.33869 -1.75382,3.14369 z m 36.058258,-0.0194 c -0.2643,-0.25929 -0.48067,-2.40564 -0.48067,-4.76999 0,-3.32978 0.25429,-4.29869 1.12749,-4.29869 0.87565,0 1.12749,0.97775 1.12749,4.37803 0,4.08907 -0.64602,5.79685 -1.77431,4.69065 z m 14.55217,-4.27869 c 0,-3.33535 0.28527,-4.79307 0.93954,-4.80008 0.51676,-0.005 1.6693,-0.20175 2.56126,-0.43658 2.72269,-0.71612 4.76723,2.00383 4.76723,6.34204 0,2.02658 -0.33824,3.68463 -0.75165,3.68463 -0.41341,0 -0.75162,-1.26308 -0.75162,-2.80685 0,-3.65571 -1.45372,-5.64795 -3.62755,-4.97151 -1.38656,0.43146 -1.63394,1.0588 -1.63394,4.14339 0,1.99926 -0.33826,3.63497 -0.75164,3.63497 -0.42398,0 -0.75163,-2.08794 -0.75163,-4.79001 z m -161.602719,-7.37069 c 0,-0.6755 0.363608,-1.10933 0.808012,-0.9641 0.44441,0.14498 0.808013,0.57909 0.808013,0.9641 0,0.38507 -0.363603,0.81891 -0.808013,0.96416 -0.444404,0.14498 -0.808012,-0.28861 -0.808012,-0.96416 z m 146.569879,0 c 0,-0.60793 0.50738,-1.10539 1.12749,-1.10539 0.62009,0 1.12749,0.49746 1.12749,1.10539 0,0.60799 -0.5074,1.10541 -1.12749,1.10541 -0.62011,0 -1.12749,-0.49742 -1.12749,-1.10541 z M 0.20851378,131.11598 c -6.32048098,-1.55017 -9.26223838,-5.8942 -9.71108938,-14.34016 -0.389044,-7.32063 0.6558024,-11.38158 3.6723314,-14.27302 4.280539,-4.103084 13.446507,-4.974574 18.9822362,-1.80484 3.039438,1.74034 5.755231,5.69748 5.755231,8.38582 0,2.05378 -0.09336,2.10181 -4.093004,2.10181 -3.715381,0 -4.183642,-0.18559 -5.0753272,-2.00941 -1.873625,-3.83264 -8.229348,-4.16283 -9.64926302,-0.5013 -0.95871503,2.47223 -0.92939603,11.07633 0.04381,12.85921 1.98588302,3.638 7.47134102,3.58381 9.41064302,-0.093 1.0430102,-1.9775 1.4628302,-2.14939 5.2484162,-2.14939 4.023409,0 4.114727,0.0466 4.114727,2.10177 0,2.82976 -2.796555,6.68854 -6.01313,8.29723 -3.1883852,1.59454 -9.2283772,2.27313 -12.68559222,1.42522 z M -64.524861,118.92386 v -12.15923 h -4.509842 -4.509843 v -3.70162 -3.701644 l 13.341616,0.20134 13.341619,0.20134 v 3.316204 3.31614 l -4.509843,0.36843 -4.509843,0.36847 -0.206531,11.97503 -0.206532,11.97501 h -4.115389 -4.115401 z m 18.791011,10.87776 c 0,-0.70481 2.422092,-7.83457 5.382428,-15.84387 l 5.382436,-14.562354 h 4.803065 4.803064 l 1.138564,2.671584 c 2.35926,5.53598 10.059338,26.9327 10.059338,27.95264 0,0.78538 -0.986006,1.06351 -3.770364,1.06351 -3.568939,0 -3.837378,-0.13763 -5.024876,-2.57925 l -1.25451,-2.57922 h -5.863821 -5.863825 l -1.099193,2.57922 c -1.050531,2.46503 -1.267295,2.57925 -4.89575,2.57925 -3.105514,0 -3.796556,-0.23338 -3.796556,-1.28151 z m 17.818034,-16.0362 c -0.873646,-2.63453 -1.790907,-4.79003 -2.038352,-4.79003 -0.247451,0 -1.077889,1.741 -1.84542,3.86886 -0.767534,2.12785 -1.547013,4.28339 -1.732179,4.79001 -0.240626,0.65838 0.738968,0.92113 3.433862,0.92113 h 3.770531 z m 51.332888,16.07707 c 0,-1.20693 9.25606,-26.57951 10.63681,-29.15745 1.02901,-1.921324 9.29272,-1.860944 10.34984,0.0756 1.33571,2.44698 10.58226,27.89693 10.58226,29.12636 0,0.94573 -0.79492,1.19616 -3.7966,1.19616 -3.62843,0 -3.8452,-0.11434 -4.89574,-2.57924 l -1.09917,-2.57922 h -5.99296 -5.99293 l -1.09918,2.57922 c -1.05054,2.46499 -1.26731,2.57924 -4.89578,2.57924 -3.05758,0 -3.79655,-0.2414 -3.79655,-1.24063 z m 19.34394,-12.20823 c -0.19751,-0.50662 -0.98984,-2.66216 -1.76014,-4.79001 -0.77029,-2.12786 -1.59764,-3.86886 -1.83851,-3.86886 -0.24078,0 -1.03041,1.741 -1.75451,3.86886 -0.72409,2.12785 -1.49053,4.28339 -1.70319,4.79001 -0.27992,0.6673 0.68851,0.92113 3.51466,0.92113 2.81164,0 3.80083,-0.25711 3.54169,-0.92113 z m 18.98974,-2.39503 V 99.395396 h 3.63996 3.63998 l 3.95572,7.000774 c 2.17569,3.85042 4.07378,7.00078 4.21803,7.00078 0.14435,0 2.05346,-3.16169 4.24262,-7.02592 l 3.98037,-7.025924 3.75818,0.20926 3.75819,0.20932 0.21358,14.001554 c 0.11744,7.70087 0.0251,14.74771 -0.20235,15.65964 -0.36178,1.44303 -0.90128,1.65808 -4.15957,1.65808 h -3.74391 l -0.0127,-8.65885 -0.0127,-8.65887 -2.22656,3.96017 c -3.06141,5.44499 -3.72132,6.09581 -5.92324,5.84133 -1.42672,-0.16469 -2.50008,-1.22776 -4.19835,-4.15735 l -2.28161,-3.93585 -0.18846,6.14664 c -0.28903,9.43048 -0.30532,9.46278 -4.71149,9.46278 h -3.7439 z m 37.60892,14.55427 c 0.0164,-0.70929 2.467028,-7.75612 5.449398,-15.65963 l 5.42249,-14.370024 4.9334,-0.21485 4.93342,-0.21485 5.41241,14.584804 c 2.97684,8.02163 5.40756,15.16511 5.40166,15.8744 -0.009,1.05658 -0.69678,1.28961 -3.80734,1.28961 -3.62845,0 -3.84522,-0.11434 -4.89577,-2.57923 l -1.09918,-2.57922 h -5.86383 -5.86383 l -1.25448,2.57922 c -1.18751,2.44145 -1.45596,2.57923 -5.0249,2.57923 -3.09996,0 -3.765588,-0.22934 -3.743448,-1.28961 z m 19.329838,-12.15924 c -0.19082,-0.50662 -0.93057,-2.66216 -1.64409,-4.79001 -0.71354,-2.12786 -1.53947,-3.86886 -1.83538,-3.86886 -0.29592,0 -1.25276,2.1555 -2.12643,4.79003 l -1.58842,4.78997 h 3.77054 c 2.70026,0 3.67211,-0.26143 3.42378,-0.92113 z M 11.766642,56.187009 C -11.13227,54.342506 -28.15571,49.558681 -34.192233,43.271907 c -7.656218,-7.97361 -12.091156,-27.176884 -12.822205,-55.520235 -0.59201,-22.952582 1.3737,-41.131771 5.894248,-54.510897 3.467338,-10.261994 6.190003,-13.758135 13.551735,-17.401585 23.5402098,-11.650393 88.953817,-11.650393 112.494027,0 7.3617,3.64345 10.08443,7.139591 13.55174,17.401585 4.520548,13.379126 6.486268,31.558315 5.894228,54.510897 -0.73103,28.343351 -5.165998,47.546625 -12.822188,55.520235 -4.99729,5.204427 -16.4047,9.120005 -33.70193,11.568028 -8.22161,1.1636 -37.670843,2.024464 -46.08078,1.347074 z m 28.29139,-13.959583 c 29.82886,-5.515909 51.04634,-30.384302 51.19369,-60.002685 0.0914,-18.342392 -6.2586,-32.712147 -20.15353,-45.607339 -5.1185,-4.750206 -7.97215,-6.70614 -14.08428,-9.653563 -11.06528,-5.335931 -15.29531,-6.272259 -28.33537,-6.272259 -13.040041,0 -17.270041,0.936328 -28.33532722,6.272259 -6.11213698,2.947423 -8.96579898,4.903357 -14.08427678,9.653563 -13.89492,12.895192 -20.244823,27.264947 -20.153558,45.607339 0.190422,38.271874 35.6930978,67.077511 73.952652,60.002685 z M 5.6132748,4.1015003 c -10.968602,-10.753866 -12.261824,-12.282191 -12.261824,-14.4909173 0,-2.233062 1.599337,-4.045612 16.7239932,-18.953762 19.595318,-19.31476 19.333318,-19.158473 28.655928,-17.09073 3.35911,0.745041 6.49825,1.363131 6.97591,1.373525 0.47762,0.01075 2.33792,-1.191969 4.134,-2.67198 1.79608,-1.479975 4.73314,-3.332416 6.52686,-4.116542 8.63589,-3.775079 10.17823,3.356197 2.67839,12.383768 l -3.29236,3.962943 1.56913,6.681499 c 0.91465,3.894718 1.35941,7.514763 1.06634,8.679277 -0.3169,1.259262 -6.93501,8.330861 -17.90435,19.1311963 C 24.464482,14.763702 22.876989,16.123266 20.479389,16.123266 c -2.363743,0 -3.736756,-1.110339 -14.8661142,-12.0217657 z m 33.7978172,-6.990741 c 11.60152,-11.4136943 17.07817,-17.3070163 17.07817,-18.3773563 0,-1.602212 -2.16858,-11.408103 -2.62098,-11.851662 -0.13615,-0.133689 -1.63165,0.655151 -3.3232,1.752624 -2.11467,1.372055 -3.0755,2.52372 -3.0755,3.686335 0,0.957654 -0.87659,2.366913 -2.02136,3.249765 -1.64819,1.271107 -2.86242,1.519078 -6.57686,1.343113 l -4.55551,-0.215784 -0.217,-5.162636 c -0.24083,-5.728576 0.50918,-7.366882 3.72004,-8.124933 1.65209,-0.390065 2.54836,0.05 5.15715,2.532161 l 3.15748,3.00425 2.21631,-1.282865 c 3.65509,-2.115751 5.05927,-4.006525 4.34116,-5.845688 -0.96419,-2.469527 -3.37539,-3.608988 -12.14371,-5.73863 -7.59257,-1.844091 -8.19244,-1.888803 -10.56009,-0.787281 -3.47428,1.616353 -34.3806972,32.14834 -34.3806972,33.964152 0,1.9810773 23.1686172,24.656156 25.1927842,24.656156 0.99967,0 7.480503,-5.8504917 18.611933,-16.8017207 z m -25.013721,4.073103 c -1.033502,-0.50386198 -2.514048,-2.188189 -3.290101,-3.743001 -1.3655102,-2.735706 -1.3681392,-3.008855 -0.08192,-8.4687983 0.730984,-3.103083 1.631526,-6.222259 2.001195,-6.93153 0.901364,-1.729505 3.392771,-1.635474 4.543751,0.171682 0.891392,1.399402 1.062184,1.334618 4.042783,-1.533343 2.989393,-2.876457 3.249443,-2.974287 6.597703,-2.482037 3.0448,0.447663 3.64637,0.844663 4.75681,3.138853 0.69911,1.444474 1.32945,3.147455 1.40063,3.784344 0.0716,0.636871 0.37812,1.737444 0.68196,2.445657 0.41766,0.973443 -0.79655,2.6538083 -4.97661,6.8872303 -7.557683,7.654225 -10.867582,9.075437 -15.676165,6.731158 z m 12.777891,-7.536807 c 3.49566,-3.44512 5.99938,-6.2638533 5.56385,-6.2638533 -0.43558,0 -1.58635,0.829071 -2.55727,1.842316 -0.97092,1.0132803 -2.0446,1.8423163 -2.38593,1.8423163 -1.33385,0 -0.51274,-2.0363993 1.63427,-4.0530853 1.24021,-1.164944 2.25495,-2.454958 2.25495,-2.866671 0,-0.411714 -1.28267,0.479364 -2.85036,1.980181 -2.67662,2.562465 -4.66606,3.475532 -4.66606,2.141451 0,-0.323059 1.35293,-1.882656 3.00655,-3.46573 1.65361,-1.583091 3.00658,-3.211701 3.00658,-3.619149 0,-0.407431 -1.45033,0.654702 -3.22291,2.360336 -3.00574,2.892119 -5.045153,3.903535 -5.045153,2.502054 0,-0.329439 1.014733,-1.552178 2.254933,-2.717087 1.2402,-1.164944 2.25493,-2.460155 2.25493,-2.878284 0,-0.418093 -1.95469,1.136217 -4.343753,3.454045 -2.389045,2.317828 -4.756722,4.214229 -5.261474,4.214229 -0.557218,0 -0.917751,-1.071146 -0.917751,-2.726602 0,-4.107134 -1.270595,-2.138852 -2.590507,4.012907 -1.621116,7.5556233 -0.185531,10.42858532 5.237834,10.48211532 1.864378,0.01935 3.410648,-1.10028602 8.627271,-6.24148902 z m 17.13743,-19.6758643 c 1.50729,-1.477788 1.01977,-2.049624 -1.3511,-1.584775 -1.33149,0.261178 -2.7116,0.06882 -3.37413,-0.470351 -1.669,-1.358041 -0.65057,-2.223905 2.08604,-1.773572 2.18188,0.35908 2.28732,0.295712 1.09832,-0.658017 -0.72346,-0.58042 -1.31538,-1.392683 -1.31538,-1.804988 0,-1.352467 -2.15148,-2.535512 -3.72214,-2.046756 -1.32347,0.41182 -1.53935,1.092059 -1.53935,4.850884 v 4.371861 h 3.60789 c 1.98435,0 4.01376,-0.397896 4.50985,-0.884286 z m 15.24709,-17.871022 c 3.83064,-6.547576 2.43103,-8.460357 -3.76954,-5.15165 -2.07779,1.108709 -4.293,2.574024 -4.9227,3.256217 -1.03983,1.126504 -0.88606,1.512967 1.67468,4.209714 3.27662,3.450711 3.73281,3.300248 7.01756,-2.314281 z" /></g><path
         style="fill:#43aedf;fill-opacity:1;stroke:none;stroke-width:0.158794"
         d="m 136.27046,87.038096 h -0.15879 c -0.25986,-0.73918 -0.78431,-1.06868 -1.58796,-0.85844 -0.74966,0.19611 -1.37515,0.83526 -2.06433,1.18064 -1.36738,0.68552 -3.13476,0.99247 -4.20663,2.16596 -0.39555,0.43304 -1.53331,1.83694 -1.32386,2.40749 0.22295,0.60723 1.00136,0.89798 1.08171,1.60065 0.0484,0.42367 -0.34586,0.72791 -0.40922,1.13205 -0.0797,0.50766 0.17912,1.0798 0.25296,1.58175 l -0.95277,-0.63518 0.1588,1.11157 c -0.93482,-0.52149 -1.56699,-1.14968 -2.12547,-2.06434 -0.3033,-0.4967 -0.63391,-1.48425 -1.2386,-1.68037 -0.5534,-0.17943 -1.36706,0.43162 -1.87616,0.61724 -1.63256,0.59517 -4.51564,1.21002 -5.13812,3.12747 -0.25868,0.79651 0.26599,1.894899 0.37428,2.699509 h -0.15879 l -0.47639,-0.63519 0.63518,2.699515 -1.11156,-0.1588 c 0.91545,3.52048 6.77196,1.06314 8.73371,-0.21358 1.4012,-0.91195 2.30728,-2.605805 3.67991,-3.412655 0.71997,-0.423189 1.72895,-0.496709 2.51308,-0.821909 1.41359,-0.58612 2.75318,-1.44027 3.96987,-2.36398 1.42633,-1.08282 2.62988,-3.16827 4.14287,-3.98146 0.47675,-0.25629 1.06975,-0.14657 1.57373,-0.35586 3.18302,-1.32149 7.61264,-3.77328 8.97582,-7.11194 1.08527,-2.65791 -1.07079,-5.40235 -3.89439,-5.03554 -1.80076,0.23406 -2.76322,1.08425 -4.17399,2.08211 -0.54784,0.38763 -1.27893,0.26741 -1.83092,0.68314 -1.6938,1.2756 -3.35816,4.12835 -3.36397,6.24015 m -1.11156,22.390054 -0.47639,-0.63517 c -1.08599,0.21484 -1.51696,-0.59707 -2.54071,-0.73539 -1.71466,-0.23184 -4.62506,1.31229 -5.08143,2.9585 -2.1007,-0.74538 -2.20931,0.38556 -2.06433,2.22313 h -0.1588 c -0.92005,-3.33723 -4.15137,-4.44196 -6.74671,-1.80438 -1.00057,1.01708 -1.97525,4.04768 -1.98699,5.45666 -0.76,-0.3657 -2.25855,-0.11703 -2.68586,-0.98676 -0.40206,-0.81857 0.92323,-1.35022 1.1295,-2.03272 0.25646,-0.8486 -1.94301,-2.61487 0.1272,-2.22074 1.10331,-1.96954 0.0159,-3.65229 -0.95277,-5.39902 h -0.31759 l -0.15879,1.42915 -1.27036,-1.27036 h -0.15879 l -0.1588,1.11157 c -1.00294,-0.90831 -1.47472,-1.27147 -2.8583,-1.58796 0.78254,-1.52696 3.41059,-1.49107 4.69921,-2.39176 0.69314,-0.48464 -0.0463,-1.17317 -0.57055,-1.26051 v -3.493485 c -1.09616,0.80748 -1.56381,2.118645 -3.0171,2.381925 l -1.05472,-5.079044 1.05472,-1.59033 c -0.7927,-0.37476 -1.2675,0.0303 -2.05003,-0.0797 -0.82272,-0.11592 -1.75611,-1.4517 -2.07863,-2.14342 1.2259,0.19945 2.49514,2.85562 3.46998,0.47972 0.10671,-0.26026 0.14085,-0.52227 0.18229,-0.7973 l 0.95277,1.90554 c 1.33499,-0.2636 1.97128,-1.26083 0.61851,-2.22805 -0.74665,-0.53387 -1.70371,-0.65329 -2.52404,-1.03026 -1.21334,-0.55737 -1.63574,-1.12966 -3.01709,-1.18795 l -1.90554,3.96987 -0.79397,-0.1588 c 0.0732,1.70515 0.79493,3.70643 -1.42916,4.28746 0.61184,-0.8721 1.35643,-1.39612 1.11157,-2.54072 l -1.58795,0.79398 c 0.29901,-2.22074 1.67671,-5.0519 0.85702,-7.30456 -0.45653,-1.2548 -1.799624,-2.28601 -2.444964,-3.49348 h 0.63518 v -0.1588 c -1.33356,-0.70886 -0.69394,-1.90077 -1.52491,-2.72444 -1.63765,-1.62319 -4.65983,-0.50719 -5.30327,1.61289 -1.01596,-0.42034 -2.03908,-0.10323 -3.0171,0.31758 l 0.31759,0.79397 c -2.15023,0.83543 -3.01075,2.31936 -3.01709,4.60505 l -0.95277,0.1588 0.79397,1.58794 c -2.33683,-0.0482 -5.30962,-1.56364 -7.60102,-0.90227 -0.83177,0.2401 -0.57072,1.11331 -0.0118,1.48156 1.05582,0.69552 2.55866,1.42232 3.8017,1.64384 v 0.15879 c -1.9816,0 -4.17392,-1.37294 -6.03357,-1.17222 -1.42644,0.15403 -1.75404,2.43163 -1.06788,3.39472 0.40365,0.56674 0.93069,1.06154 1.38485,1.58858 l -0.63519,0.15879 1.11157,2.064339 -2.54072,-2.064339 c -0.95118,1.976359 0.93514,3.590824 0.95276,5.557804 h -0.15878 c -0.77842,-2.13879 -1.85584,-5.298335 -3.65467,-6.773694 -0.80175,-0.65757 -1.90379,-0.77079 -2.85592,-1.11759 -0.94784,-0.34522 -1.75277,-1.123 -2.69951,-1.39565 -0.8027,-0.23105 -1.70862,-0.0408 -2.54071,-0.24074 1.78644,-1.16348 0.38492,-2.9261 0,-4.60505 -0.72331,-0.11496 -1.23574,-0.32457 -1.27036,-1.11155 1.25385,1.83884 1.64639,-1.57159 1.90554,-2.38193 l -1.42915,-0.15879 c 0.89179,-0.46987 2.60185,-0.58992 3.17129,-1.49108 0.68503,-1.08442 -0.68425,-3.25435 -0.87385,-4.38433 -0.15038,-0.89671 0.31441,-1.66671 0.40207,-2.54071 l -0.95277,-0.3176 0.79397,-0.31759 c -0.78285,-1.45455 -2.82479,-0.58896 -3.33469,-2.54071 l 2.38192,-0.15879 c -0.16054,-1.45615 1.78708,-2.81988 2.41623,-4.12867 1.83264,-3.81243 1.24622,-8.4338 -3.0514,-10.0125 -0.52418,-0.19258 -1.18429,-0.6499 -1.74659,-0.65638 -1.40898,-0.0162 -1.73372,2.99777 -1.93729,3.99951 -0.88973,4.37893 -0.94959,8.75071 -1.25289,13.17996 -0.21056,3.07299 -0.40366,6.17839 -1.00994,9.21009 -0.31774,1.58906 -1.03836,3.17812 -1.26131,4.76384 -0.25533,1.81645 -0.30043,3.71056 -0.60849,5.55782 -0.10211,0.6128 -0.50846,1.12077 -0.56341,1.74674 -0.0548,0.623909 0.3268,1.229229 0.22914,1.838209 -0.66709,4.161055 -1.28544,8.759585 -0.87353,13.088485 0.15658,1.64527 0.39985,3.26085 1.12554,4.76384 0.4451,0.92164 1.39803,1.88807 1.6421,2.85831 0.34824,1.38469 -0.48798,3.11809 -0.21771,4.60504 0.21103,1.16016 1.44535,1.92078 1.86933,3.0171 l -0.63519,0.1588 v 0.15879 c 1.49458,0.65408 3.67071,0.20277 4.28747,2.38192 -1.06028,-0.48496 -1.50967,0.16991 -1.90553,1.11156 l 1.27035,1.11157 2.8583,1.27035 -0.15879,-0.63518 c 0.62517,-0.42271 0.12719,-1.09092 0.15879,-1.74674 1.13681,1.26353 1.7361,3.44013 3.65227,3.65228 -0.64612,2.12547 1.28974,2.85703 3.1759,2.8583 -0.12735,-0.35808 -0.50036,-1.6197 0.32792,-1.48775 1.13506,0.18088 0.56117,1.93206 1.15236,2.53278 0.82621,0.83971 3.10984,0.85368 4.23633,1.0193 0.68234,-1.69798 1.7866,0.23169 3.01709,0.0789 0.62249,-0.0773 0.98771,-0.69695 1.58796,-0.84637 2.3211,-0.57801 4.6503,-0.68473 6.98696,-1.45583 1.37071,-0.45225 2.97979,-0.56213 4.28745,-1.12443 3.026,-1.30085 6.358784,-3.3928 9.051314,-5.29453 1.6783,-1.18556 2.95373,-3.0217 4.61123,-4.12437 0.52005,-0.34602 1.19048,-0.25931 1.72625,-0.58643 1.25813,-0.76761 2.28585,-1.87807 3.3828,-2.78733 0.46289,-0.38364 1.05964,-0.15275 1.54539,-0.47241 0.75952,-0.49989 0.97072,-1.6432 1.27909,-2.44258 2.94136,0.9931 5.18148,-0.57579 7.93974,-1.53331 2.3381,-0.81161 4.8823,-1.21892 7.14577,-2.18677 2.10434,-0.89989 3.54776,-2.48069 5.44434,-3.58066 1.13815,-0.66011 2.70004,-0.8197 3.92454,-1.48203 2.20718,-1.19382 6.35056,-3.35676 5.92258,-6.46151 -0.64945,-4.71113 -7.37025,-1.18906 -9.41606,0.0319 -0.65121,0.38856 -1.68339,0.79968 -2.11248,1.449 -0.3915,0.5923 0.19211,1.79295 0.20694,2.48894 m 6.51059,-22.389964 c -1.26875,-1.52173 -0.82169,-2.36953 0.95277,-3.33469 0.18033,0.75015 0.77638,2.12753 1.42915,0.95277 0.8451,0.25677 0.86267,1.05122 0.20181,1.62892 -0.52755,0.46114 -1.886,0.50528 -2.58373,0.753 m -9.68647,-15.87946 c -1.2567,-0.22661 -2.14691,-1.00327 -3.49348,-0.94658 -2.68173,0.11306 -6.93679,3.62734 -7.30456,6.34559 h -0.79397 c 0.0752,0.67568 0.48591,1.75833 1.28464,1.86076 0.37619,0.0482 0.69727,-0.21215 1.06329,0.005 0.43526,0.25756 0.62232,0.87924 0.82795,1.31069 -1.59,0.29155 -2.22788,-1.66004 -3.81107,-1.74675 0.0421,1.74326 1.72277,2.47117 2.38193,3.96987 -1.9851,0.36396 -1.67751,-1.7669 -2.67458,-2.72205 -0.48289,-0.46257 -1.50236,-0.32173 -2.08926,-0.18691 -2.49086,0.5715 -4.33383,3.03584 -5.77537,4.9733 -0.49099,0.65979 -1.2197,1.41994 -1.44709,2.22312 -0.50576,1.78707 1.73419,4.89803 3.57018,4.97329 0.94864,0.0388 2.06322,-0.8054 2.8583,-1.25368 2.26823,-1.27862 4.71303,-2.52563 6.46216,-4.51978 0.75363,-0.85924 0.43572,-2.16786 1.47757,-2.69331 l -0.47638,-1.27036 c 0.56849,0.0856 1.35404,0.59707 1.90554,0.42858 0.72919,-0.22263 1.47123,-1.12982 2.06433,-1.60366 1.69862,-1.3569 3.64259,-2.59963 4.93406,-4.38273 0.50053,-0.69108 0.35031,-1.91698 0.87831,-2.44496 0.4823,-0.48211 1.38581,-0.14753 1.96857,-0.50863 1.91986,-1.18905 3.81349,-3.2437 5.22516,-4.98615 1.5901,-1.9627 2.80911,-5.17566 0.49085,-7.10962 -1.9096,-1.59303 -4.44775,-0.0297 -6.0336,1.23484 -1.8868,1.50446 -4.26126,3.19288 -4.84784,5.55719 -0.11132,0.44876 -0.49083,0.95515 -0.34443,1.42916 0.22708,0.73569 1.18191,1.50314 1.69879,2.06433 m 8.41612,15.40308 -0.47639,-0.1588 v -0.31759 l 0.47639,-0.15879 v 0.63518 m -0.79398,-21.59607 c -0.13917,0.92434 -0.57174,1.84296 -1.58795,2.02812 -1.12141,0.20421 -3.05671,-0.52974 -2.58935,-2.01391 0.14724,-0.46759 0.65858,-0.80965 1.00154,-1.12958 0.3928,-0.36645 1.08488,-1.17187 1.71034,-0.91062 0.72063,0.301 0.67863,1.57091 1.46542,2.02599 m -3.01709,22.54884 -0.3176,-0.47639 h 0.15881 l 0.1588,0.47639 m -0.1588,25.406644 h -0.1588 l -0.63518,-1.90553 c 0.74014,0.42113 0.78691,1.11061 0.79401,1.90522 m -11.27443,0.47639 -0.15879,-0.1588 0.15879,0.1588 m -10.16286,-55.101764 -2.38192,-0.63517 0.63518,1.11156 c -2.45433,1.0865 -4.46341,1.35578 -6.46262,3.58488 -0.51322,0.57233 -0.69393,1.36271 -1.17905,1.9706 -0.45923,0.57526 -1.23494,1.01233 -1.60207,1.63617 -0.27139,0.46114 0.0984,1.02916 -0.34078,1.42487 -0.61009,0.54958 -1.51776,0.61041 -2.1639,1.23558 -2.053854,1.98731 -3.079664,4.60743 -4.212824,7.13892 -0.2906,0.64933 -1.31832,1.53159 -1.31466,2.22313 0.006,1.23369 2.18597,1.97017 2.94818,2.64139 0.50434,0.44415 0.69155,1.21669 0.98898,1.80487 l -0.63518,0.15879 c 0.57134,1.08774 1.340064,0.59579 1.746734,-0.31759 1.84156,0.54403 2.66219,-0.8875 3.81108,-2.06433 1.51331,-1.55015 3.41646,-3.5011 4.21487,-5.55781 0.26932,-0.69345 -0.18499,-1.355 -0.0191,-2.06433 0.1885,-0.80557 0.8521,-1.48076 1.2032,-2.22313 1.86043,0.9299 2.99169,-1.07234 3.83124,-2.54071 1.62923,-2.84938 3.55446,-6.527 -0.49655,-8.41612 v -0.1588 l 2.54071,1.58795 c 0.76237,-0.10054 2.08053,0.21305 2.69951,-0.12645 1.55158,-0.85104 2.22075,-2.7355 3.07299,-4.16101 1.34706,-2.25304 3.58273,-5.26884 -0.37348,-6.5863 -2.27489,-0.75754 -5.68612,2.33208 -6.95505,4.01863 -0.39079,0.51919 -1.11315,0.9207 -1.21224,1.61491 -0.13133,0.91984 1.15873,2.00695 1.65671,2.6995 m 4.44625,-3.33468 c -0.0617,-0.648 0.17531,-0.92787 0.79397,-1.11156 0.0575,0.66463 -0.19548,0.86829 -0.79397,1.11156 m -2.69952,4.76384 -0.47637,0.1588 -0.3176,-0.79398 0.79397,0.63518 m -4.12865,2.22313 -0.79398,0.47639 c -0.01,-0.59235 0.20167,-0.80367 0.79398,-0.79399 v 0.3176 m 0,26.8363 -0.79398,-0.3176 0.79398,0.3176 m 0,13.497544 c -0.3295,-0.34141 -0.40652,-0.50894 0,-0.79397 v 0.79397 m -0.15879,0.79397 -0.95277,0.63518 0.15878,-1.27035 0.79399,0.63517 m -9.2101,-12.385984 h -0.15879 l -0.15879,0.79398 0.63517,-0.1588 -0.31759,-0.63518 m 0.1588,-1.27036 -0.79397,-0.47638 -0.3176,1.42915 1.11157,-0.95277 m -0.31759,19.372954 -0.63518,-1.11157 0.31759,-0.15879 0.31759,1.27036 m -0.63518,-22.231254 -0.63518,0.63517 c 0.51847,0.011 0.64614,-0.1167 0.63518,-0.63517 m -0.15878,12.703579 -1.11155,-0.47639 c -0.33188,0.69441 -2.776844,1.951585 -2.738904,0.46782 0.0334,-1.30783 3.407584,-0.83511 3.850454,0.009 m -1.58794,-15.403069 c 0.13038,0.80207 0.71362,1.1319 1.42916,1.42916 -0.0694,-0.91752 -0.52419,-1.32832 -1.42916,-1.42916 m -0.31759,13.17997 c -1.792324,1.499659 -1.731494,-1.59906 0,0 m -1.587944,-16.19707 -0.63518,0.1588 0.63518,0.15879 v -0.31759 m -1.27036,20.802114 c -0.45225,-0.40318 -0.72427,-0.85575 -0.15879,-1.27036 l 0.15879,1.27036 m -3.33469,15.56187 -1.74674,0.1588 v -0.31759 l 1.11155,-0.79397 0.63519,0.95276 m -2.06433,0.47639 -2.69951,1.42915 c -0.91022,-1.90506 1.45265,-1.96699 2.69951,-1.42915 m -5.87541,2.54071 -0.15879,-0.63518 0.79397,-1.11156 h 0.1588 l 0.63518,0.79397 -1.42916,0.95277 m 0.47639,-5.71661 0.47638,-0.79397 -0.47638,0.79397 m -0.15879,6.66938 -2.54072,0.63518 v 1.42915 c -1.19683,-0.55848 -1.56032,-1.2748 -0.63518,-2.22312 l -1.58795,0.95277 c -0.7106,-1.50157 -0.0192,-1.73118 0.14149,-3.1759 0.12354,-1.10934 -0.0575,-2.09927 0.3349,-3.17589 l -1.74674,0.47639 c 0.0465,-2.18121 1.90013,-3.39282 3.0171,-5.08144 h 0.15879 l -1.27036,3.1759 c 1.04614,0.13259 1.5916,-0.71411 2.38193,-1.27036 -0.009,1.02851 -0.28091,1.74039 -1.11157,2.38191 v 0.1588 c 0.89449,0.45574 1.49918,0.67695 2.22312,-0.1588 l -0.7368,2.69952 1.37199,3.17589 m -0.63519,-13.81514 h -0.15878 l -1.42916,-2.06432 c 0.89402,0.44906 1.513,1.03311 1.58794,2.06432 m -7.46334,-6.03419 -0.63519,-0.47639 0.63519,0.47639 m -0.47639,-5.240214 -0.95277,-0.47639 0.95277,0.47639 m -8.09853,31.123734 -0.79396,-0.63517 0.79396,0.63517 m -1.90553,7.62215 h -0.31759 c -0.38523,0.89735 0.007,1.55143 0.95277,1.74674 l -0.63518,-1.74674 m -6.82817,-5.5578 1.11156,0.47637 c -0.28679,-0.51957 -0.53704,-0.605 -1.11156,-0.47637 z"
         id="path773" /></g></g></svg>
