<?xml version="1.0" encoding="UTF-8" standalone="no"?>
<!-- Created with Inkscape (http://www.inkscape.org/) -->

<svg
   width="32"
   height="32"
   viewBox="0 0 8.4666669 8.4666668"
   version="1.1"
   id="svg8"
   inkscape:version="1.2.2 (b0a8486, 2022-12-01)"
   sodipodi:docname="favicon-32x32.svg"
   xml:space="preserve"
   xmlns:inkscape="http://www.inkscape.org/namespaces/inkscape"
   xmlns:sodipodi="http://sodipodi.sourceforge.net/DTD/sodipodi-0.dtd"
   xmlns="http://www.w3.org/2000/svg"
   xmlns:svg="http://www.w3.org/2000/svg"
   xmlns:rdf="http://www.w3.org/1999/02/22-rdf-syntax-ns#"
   xmlns:cc="http://creativecommons.org/ns#"
   xmlns:dc="http://purl.org/dc/elements/1.1/"><defs
     id="defs2"><inkscape:path-effect
       effect="powerclip"
       id="path-effect989"
       is_visible="true"
       lpeversion="1"
       inverse="true"
       flatten="false"
       hide_clip="false"
       message="Use fill-rule evenodd on &lt;b&gt;fill and stroke&lt;/b&gt; dialog if no flatten result after convert clip to paths." /><inkscape:path-effect
       effect="powerclip"
       id="path-effect975"
       is_visible="true"
       lpeversion="1"
       inverse="true"
       flatten="false"
       hide_clip="false"
       message="Use fill-rule evenodd on &lt;b&gt;fill and stroke&lt;/b&gt; dialog if no flatten result after convert clip to paths." /><inkscape:path-effect
       effect="powerclip"
       id="path-effect867"
       is_visible="true"
       lpeversion="1"
       inverse="true"
       flatten="false"
       hide_clip="false"
       message="Use fill-rule evenodd on &lt;b&gt;fill and stroke&lt;/b&gt; dialog if no flatten result after convert clip to paths." /><inkscape:path-effect
       effect="powerclip"
       id="path-effect614"
       is_visible="true"
       lpeversion="1"
       inverse="true"
       flatten="false"
       hide_clip="false"
       message="Use fill-rule evenodd on &lt;b&gt;fill and stroke&lt;/b&gt; dialog if no flatten result after convert clip to paths." /><inkscape:path-effect
       effect="powerclip"
       id="path-effect509"
       is_visible="true"
       lpeversion="1"
       inverse="true"
       flatten="false"
       hide_clip="false"
       message="Use fill-rule evenodd on &lt;b&gt;fill and stroke&lt;/b&gt; dialog if no flatten result after convert clip to paths." /><clipPath
       clipPathUnits="userSpaceOnUse"
       id="clipPath941"><path
         id="path943"
         sodipodi:type="arc"
         sodipodi:cx="-128.76439"
         sodipodi:cy="63.161652"
         sodipodi:rx="30.944174"
         sodipodi:ry="30.944174"
         sodipodi:start="5.8371141"
         sodipodi:end="5.8231689"
         sodipodi:open="true"
         d="m -100.84813,49.811576 a 30.944174,30.944174 0 0 1 -14.46894,41.21962 30.944174,30.944174 0 0 1 -41.26981,-14.325146 30.944174,30.944174 0 0 1 14.18118,-41.319504 30.944174,30.944174 0 0 1 41.36869,14.037043"
         sodipodi:arc-type="arc" /></clipPath><clipPath
       clipPathUnits="userSpaceOnUse"
       id="clipPath505"><path
         id="path507"
         style="display:none;fill:#ffff00;stroke-width:0.506;stroke-miterlimit:0.5"
         d="M -7.8481293,70.172218 H 219.56689 V 161.03999 H -7.8481293 Z" /></clipPath><clipPath
       clipPathUnits="userSpaceOnUse"
       id="clipPath633"><rect
         style="fill:#ffff00;stroke-width:0.506;stroke-miterlimit:0.5"
         id="rect635"
         width="225.94148"
         height="166.50906"
         x="0.99306047"
         y="-95.354485" /></clipPath><clipPath
       clipPathUnits="userSpaceOnUse"
       id="clipPath971"><ellipse
         style="display:none;fill:#ff0000;stroke-width:0.548386;stroke-miterlimit:0.5"
         id="ellipse973"
         cx="27.762213"
         cy="-24.25852"
         rx="50.836838"
         ry="46.045929"
         d="M 78.599051,-24.25852 A 50.836838,46.045929 0 0 1 27.762213,21.787409 50.836838,46.045929 0 0 1 -23.074625,-24.25852 50.836838,46.045929 0 0 1 27.762213,-70.304449 50.836838,46.045929 0 0 1 78.599051,-24.25852 Z" /><path
         id="lpe_path-effect975"
         style="fill:#ff0000;stroke-width:0.548386;stroke-miterlimit:0.5"
         class="powerclip"
         d="M -78.544546,-97.898605 H 135.91246 V 161.87579 H -78.544546 Z M 78.599051,-24.25852 A 50.836838,46.045929 0 0 0 27.762213,-70.304449 50.836838,46.045929 0 0 0 -23.074625,-24.25852 50.836838,46.045929 0 0 0 27.762213,21.787409 50.836838,46.045929 0 0 0 78.599051,-24.25852 Z" /></clipPath><clipPath
       clipPathUnits="userSpaceOnUse"
       id="clipPath985"><rect
         style="display:none;fill:#ff0000;stroke-width:0.506;stroke-miterlimit:0.5"
         id="rect987"
         width="245.58859"
         height="90.867775"
         x="-89.874718"
         y="72.136925" /><path
         id="lpe_path-effect989"
         style="fill:#ff0000;stroke-width:0.506;stroke-miterlimit:0.5"
         class="powerclip"
         d="M -78.544546,-97.898605 H 135.91246 V 161.87579 H -78.544546 Z M -89.874718,72.136925 V 163.0047 H 155.71387 V 72.136925 Z" /></clipPath></defs><sodipodi:namedview
     id="base"
     pagecolor="#ffffff"
     bordercolor="#666666"
     borderopacity="1.0"
     inkscape:pageopacity="0.0"
     inkscape:pageshadow="2"
     inkscape:zoom="6.8535927"
     inkscape:cx="7.2954437"
     inkscape:cy="19.770653"
     inkscape:document-units="mm"
     inkscape:current-layer="layer1"
     showgrid="false"
     inkscape:window-width="1920"
     inkscape:window-height="1027"
     inkscape:window-x="0"
     inkscape:window-y="25"
     inkscape:window-maximized="0"
     showguides="false"
     inkscape:showpageshadow="2"
     inkscape:pagecheckerboard="0"
     inkscape:deskcolor="#d1d1d1" /><metadata
     id="metadata5"><rdf:RDF><cc:Work
         rdf:about=""><dc:format>image/svg+xml</dc:format><dc:type
           rdf:resource="http://purl.org/dc/dcmitype/StillImage" /></cc:Work></rdf:RDF></metadata><g
     inkscape:label="Capa 1"
     inkscape:groupmode="layer"
     id="layer1"
     transform="translate(18.16285,-11.23096)"><g
       id="g981"
       transform="matrix(0.05380104,0,0,0.05380104,-15.448917,16.445519)"
       clip-path="url(#clipPath985)"
       inkscape:path-effect="#path-effect989"
       style="fill:#f00000;fill-opacity:1"><path
         clip-path="url(#clipPath971)"
         inkscape:connector-curvature="0"
         id="path1049"
         d="m -60.232482,155.57345 c -2.436747,-2.63985 -0.834458,-5.33005 3.17461,-5.33005 0.879081,0 1.552695,-0.47953 1.552695,-1.10539 0,-1.23179 -2.655765,-1.52113 -3.382382,-0.36844 -0.705986,1.11995 -1.879101,0.88004 -1.879101,-0.38426 0,-0.61665 0.831742,-1.49275 1.848314,-1.94685 1.480114,-0.66119 2.228763,-0.58124 3.758201,0.40127 1.656211,1.06394 1.90989,1.75689 1.90989,5.2172 0,3.31574 -0.22237,3.98728 -1.315373,3.97254 -0.723453,-0.009 -2.005145,0.19698 -2.848206,0.45961 -1.015813,0.31636 -1.96654,0.005 -2.818648,-0.91563 z m 4.727305,-2.38232 c 0.912695,-1.67202 0.322647,-1.83784 -2.627037,-0.73831 -1.085303,0.40455 -1.763829,1.06775 -1.50786,1.47383 0.79281,1.25767 3.289279,0.81359 4.134897,-0.73552 z m 5.416155,2.52881 c -0.925704,-0.63569 -1.470147,-1.49365 -1.209869,-1.90653 0.316681,-0.50238 0.743543,-0.48571 1.290362,0.0504 1.01396,0.99412 3.280852,1.04459 3.884803,0.0866 0.247766,-0.39302 -0.746988,-1.20515 -2.210568,-1.8047 -2.047191,-0.8386 -2.661041,-1.51773 -2.661041,-2.94407 0,-2.45598 2.514161,-3.8362 4.98074,-2.73436 0.981212,0.43833 1.784024,1.30147 1.784024,1.91812 0,1.35672 -0.334248,1.38924 -2.24636,0.21855 -1.154691,-0.70703 -1.671789,-0.70911 -2.385185,-0.009 -0.713393,0.69945 -0.388111,1.07172 1.500386,1.71715 3.395555,1.1605 4.342802,3.16577 2.396746,5.07375 -1.82872,1.79287 -2.899033,1.86286 -5.124038,0.33492 z m 13.968808,0.37644 c -2.733504,-1.56239 -2.369002,-9.5376 0.435908,-9.5376 0.584155,0 1.274324,-0.82901 1.533711,-1.84231 0.259385,-1.01326 0.972541,-1.84232 1.58477,-1.84232 1.309844,0 1.441645,0.85703 0.30341,1.97298 -0.578538,0.56718 -0.23264,1.35962 1.211451,2.77545 1.640605,1.60847 1.932909,2.41428 1.552438,4.27943 -0.853457,4.18369 -3.598364,5.92242 -6.621696,4.19437 z m 4.29171,-4.74757 c 0,-2.49202 -0.260323,-2.98396 -1.683921,-3.18224 -1.189713,-0.16595 -1.929343,0.29356 -2.520162,1.56481 -1.139847,2.45277 0.282525,5.1125 2.563745,4.79404 1.373717,-0.19175 1.640338,-0.70805 1.640338,-3.17661 z m 21.588997,4.37975 c -2.456234,-1.68675 -2.389147,-7.20029 0.107118,-8.80389 2.3379668,-1.50189 5.5135958,-0.39667 6.1643498,2.14543 0.676966,2.64444 -0.118045,3.3841 -3.637571,3.3841 -2.9611038,0 -3.0557358,0.0661 -1.8225944,1.2752 1.0765824,1.05552 1.5558204,1.11897 2.7816204,0.36849 1.908323,-1.16848 2.252959,-1.14205 2.252959,0.17275 0,1.01855 -2.156862,2.60515 -3.541543,2.60515 -0.348596,0 -1.3855504,-0.51624 -2.3043368,-1.1472 z m 4.2116488,-6.66627 c -0.769175,-0.75414 -1.778466,-1.00258 -2.791797,-0.68726 -2.5338818,0.78846 -1.8375678,1.86837 1.204711,1.86837 2.561164,0 2.69228,-0.0975 1.587086,-1.18111 z m 21.1768762,6.33961 c -2.156092,-2.11388 -2.061122,-6.90261 0.167277,-8.43285 2.157287,-1.48145 3.048721,-1.44543 5.130554,0.20734 1.02928,0.81715 1.47999,1.71323 1.1361,2.25876 -0.42921,0.68089 -0.93385,0.58148 -2.042682,-0.40236 -1.936991,-1.71861 -4.0154,-0.51985 -4.0154,2.31604 0,2.79834 2.075688,4.03704 3.961289,2.36401 1.733423,-1.53802 2.427643,-1.59379 2.427643,-0.19511 0,1.17592 -2.795027,3.35796 -4.301267,3.35796 -0.528112,0 -1.636678,-0.66325 -2.463483,-1.47387 z m 9.583414,0.69789 c -1.51027,-0.8854 -1.74179,-3.66969 -0.41339,-4.97205 0.49606,-0.48637 1.65994,-0.88434 2.58639,-0.88434 0.92642,0 1.89489,-0.33394 2.15222,-0.74212 0.68106,-1.08039 -1.82968,-1.81506 -2.83487,-0.82956 -1.18556,1.16231 -2.05407,1.04122 -2.05407,-0.28646 0,-1.72236 3.22654,-2.89422 5.16639,-1.87637 1.35583,0.71139 1.59836,1.50571 1.59836,5.23429 0,3.01982 -0.29405,4.39874 -0.93955,4.40564 -0.51676,0.005 -1.61603,0.17025 -2.44283,0.36607 -0.82682,0.19571 -2.09521,0.009 -2.81865,-0.41514 z m 3.96119,-2.55804 c 1.26183,-1.49064 0.60419,-2.00495 -1.80547,-1.41199 -1.96295,0.48303 -2.41551,1.11368 -1.46671,2.04393 0.84255,0.82606 2.27162,0.5501 3.27218,-0.63194 z m 6.06753,1.92824 c -3.4001,-3.33349 -0.85217,-10.37041 3.37805,-9.3295 1.55793,0.3834 1.81397,0.18425 1.81397,-1.40995 0,-1.02101 0.33824,-1.85639 0.75163,-1.85639 0.44543,0 0.75164,2.70209 0.75164,6.63234 0,4.80921 -0.25836,6.63509 -0.93956,6.64238 -0.51673,0.005 -1.66931,0.20197 -2.56124,0.43659 -1.07394,0.28243 -2.1529,-0.0941 -3.19449,-1.11547 z m 5.04565,-3.87437 c 0.18768,-2.20602 -0.0601,-2.79098 -1.35142,-3.19282 -1.75795,-0.54698 -3.76371,0.70413 -3.76371,2.34776 0,2.1591 1.58799,4.00626 3.24535,3.77486 1.29281,-0.18035 1.68894,-0.80111 1.86978,-2.9298 z m 5.14407,4.17932 c -2.53423,-2.48459 -0.76006,-5.53154 3.22093,-5.53154 0.85397,0 1.55267,-0.34198 1.55267,-0.76001 0,-1.17524 -2.25461,-1.74579 -3.20739,-0.81167 -1.17306,1.15011 -2.05409,1.04515 -2.05409,-0.24476 0,-1.07376 2.18017,-2.60517 3.70881,-2.60517 0.4406,0 1.47751,0.66323 2.30433,1.47385 2.04984,2.00973 2.1948,8.83778 0.18788,8.85311 -0.7235,0.005 -2.02601,0.1972 -2.89453,0.42571 -0.94725,0.24942 -2.07514,-0.0706 -2.81865,-0.79963 z m 4.51425,-2.24713 c 0.24489,-0.62546 0.28121,-1.29794 0.0807,-1.4945 -0.66883,-0.6557 -4.42875,1.14369 -3.95619,1.89334 0.72125,1.14418 3.37864,0.87069 3.87554,-0.39884 z m 10.9496,2.20075 c -1.29458,-0.88897 -1.67054,-1.8747 -1.67054,-4.37975 0,-2.50508 0.37596,-3.49076 1.67054,-4.37976 2.15732,-1.48145 3.04871,-1.44543 5.13055,0.20734 1.0293,0.81715 1.48001,1.71323 1.13611,2.25876 -0.4292,0.68089 -0.93383,0.58148 -2.04267,-0.40236 -1.937,-1.71861 -4.01543,-0.51985 -4.01543,2.31604 0,2.79834 2.07567,4.03704 3.96131,2.36401 2.6671,-2.36647 3.50302,-0.83909 0.92436,1.68906 -1.80914,1.77373 -2.88647,1.8428 -5.09423,0.32666 z m 16.10217,0.0435 c -2.81989,-2.7647 -2.04499,-8.64148 1.2509,-9.48648 2.46781,-0.63272 5.02888,1.39153 5.02888,3.97477 0,2.06813 -0.17216,2.1938 -3.00654,2.1938 -1.65363,0 -3.00659,0.342 -3.00659,0.76002 0,1.24186 2.34782,1.74839 3.84759,0.83013 1.62115,-0.99262 2.17005,-1.0692 2.15403,-0.30066 -0.0507,2.43361 -4.41455,3.8457 -6.26827,2.0283 z m 4.77653,-6.21597 c 0,-0.89559 -2.77266,-1.75222 -3.7515,-1.15912 -1.4877,0.90142 -0.72176,1.84639 1.49654,1.84639 1.24021,0 2.25496,-0.30928 2.25496,-0.68727 z m 4.25047,5.97195 c -0.68414,-0.74123 -1.24393,-1.71239 -1.24393,-2.15814 0,-1.40023 2.28777,-3.12654 4.14334,-3.12654 0.97959,0 1.99156,-0.33397 2.24887,-0.74212 0.74825,-1.18699 -1.93866,-1.78872 -3.55843,-0.79698 -1.73907,1.06484 -2.30111,0.74522 -1.64359,-0.93468 0.47431,-1.21179 1.65681,-1.56253 4.41429,-1.30936 2.07878,0.19082 2.63888,1.39841 2.65206,5.71755 0.0127,3.64365 -0.0714,3.79295 -2.33735,4.23733 -3.24052,0.63538 -3.27612,0.62863 -4.67526,-0.88706 z m 4.78427,-1.98637 c 0.52292,-0.61771 0.77336,-1.29709 0.55656,-1.5097 -0.75392,-0.73913 -4.3298,0.58841 -4.3298,1.60741 0,1.37463 2.58358,1.30773 3.77324,-0.0978 z m 6.16528,2.18683 c -1.29458,-0.88898 -1.67049,-1.8747 -1.67049,-4.37975 0,-2.50508 0.37591,-3.4908 1.67049,-4.37978 2.2148,-1.52092 3.28511,-1.44705 5.121658,0.35356 1.90748,1.87015 1.16436,3.53976 -0.7998,1.79703 -2.176198,-1.93088 -4.631718,-0.78135 -4.344018,2.0336 0.30968,3.03121 2.29464,4.24312 4.192028,2.5596 2.66714,-2.36646 3.50299,-0.83909 0.92439,1.68904 -1.809148,1.77372 -2.886458,1.84282 -5.094258,0.3267 z m 13.704258,-0.36333 c -1.87918,-2.03586 -1.84024,-6.41113 0.0716,-8.01619 0.80612,-0.6769 1.84021,-1.87774 2.29788,-2.66855 0.45775,-0.79082 1.47244,-1.55932 2.25496,-1.70774 1.35992,-0.25806 1.36465,-0.20653 0.10763,1.16339 -1.61638,1.7613 -1.66326,2.42266 -0.17199,2.42266 2.96242,0 3.27925,8.04809 0.37677,9.57102 -2.11764,1.11117 -3.38655,0.91461 -4.93657,-0.76459 z m 4.97042,-2.26734 c 1.2483,-2.28681 -0.25176,-5.24465 -2.50097,-4.93134 -2.94233,0.4098 -2.80634,6.49839 0.1449,6.49839 0.82524,0 1.88537,-0.70519 2.35587,-1.56705 z m -187.050736,-3.40726 0.217171,-6.44808 3.153269,-0.22474 c 7.556013,-0.53825 8.638008,7.49102 1.142291,8.47673 -2.887933,0.37975 -3.168099,0.60354 -3.168099,2.53034 0,1.16256 -0.351406,2.11376 -0.780903,2.11376 -0.497161,0 -0.701991,-2.34293 -0.563729,-6.4481 z m 7.296125,-1.54517 c 1.015297,-1.85995 -0.34639,-3.06057 -3.471078,-3.06057 -2.254925,0 -2.480415,0.20091 -2.480415,2.21073 0,2.03104 0.211722,2.2108 2.604301,2.2108 1.763006,0 2.844273,-0.43965 3.347192,-1.36096 z m 22.610842,3.20326 c 0,-2.70207 0.327642,-4.79001 0.751638,-4.79001 0.424005,0 0.751642,2.08794 0.751642,4.79001 0,2.70204 -0.327637,4.79001 -0.751642,4.79001 -0.423996,0 -0.751638,-2.08797 -0.751638,-4.79001 z m 14.794785,4.31099 c -0.282494,-0.27688 -0.513618,-2.40034 -0.513618,-4.71865 0,-4.17717 0.02162,-4.21817 2.401415,-4.56062 1.320783,-0.19021 3.010064,-0.18942 3.753961,0.001 2.489383,0.63825 3.851837,8.83324 1.589917,9.56312 -0.603891,0.19471 -0.973639,-0.99455 -1.127461,-3.62689 -0.21194,-3.62711 -0.36802,-3.9171 -2.107989,-3.9171 -1.691125,0 -1.902643,0.33173 -2.114462,3.31612 -0.238841,3.36541 -0.95024,4.85583 -1.881763,3.94257 z m 25.7937978,-4.31099 c 0,-3.33533 0.285336,-4.79305 0.93954195,-4.80008 0.51675703,-0.005 1.66931605,-0.20195 2.56125305,-0.4366 2.722697,-0.71612 4.767248,2.00383 4.767248,6.34209 0,2.02653 -0.338238,3.6846 -0.751647,3.6846 -0.413396,0 -0.751633,-1.2631 -0.751633,-2.80685 0,-3.65569 -1.453695,-5.64797 -3.627568,-4.97155 -1.38654502,0.43148 -1.63391702,1.05882 -1.63391702,4.14343 0,1.99925 -0.33823703,3.63497 -0.75163103,3.63497 -0.42400595,0 -0.75164695,-2.08797 -0.75164695,-4.79001 z m 70.4037082,4.29873 c -0.6265,-0.6142 -0.659,-6.3541 -0.0447,-7.92311 0.27056,-0.69124 1.34127,-1.16563 2.63073,-1.16563 2.48926,0 2.907,1.14658 0.67125,1.84232 -1.23564,0.38447 -1.50331,1.11498 -1.50331,4.10273 0,3.37983 -0.53494,4.33869 -1.75382,3.14369 z m 36.058258,-0.0194 c -0.2643,-0.25929 -0.48067,-2.40564 -0.48067,-4.76999 0,-3.32978 0.25429,-4.29869 1.12749,-4.29869 0.87565,0 1.12749,0.97775 1.12749,4.37803 0,4.08907 -0.64602,5.79685 -1.77431,4.69065 z m 14.55217,-4.27869 c 0,-3.33535 0.28527,-4.79307 0.93954,-4.80008 0.51676,-0.005 1.6693,-0.20175 2.56126,-0.43658 2.72269,-0.71612 4.76723,2.00383 4.76723,6.34204 0,2.02658 -0.33824,3.68463 -0.75165,3.68463 -0.41341,0 -0.75162,-1.26308 -0.75162,-2.80685 0,-3.65571 -1.45372,-5.64795 -3.62755,-4.97151 -1.38656,0.43146 -1.63394,1.0588 -1.63394,4.14339 0,1.99926 -0.33826,3.63497 -0.75164,3.63497 -0.42398,0 -0.75163,-2.08794 -0.75163,-4.79001 z m -161.602719,-7.37069 c 0,-0.6755 0.363608,-1.10933 0.808012,-0.9641 0.44441,0.14498 0.808013,0.57909 0.808013,0.9641 0,0.38507 -0.363603,0.81891 -0.808013,0.96416 -0.444404,0.14498 -0.808012,-0.28861 -0.808012,-0.96416 z m 146.569879,0 c 0,-0.60793 0.50738,-1.10539 1.12749,-1.10539 0.62009,0 1.12749,0.49746 1.12749,1.10539 0,0.60799 -0.5074,1.10541 -1.12749,1.10541 -0.62011,0 -1.12749,-0.49742 -1.12749,-1.10541 z M 0.20851378,131.11598 c -6.32048098,-1.55017 -9.26223838,-5.8942 -9.71108938,-14.34016 -0.389044,-7.32063 0.6558024,-11.38158 3.6723314,-14.27302 4.280539,-4.103084 13.446507,-4.974574 18.9822362,-1.80484 3.039438,1.74034 5.755231,5.69748 5.755231,8.38582 0,2.05378 -0.09336,2.10181 -4.093004,2.10181 -3.715381,0 -4.183642,-0.18559 -5.0753272,-2.00941 -1.873625,-3.83264 -8.229348,-4.16283 -9.64926302,-0.5013 -0.95871503,2.47223 -0.92939603,11.07633 0.04381,12.85921 1.98588302,3.638 7.47134102,3.58381 9.41064302,-0.093 1.0430102,-1.9775 1.4628302,-2.14939 5.2484162,-2.14939 4.023409,0 4.114727,0.0466 4.114727,2.10177 0,2.82976 -2.796555,6.68854 -6.01313,8.29723 -3.1883852,1.59454 -9.2283772,2.27313 -12.68559222,1.42522 z M -64.524861,118.92386 v -12.15923 h -4.509842 -4.509843 v -3.70162 -3.701644 l 13.341616,0.20134 13.341619,0.20134 v 3.316204 3.31614 l -4.509843,0.36843 -4.509843,0.36847 -0.206531,11.97503 -0.206532,11.97501 h -4.115389 -4.115401 z m 18.791011,10.87776 c 0,-0.70481 2.422092,-7.83457 5.382428,-15.84387 l 5.382436,-14.562354 h 4.803065 4.803064 l 1.138564,2.671584 c 2.35926,5.53598 10.059338,26.9327 10.059338,27.95264 0,0.78538 -0.986006,1.06351 -3.770364,1.06351 -3.568939,0 -3.837378,-0.13763 -5.024876,-2.57925 l -1.25451,-2.57922 h -5.863821 -5.863825 l -1.099193,2.57922 c -1.050531,2.46503 -1.267295,2.57925 -4.89575,2.57925 -3.105514,0 -3.796556,-0.23338 -3.796556,-1.28151 z m 17.818034,-16.0362 c -0.873646,-2.63453 -1.790907,-4.79003 -2.038352,-4.79003 -0.247451,0 -1.077889,1.741 -1.84542,3.86886 -0.767534,2.12785 -1.547013,4.28339 -1.732179,4.79001 -0.240626,0.65838 0.738968,0.92113 3.433862,0.92113 h 3.770531 z m 51.332888,16.07707 c 0,-1.20693 9.25606,-26.57951 10.63681,-29.15745 1.02901,-1.921324 9.29272,-1.860944 10.34984,0.0756 1.33571,2.44698 10.58226,27.89693 10.58226,29.12636 0,0.94573 -0.79492,1.19616 -3.7966,1.19616 -3.62843,0 -3.8452,-0.11434 -4.89574,-2.57924 l -1.09917,-2.57922 h -5.99296 -5.99293 l -1.09918,2.57922 c -1.05054,2.46499 -1.26731,2.57924 -4.89578,2.57924 -3.05758,0 -3.79655,-0.2414 -3.79655,-1.24063 z m 19.34394,-12.20823 c -0.19751,-0.50662 -0.98984,-2.66216 -1.76014,-4.79001 -0.77029,-2.12786 -1.59764,-3.86886 -1.83851,-3.86886 -0.24078,0 -1.03041,1.741 -1.75451,3.86886 -0.72409,2.12785 -1.49053,4.28339 -1.70319,4.79001 -0.27992,0.6673 0.68851,0.92113 3.51466,0.92113 2.81164,0 3.80083,-0.25711 3.54169,-0.92113 z m 18.98974,-2.39503 V 99.395396 h 3.63996 3.63998 l 3.95572,7.000774 c 2.17569,3.85042 4.07378,7.00078 4.21803,7.00078 0.14435,0 2.05346,-3.16169 4.24262,-7.02592 l 3.98037,-7.025924 3.75818,0.20926 3.75819,0.20932 0.21358,14.001554 c 0.11744,7.70087 0.0251,14.74771 -0.20235,15.65964 -0.36178,1.44303 -0.90128,1.65808 -4.15957,1.65808 h -3.74391 l -0.0127,-8.65885 -0.0127,-8.65887 -2.22656,3.96017 c -3.06141,5.44499 -3.72132,6.09581 -5.92324,5.84133 -1.42672,-0.16469 -2.50008,-1.22776 -4.19835,-4.15735 l -2.28161,-3.93585 -0.18846,6.14664 c -0.28903,9.43048 -0.30532,9.46278 -4.71149,9.46278 h -3.7439 z m 37.60892,14.55427 c 0.0164,-0.70929 2.467028,-7.75612 5.449398,-15.65963 l 5.42249,-14.370024 4.9334,-0.21485 4.93342,-0.21485 5.41241,14.584804 c 2.97684,8.02163 5.40756,15.16511 5.40166,15.8744 -0.009,1.05658 -0.69678,1.28961 -3.80734,1.28961 -3.62845,0 -3.84522,-0.11434 -4.89577,-2.57923 l -1.09918,-2.57922 h -5.86383 -5.86383 l -1.25448,2.57922 c -1.18751,2.44145 -1.45596,2.57923 -5.0249,2.57923 -3.09996,0 -3.765588,-0.22934 -3.743448,-1.28961 z m 19.329838,-12.15924 c -0.19082,-0.50662 -0.93057,-2.66216 -1.64409,-4.79001 -0.71354,-2.12786 -1.53947,-3.86886 -1.83538,-3.86886 -0.29592,0 -1.25276,2.1555 -2.12643,4.79003 l -1.58842,4.78997 h 3.77054 c 2.70026,0 3.67211,-0.26143 3.42378,-0.92113 z M 11.766642,56.187009 C -11.13227,54.342506 -28.15571,49.558681 -34.192233,43.271907 c -7.656218,-7.97361 -12.091156,-27.176884 -12.822205,-55.520235 -0.59201,-22.952582 1.3737,-41.131771 5.894248,-54.510897 3.467338,-10.261994 6.190003,-13.758135 13.551735,-17.401585 23.5402098,-11.650393 88.953817,-11.650393 112.494027,0 7.3617,3.64345 10.08443,7.139591 13.55174,17.401585 4.520548,13.379126 6.486268,31.558315 5.894228,54.510897 -0.73103,28.343351 -5.165998,47.546625 -12.822188,55.520235 -4.99729,5.204427 -16.4047,9.120005 -33.70193,11.568028 -8.22161,1.1636 -37.670843,2.024464 -46.08078,1.347074 z m 28.29139,-13.959583 c 29.82886,-5.515909 51.04634,-30.384302 51.19369,-60.002685 0.0914,-18.342392 -6.2586,-32.712147 -20.15353,-45.607339 -5.1185,-4.750206 -7.97215,-6.70614 -14.08428,-9.653563 -11.06528,-5.335931 -15.29531,-6.272259 -28.33537,-6.272259 -13.040041,0 -17.270041,0.936328 -28.33532722,6.272259 -6.11213698,2.947423 -8.96579898,4.903357 -14.08427678,9.653563 -13.89492,12.895192 -20.244823,27.264947 -20.153558,45.607339 0.190422,38.271874 35.6930978,67.077511 73.952652,60.002685 z M 5.6132748,4.1015003 c -10.968602,-10.753866 -12.261824,-12.282191 -12.261824,-14.4909173 0,-2.233062 1.599337,-4.045612 16.7239932,-18.953762 19.595318,-19.31476 19.333318,-19.158473 28.655928,-17.09073 3.35911,0.745041 6.49825,1.363131 6.97591,1.373525 0.47762,0.01075 2.33792,-1.191969 4.134,-2.67198 1.79608,-1.479975 4.73314,-3.332416 6.52686,-4.116542 8.63589,-3.775079 10.17823,3.356197 2.67839,12.383768 l -3.29236,3.962943 1.56913,6.681499 c 0.91465,3.894718 1.35941,7.514763 1.06634,8.679277 -0.3169,1.259262 -6.93501,8.330861 -17.90435,19.1311963 C 24.464482,14.763702 22.876989,16.123266 20.479389,16.123266 c -2.363743,0 -3.736756,-1.110339 -14.8661142,-12.0217657 z m 33.7978172,-6.990741 c 11.60152,-11.4136943 17.07817,-17.3070163 17.07817,-18.3773563 0,-1.602212 -2.16858,-11.408103 -2.62098,-11.851662 -0.13615,-0.133689 -1.63165,0.655151 -3.3232,1.752624 -2.11467,1.372055 -3.0755,2.52372 -3.0755,3.686335 0,0.957654 -0.87659,2.366913 -2.02136,3.249765 -1.64819,1.271107 -2.86242,1.519078 -6.57686,1.343113 l -4.55551,-0.215784 -0.217,-5.162636 c -0.24083,-5.728576 0.50918,-7.366882 3.72004,-8.124933 1.65209,-0.390065 2.54836,0.05 5.15715,2.532161 l 3.15748,3.00425 2.21631,-1.282865 c 3.65509,-2.115751 5.05927,-4.006525 4.34116,-5.845688 -0.96419,-2.469527 -3.37539,-3.608988 -12.14371,-5.73863 -7.59257,-1.844091 -8.19244,-1.888803 -10.56009,-0.787281 -3.47428,1.616353 -34.3806972,32.14834 -34.3806972,33.964152 0,1.9810773 23.1686172,24.656156 25.1927842,24.656156 0.99967,0 7.480503,-5.8504917 18.611933,-16.8017207 z m -25.013721,4.073103 c -1.033502,-0.50386198 -2.514048,-2.188189 -3.290101,-3.743001 -1.3655102,-2.735706 -1.3681392,-3.008855 -0.08192,-8.4687983 0.730984,-3.103083 1.631526,-6.222259 2.001195,-6.93153 0.901364,-1.729505 3.392771,-1.635474 4.543751,0.171682 0.891392,1.399402 1.062184,1.334618 4.042783,-1.533343 2.989393,-2.876457 3.249443,-2.974287 6.597703,-2.482037 3.0448,0.447663 3.64637,0.844663 4.75681,3.138853 0.69911,1.444474 1.32945,3.147455 1.40063,3.784344 0.0716,0.636871 0.37812,1.737444 0.68196,2.445657 0.41766,0.973443 -0.79655,2.6538083 -4.97661,6.8872303 -7.557683,7.654225 -10.867582,9.075437 -15.676165,6.731158 z m 12.777891,-7.536807 c 3.49566,-3.44512 5.99938,-6.2638533 5.56385,-6.2638533 -0.43558,0 -1.58635,0.829071 -2.55727,1.842316 -0.97092,1.0132803 -2.0446,1.8423163 -2.38593,1.8423163 -1.33385,0 -0.51274,-2.0363993 1.63427,-4.0530853 1.24021,-1.164944 2.25495,-2.454958 2.25495,-2.866671 0,-0.411714 -1.28267,0.479364 -2.85036,1.980181 -2.67662,2.562465 -4.66606,3.475532 -4.66606,2.141451 0,-0.323059 1.35293,-1.882656 3.00655,-3.46573 1.65361,-1.583091 3.00658,-3.211701 3.00658,-3.619149 0,-0.407431 -1.45033,0.654702 -3.22291,2.360336 -3.00574,2.892119 -5.045153,3.903535 -5.045153,2.502054 0,-0.329439 1.014733,-1.552178 2.254933,-2.717087 1.2402,-1.164944 2.25493,-2.460155 2.25493,-2.878284 0,-0.418093 -1.95469,1.136217 -4.343753,3.454045 -2.389045,2.317828 -4.756722,4.214229 -5.261474,4.214229 -0.557218,0 -0.917751,-1.071146 -0.917751,-2.726602 0,-4.107134 -1.270595,-2.138852 -2.590507,4.012907 -1.621116,7.5556233 -0.185531,10.42858532 5.237834,10.48211532 1.864378,0.01935 3.410648,-1.10028602 8.627271,-6.24148902 z m 17.13743,-19.6758643 c 1.50729,-1.477788 1.01977,-2.049624 -1.3511,-1.584775 -1.33149,0.261178 -2.7116,0.06882 -3.37413,-0.470351 -1.669,-1.358041 -0.65057,-2.223905 2.08604,-1.773572 2.18188,0.35908 2.28732,0.295712 1.09832,-0.658017 -0.72346,-0.58042 -1.31538,-1.392683 -1.31538,-1.804988 0,-1.352467 -2.15148,-2.535512 -3.72214,-2.046756 -1.32347,0.41182 -1.53935,1.092059 -1.53935,4.850884 v 4.371861 h 3.60789 c 1.98435,0 4.01376,-0.397896 4.50985,-0.884286 z m 15.24709,-17.871022 c 3.83064,-6.547576 2.43103,-8.460357 -3.76954,-5.15165 -2.07779,1.108709 -4.293,2.574024 -4.9227,3.256217 -1.03983,1.126504 -0.88606,1.512967 1.67468,4.209714 3.27662,3.450711 3.73281,3.300248 7.01756,-2.314281 z"
         style="display:inline;fill:#f00000;fill-opacity:1;stroke-width:1.2"
         inkscape:label="path1049"
         inkscape:path-effect="#path-effect975"
         inkscape:original-d="m -60.232482,155.57345 c -2.436747,-2.63985 -0.834458,-5.33005 3.17461,-5.33005 0.879081,0 1.552695,-0.47953 1.552695,-1.10539 0,-1.23179 -2.655765,-1.52113 -3.382382,-0.36844 -0.705986,1.11995 -1.879101,0.88004 -1.879101,-0.38426 0,-0.61665 0.831742,-1.49275 1.848314,-1.94685 1.480114,-0.66119 2.228763,-0.58124 3.758201,0.40127 1.656211,1.06394 1.90989,1.75689 1.90989,5.2172 0,3.31574 -0.22237,3.98728 -1.315373,3.97254 -0.723453,-0.009 -2.005145,0.19698 -2.848206,0.45961 -1.015813,0.31636 -1.96654,0.005 -2.818648,-0.91563 z m 4.727305,-2.38232 c 0.912695,-1.67202 0.322647,-1.83784 -2.627037,-0.73831 -1.085303,0.40455 -1.763829,1.06775 -1.50786,1.47383 0.79281,1.25767 3.289279,0.81359 4.134897,-0.73552 z m 5.416155,2.52881 c -0.925704,-0.63569 -1.470147,-1.49365 -1.209869,-1.90653 0.316681,-0.50238 0.743543,-0.48571 1.290362,0.0504 1.01396,0.99412 3.280852,1.04459 3.884803,0.0866 0.247766,-0.39302 -0.746988,-1.20515 -2.210568,-1.8047 -2.047191,-0.8386 -2.661041,-1.51773 -2.661041,-2.94407 0,-2.45598 2.514161,-3.8362 4.98074,-2.73436 0.981212,0.43833 1.784024,1.30147 1.784024,1.91812 0,1.35672 -0.334248,1.38924 -2.24636,0.21855 -1.154691,-0.70703 -1.671789,-0.70911 -2.385185,-0.009 -0.713393,0.69945 -0.388111,1.07172 1.500386,1.71715 3.395555,1.1605 4.342802,3.16577 2.396746,5.07375 -1.82872,1.79287 -2.899033,1.86286 -5.124038,0.33492 z m 13.968808,0.37644 c -2.733504,-1.56239 -2.369002,-9.5376 0.435908,-9.5376 0.584155,0 1.274324,-0.82901 1.533711,-1.84231 0.259385,-1.01326 0.972541,-1.84232 1.58477,-1.84232 1.309844,0 1.441645,0.85703 0.30341,1.97298 -0.578538,0.56718 -0.23264,1.35962 1.211451,2.77545 1.640605,1.60847 1.932909,2.41428 1.552438,4.27943 -0.853457,4.18369 -3.598364,5.92242 -6.621696,4.19437 z m 4.29171,-4.74757 c 0,-2.49202 -0.260323,-2.98396 -1.683921,-3.18224 -1.189713,-0.16595 -1.929343,0.29356 -2.520162,1.56481 -1.139847,2.45277 0.282525,5.1125 2.563745,4.79404 1.373717,-0.19175 1.640338,-0.70805 1.640338,-3.17661 z m 21.588997,4.37975 c -2.456234,-1.68675 -2.389147,-7.20029 0.107118,-8.80389 2.3379668,-1.50189 5.5135958,-0.39667 6.1643498,2.14543 0.676966,2.64444 -0.118045,3.3841 -3.637571,3.3841 -2.9611038,0 -3.0557358,0.0661 -1.8225944,1.2752 1.0765824,1.05552 1.5558204,1.11897 2.7816204,0.36849 1.908323,-1.16848 2.252959,-1.14205 2.252959,0.17275 0,1.01855 -2.156862,2.60515 -3.541543,2.60515 -0.348596,0 -1.3855504,-0.51624 -2.3043368,-1.1472 z m 4.2116488,-6.66627 c -0.769175,-0.75414 -1.778466,-1.00258 -2.791797,-0.68726 -2.5338818,0.78846 -1.8375678,1.86837 1.204711,1.86837 2.561164,0 2.69228,-0.0975 1.587086,-1.18111 z m 21.1768762,6.33961 c -2.156092,-2.11388 -2.061122,-6.90261 0.167277,-8.43285 2.157287,-1.48145 3.048721,-1.44543 5.130554,0.20734 1.02928,0.81715 1.47999,1.71323 1.1361,2.25876 -0.42921,0.68089 -0.93385,0.58148 -2.042682,-0.40236 -1.936991,-1.71861 -4.0154,-0.51985 -4.0154,2.31604 0,2.79834 2.075688,4.03704 3.961289,2.36401 1.733423,-1.53802 2.427643,-1.59379 2.427643,-0.19511 0,1.17592 -2.795027,3.35796 -4.301267,3.35796 -0.528112,0 -1.636678,-0.66325 -2.463483,-1.47387 z m 9.583414,0.69789 c -1.51027,-0.8854 -1.74179,-3.66969 -0.41339,-4.97205 0.49606,-0.48637 1.65994,-0.88434 2.58639,-0.88434 0.92642,0 1.89489,-0.33394 2.15222,-0.74212 0.68106,-1.08039 -1.82968,-1.81506 -2.83487,-0.82956 -1.18556,1.16231 -2.05407,1.04122 -2.05407,-0.28646 0,-1.72236 3.22654,-2.89422 5.16639,-1.87637 1.35583,0.71139 1.59836,1.50571 1.59836,5.23429 0,3.01982 -0.29405,4.39874 -0.93955,4.40564 -0.51676,0.005 -1.61603,0.17025 -2.44283,0.36607 -0.82682,0.19571 -2.09521,0.009 -2.81865,-0.41514 z m 3.96119,-2.55804 c 1.26183,-1.49064 0.60419,-2.00495 -1.80547,-1.41199 -1.96295,0.48303 -2.41551,1.11368 -1.46671,2.04393 0.84255,0.82606 2.27162,0.5501 3.27218,-0.63194 z m 6.06753,1.92824 c -3.4001,-3.33349 -0.85217,-10.37041 3.37805,-9.3295 1.55793,0.3834 1.81397,0.18425 1.81397,-1.40995 0,-1.02101 0.33824,-1.85639 0.75163,-1.85639 0.44543,0 0.75164,2.70209 0.75164,6.63234 0,4.80921 -0.25836,6.63509 -0.93956,6.64238 -0.51673,0.005 -1.66931,0.20197 -2.56124,0.43659 -1.07394,0.28243 -2.1529,-0.0941 -3.19449,-1.11547 z m 5.04565,-3.87437 c 0.18768,-2.20602 -0.0601,-2.79098 -1.35142,-3.19282 -1.75795,-0.54698 -3.76371,0.70413 -3.76371,2.34776 0,2.1591 1.58799,4.00626 3.24535,3.77486 1.29281,-0.18035 1.68894,-0.80111 1.86978,-2.9298 z m 5.14407,4.17932 c -2.53423,-2.48459 -0.76006,-5.53154 3.22093,-5.53154 0.85397,0 1.55267,-0.34198 1.55267,-0.76001 0,-1.17524 -2.25461,-1.74579 -3.20739,-0.81167 -1.17306,1.15011 -2.05409,1.04515 -2.05409,-0.24476 0,-1.07376 2.18017,-2.60517 3.70881,-2.60517 0.4406,0 1.47751,0.66323 2.30433,1.47385 2.04984,2.00973 2.1948,8.83778 0.18788,8.85311 -0.7235,0.005 -2.02601,0.1972 -2.89453,0.42571 -0.94725,0.24942 -2.07514,-0.0706 -2.81865,-0.79963 z m 4.51425,-2.24713 c 0.24489,-0.62546 0.28121,-1.29794 0.0807,-1.4945 -0.66883,-0.6557 -4.42875,1.14369 -3.95619,1.89334 0.72125,1.14418 3.37864,0.87069 3.87554,-0.39884 z m 10.9496,2.20075 c -1.29458,-0.88897 -1.67054,-1.8747 -1.67054,-4.37975 0,-2.50508 0.37596,-3.49076 1.67054,-4.37976 2.15732,-1.48145 3.04871,-1.44543 5.13055,0.20734 1.0293,0.81715 1.48001,1.71323 1.13611,2.25876 -0.4292,0.68089 -0.93383,0.58148 -2.04267,-0.40236 -1.937,-1.71861 -4.01543,-0.51985 -4.01543,2.31604 0,2.79834 2.07567,4.03704 3.96131,2.36401 2.6671,-2.36647 3.50302,-0.83909 0.92436,1.68906 -1.80914,1.77373 -2.88647,1.8428 -5.09423,0.32666 z m 16.10217,0.0435 c -2.81989,-2.7647 -2.04499,-8.64148 1.2509,-9.48648 2.46781,-0.63272 5.02888,1.39153 5.02888,3.97477 0,2.06813 -0.17216,2.1938 -3.00654,2.1938 -1.65363,0 -3.00659,0.342 -3.00659,0.76002 0,1.24186 2.34782,1.74839 3.84759,0.83013 1.62115,-0.99262 2.17005,-1.0692 2.15403,-0.30066 -0.0507,2.43361 -4.41455,3.8457 -6.26827,2.0283 z m 4.77653,-6.21597 c 0,-0.89559 -2.77266,-1.75222 -3.7515,-1.15912 -1.4877,0.90142 -0.72176,1.84639 1.49654,1.84639 1.24021,0 2.25496,-0.30928 2.25496,-0.68727 z m 4.25047,5.97195 c -0.68414,-0.74123 -1.24393,-1.71239 -1.24393,-2.15814 0,-1.40023 2.28777,-3.12654 4.14334,-3.12654 0.97959,0 1.99156,-0.33397 2.24887,-0.74212 0.74825,-1.18699 -1.93866,-1.78872 -3.55843,-0.79698 -1.73907,1.06484 -2.30111,0.74522 -1.64359,-0.93468 0.47431,-1.21179 1.65681,-1.56253 4.41429,-1.30936 2.07878,0.19082 2.63888,1.39841 2.65206,5.71755 0.0127,3.64365 -0.0714,3.79295 -2.33735,4.23733 -3.24052,0.63538 -3.27612,0.62863 -4.67526,-0.88706 z m 4.78427,-1.98637 c 0.52292,-0.61771 0.77336,-1.29709 0.55656,-1.5097 -0.75392,-0.73913 -4.3298,0.58841 -4.3298,1.60741 0,1.37463 2.58358,1.30773 3.77324,-0.0978 z m 6.16528,2.18683 c -1.29458,-0.88898 -1.67049,-1.8747 -1.67049,-4.37975 0,-2.50508 0.37591,-3.4908 1.67049,-4.37978 2.2148,-1.52092 3.28511,-1.44705 5.121658,0.35356 1.90748,1.87015 1.16436,3.53976 -0.7998,1.79703 -2.176198,-1.93088 -4.631718,-0.78135 -4.344018,2.0336 0.30968,3.03121 2.29464,4.24312 4.192028,2.5596 2.66714,-2.36646 3.50299,-0.83909 0.92439,1.68904 -1.809148,1.77372 -2.886458,1.84282 -5.094258,0.3267 z m 13.704258,-0.36333 c -1.87918,-2.03586 -1.84024,-6.41113 0.0716,-8.01619 0.80612,-0.6769 1.84021,-1.87774 2.29788,-2.66855 0.45775,-0.79082 1.47244,-1.55932 2.25496,-1.70774 1.35992,-0.25806 1.36465,-0.20653 0.10763,1.16339 -1.61638,1.7613 -1.66326,2.42266 -0.17199,2.42266 2.96242,0 3.27925,8.04809 0.37677,9.57102 -2.11764,1.11117 -3.38655,0.91461 -4.93657,-0.76459 z m 4.97042,-2.26734 c 1.2483,-2.28681 -0.25176,-5.24465 -2.50097,-4.93134 -2.94233,0.4098 -2.80634,6.49839 0.1449,6.49839 0.82524,0 1.88537,-0.70519 2.35587,-1.56705 z m -187.050736,-3.40726 0.217171,-6.44808 3.153269,-0.22474 c 7.556013,-0.53825 8.638008,7.49102 1.142291,8.47673 -2.887933,0.37975 -3.168099,0.60354 -3.168099,2.53034 0,1.16256 -0.351406,2.11376 -0.780903,2.11376 -0.497161,0 -0.701991,-2.34293 -0.563729,-6.4481 z m 7.296125,-1.54517 c 1.015297,-1.85995 -0.34639,-3.06057 -3.471078,-3.06057 -2.254925,0 -2.480415,0.20091 -2.480415,2.21073 0,2.03104 0.211722,2.2108 2.604301,2.2108 1.763006,0 2.844273,-0.43965 3.347192,-1.36096 z m 22.610842,3.20326 c 0,-2.70207 0.327642,-4.79001 0.751638,-4.79001 0.424005,0 0.751642,2.08794 0.751642,4.79001 0,2.70204 -0.327637,4.79001 -0.751642,4.79001 -0.423996,0 -0.751638,-2.08797 -0.751638,-4.79001 z m 14.794785,4.31099 c -0.282494,-0.27688 -0.513618,-2.40034 -0.513618,-4.71865 0,-4.17717 0.02162,-4.21817 2.401415,-4.56062 1.320783,-0.19021 3.010064,-0.18942 3.753961,0.001 2.489383,0.63825 3.851837,8.83324 1.589917,9.56312 -0.603891,0.19471 -0.973639,-0.99455 -1.127461,-3.62689 -0.21194,-3.62711 -0.36802,-3.9171 -2.107989,-3.9171 -1.691125,0 -1.902643,0.33173 -2.114462,3.31612 -0.238841,3.36541 -0.95024,4.85583 -1.881763,3.94257 z m 25.7937978,-4.31099 c 0,-3.33533 0.285336,-4.79305 0.93954195,-4.80008 0.51675703,-0.005 1.66931605,-0.20195 2.56125305,-0.4366 2.722697,-0.71612 4.767248,2.00383 4.767248,6.34209 0,2.02653 -0.338238,3.6846 -0.751647,3.6846 -0.413396,0 -0.751633,-1.2631 -0.751633,-2.80685 0,-3.65569 -1.453695,-5.64797 -3.627568,-4.97155 -1.38654502,0.43148 -1.63391702,1.05882 -1.63391702,4.14343 0,1.99925 -0.33823703,3.63497 -0.75163103,3.63497 -0.42400595,0 -0.75164695,-2.08797 -0.75164695,-4.79001 z m 70.4037082,4.29873 c -0.6265,-0.6142 -0.659,-6.3541 -0.0447,-7.92311 0.27056,-0.69124 1.34127,-1.16563 2.63073,-1.16563 2.48926,0 2.907,1.14658 0.67125,1.84232 -1.23564,0.38447 -1.50331,1.11498 -1.50331,4.10273 0,3.37983 -0.53494,4.33869 -1.75382,3.14369 z m 36.058258,-0.0194 c -0.2643,-0.25929 -0.48067,-2.40564 -0.48067,-4.76999 0,-3.32978 0.25429,-4.29869 1.12749,-4.29869 0.87565,0 1.12749,0.97775 1.12749,4.37803 0,4.08907 -0.64602,5.79685 -1.77431,4.69065 z m 14.55217,-4.27869 c 0,-3.33535 0.28527,-4.79307 0.93954,-4.80008 0.51676,-0.005 1.6693,-0.20175 2.56126,-0.43658 2.72269,-0.71612 4.76723,2.00383 4.76723,6.34204 0,2.02658 -0.33824,3.68463 -0.75165,3.68463 -0.41341,0 -0.75162,-1.26308 -0.75162,-2.80685 0,-3.65571 -1.45372,-5.64795 -3.62755,-4.97151 -1.38656,0.43146 -1.63394,1.0588 -1.63394,4.14339 0,1.99926 -0.33826,3.63497 -0.75164,3.63497 -0.42398,0 -0.75163,-2.08794 -0.75163,-4.79001 z m -161.602719,-7.37069 c 0,-0.6755 0.363608,-1.10933 0.808012,-0.9641 0.44441,0.14498 0.808013,0.57909 0.808013,0.9641 0,0.38507 -0.363603,0.81891 -0.808013,0.96416 -0.444404,0.14498 -0.808012,-0.28861 -0.808012,-0.96416 z m 146.569879,0 c 0,-0.60793 0.50738,-1.10539 1.12749,-1.10539 0.62009,0 1.12749,0.49746 1.12749,1.10539 0,0.60799 -0.5074,1.10541 -1.12749,1.10541 -0.62011,0 -1.12749,-0.49742 -1.12749,-1.10541 z M 0.20851378,131.11598 c -6.32048098,-1.55017 -9.26223838,-5.8942 -9.71108938,-14.34016 -0.389044,-7.32063 0.6558024,-11.38158 3.6723314,-14.27302 4.280539,-4.103084 13.446507,-4.974574 18.9822362,-1.80484 3.039438,1.74034 5.755231,5.69748 5.755231,8.38582 0,2.05378 -0.09336,2.10181 -4.093004,2.10181 -3.715381,0 -4.183642,-0.18559 -5.0753272,-2.00941 -1.873625,-3.83264 -8.229348,-4.16283 -9.64926302,-0.5013 -0.95871503,2.47223 -0.92939603,11.07633 0.04381,12.85921 1.98588302,3.638 7.47134102,3.58381 9.41064302,-0.093 1.0430102,-1.9775 1.4628302,-2.14939 5.2484162,-2.14939 4.023409,0 4.114727,0.0466 4.114727,2.10177 0,2.82976 -2.796555,6.68854 -6.01313,8.29723 -3.1883852,1.59454 -9.2283772,2.27313 -12.68559222,1.42522 z M -64.524861,118.92386 v -12.15923 h -4.509842 -4.509843 v -3.70162 -3.701644 l 13.341616,0.20134 13.341619,0.20134 v 3.316204 3.31614 l -4.509843,0.36843 -4.509843,0.36847 -0.206531,11.97503 -0.206532,11.97501 h -4.115389 -4.115401 z m 18.791011,10.87776 c 0,-0.70481 2.422092,-7.83457 5.382428,-15.84387 l 5.382436,-14.562354 h 4.803065 4.803064 l 1.138564,2.671584 c 2.35926,5.53598 10.059338,26.9327 10.059338,27.95264 0,0.78538 -0.986006,1.06351 -3.770364,1.06351 -3.568939,0 -3.837378,-0.13763 -5.024876,-2.57925 l -1.25451,-2.57922 h -5.863821 -5.863825 l -1.099193,2.57922 c -1.050531,2.46503 -1.267295,2.57925 -4.89575,2.57925 -3.105514,0 -3.796556,-0.23338 -3.796556,-1.28151 z m 17.818034,-16.0362 c -0.873646,-2.63453 -1.790907,-4.79003 -2.038352,-4.79003 -0.247451,0 -1.077889,1.741 -1.84542,3.86886 -0.767534,2.12785 -1.547013,4.28339 -1.732179,4.79001 -0.240626,0.65838 0.738968,0.92113 3.433862,0.92113 h 3.770531 z m 51.332888,16.07707 c 0,-1.20693 9.25606,-26.57951 10.63681,-29.15745 1.02901,-1.921324 9.29272,-1.860944 10.34984,0.0756 1.33571,2.44698 10.58226,27.89693 10.58226,29.12636 0,0.94573 -0.79492,1.19616 -3.7966,1.19616 -3.62843,0 -3.8452,-0.11434 -4.89574,-2.57924 l -1.09917,-2.57922 h -5.99296 -5.99293 l -1.09918,2.57922 c -1.05054,2.46499 -1.26731,2.57924 -4.89578,2.57924 -3.05758,0 -3.79655,-0.2414 -3.79655,-1.24063 z m 19.34394,-12.20823 c -0.19751,-0.50662 -0.98984,-2.66216 -1.76014,-4.79001 -0.77029,-2.12786 -1.59764,-3.86886 -1.83851,-3.86886 -0.24078,0 -1.03041,1.741 -1.75451,3.86886 -0.72409,2.12785 -1.49053,4.28339 -1.70319,4.79001 -0.27992,0.6673 0.68851,0.92113 3.51466,0.92113 2.81164,0 3.80083,-0.25711 3.54169,-0.92113 z m 18.98974,-2.39503 V 99.395396 h 3.63996 3.63998 l 3.95572,7.000774 c 2.17569,3.85042 4.07378,7.00078 4.21803,7.00078 0.14435,0 2.05346,-3.16169 4.24262,-7.02592 l 3.98037,-7.025924 3.75818,0.20926 3.75819,0.20932 0.21358,14.001554 c 0.11744,7.70087 0.0251,14.74771 -0.20235,15.65964 -0.36178,1.44303 -0.90128,1.65808 -4.15957,1.65808 h -3.74391 l -0.0127,-8.65885 -0.0127,-8.65887 -2.22656,3.96017 c -3.06141,5.44499 -3.72132,6.09581 -5.92324,5.84133 -1.42672,-0.16469 -2.50008,-1.22776 -4.19835,-4.15735 l -2.28161,-3.93585 -0.18846,6.14664 c -0.28903,9.43048 -0.30532,9.46278 -4.71149,9.46278 h -3.7439 z m 37.60892,14.55427 c 0.0164,-0.70929 2.467028,-7.75612 5.449398,-15.65963 l 5.42249,-14.370024 4.9334,-0.21485 4.93342,-0.21485 5.41241,14.584804 c 2.97684,8.02163 5.40756,15.16511 5.40166,15.8744 -0.009,1.05658 -0.69678,1.28961 -3.80734,1.28961 -3.62845,0 -3.84522,-0.11434 -4.89577,-2.57923 l -1.09918,-2.57922 h -5.86383 -5.86383 l -1.25448,2.57922 c -1.18751,2.44145 -1.45596,2.57923 -5.0249,2.57923 -3.09996,0 -3.765588,-0.22934 -3.743448,-1.28961 z m 19.329838,-12.15924 c -0.19082,-0.50662 -0.93057,-2.66216 -1.64409,-4.79001 -0.71354,-2.12786 -1.53947,-3.86886 -1.83538,-3.86886 -0.29592,0 -1.25276,2.1555 -2.12643,4.79003 l -1.58842,4.78997 h 3.77054 c 2.70026,0 3.67211,-0.26143 3.42378,-0.92113 z M 11.766642,56.187009 C -11.13227,54.342506 -28.15571,49.558681 -34.192233,43.271907 c -7.656218,-7.97361 -12.091156,-27.176884 -12.822205,-55.520235 -0.59201,-22.952582 1.3737,-41.131771 5.894248,-54.510897 3.467338,-10.261994 6.190003,-13.758135 13.551735,-17.401585 23.5402098,-11.650393 88.953817,-11.650393 112.494027,0 7.3617,3.64345 10.08443,7.139591 13.55174,17.401585 4.520548,13.379126 6.486268,31.558315 5.894228,54.510897 -0.73103,28.343351 -5.165998,47.546625 -12.822188,55.520235 -4.99729,5.204427 -16.4047,9.120005 -33.70193,11.568028 -8.22161,1.1636 -37.670843,2.024464 -46.08078,1.347074 z m 28.29139,-13.959583 c 29.82886,-5.515909 51.04634,-30.384302 51.19369,-60.002685 0.0914,-18.342392 -6.2586,-32.712147 -20.15353,-45.607339 -5.1185,-4.750206 -7.97215,-6.70614 -14.08428,-9.653563 -11.06528,-5.335931 -15.29531,-6.272259 -28.33537,-6.272259 -13.040041,0 -17.270041,0.936328 -28.33532722,6.272259 -6.11213698,2.947423 -8.96579898,4.903357 -14.08427678,9.653563 -13.89492,12.895192 -20.244823,27.264947 -20.153558,45.607339 0.190422,38.271874 35.6930978,67.077511 73.952652,60.002685 z M 5.6132748,4.1015003 c -10.968602,-10.753866 -12.261824,-12.282191 -12.261824,-14.4909173 0,-2.233062 1.599337,-4.045612 16.7239932,-18.953762 19.595318,-19.31476 19.333318,-19.158473 28.655928,-17.09073 3.35911,0.745041 6.49825,1.363131 6.97591,1.373525 0.47762,0.01075 2.33792,-1.191969 4.134,-2.67198 1.79608,-1.479975 4.73314,-3.332416 6.52686,-4.116542 8.63589,-3.775079 10.17823,3.356197 2.67839,12.383768 l -3.29236,3.962943 1.56913,6.681499 c 0.91465,3.894718 1.35941,7.514763 1.06634,8.679277 -0.3169,1.259262 -6.93501,8.330861 -17.90435,19.1311963 C 24.464482,14.763702 22.876989,16.123266 20.479389,16.123266 c -2.363743,0 -3.736756,-1.110339 -14.8661142,-12.0217657 z m 33.7978172,-6.990741 c 11.60152,-11.4136943 17.07817,-17.3070163 17.07817,-18.3773563 0,-1.602212 -2.16858,-11.408103 -2.62098,-11.851662 -0.13615,-0.133689 -1.63165,0.655151 -3.3232,1.752624 -2.11467,1.372055 -3.0755,2.52372 -3.0755,3.686335 0,0.957654 -0.87659,2.366913 -2.02136,3.249765 -1.64819,1.271107 -2.86242,1.519078 -6.57686,1.343113 l -4.55551,-0.215784 -0.217,-5.162636 c -0.24083,-5.728576 0.50918,-7.366882 3.72004,-8.124933 1.65209,-0.390065 2.54836,0.05 5.15715,2.532161 l 3.15748,3.00425 2.21631,-1.282865 c 3.65509,-2.115751 5.05927,-4.006525 4.34116,-5.845688 -0.96419,-2.469527 -3.37539,-3.608988 -12.14371,-5.73863 -7.59257,-1.844091 -8.19244,-1.888803 -10.56009,-0.787281 -3.47428,1.616353 -34.3806972,32.14834 -34.3806972,33.964152 0,1.9810773 23.1686172,24.656156 25.1927842,24.656156 0.99967,0 7.480503,-5.8504917 18.611933,-16.8017207 z m -25.013721,4.073103 c -1.033502,-0.50386198 -2.514048,-2.188189 -3.290101,-3.743001 -1.3655102,-2.735706 -1.3681392,-3.008855 -0.08192,-8.4687983 0.730984,-3.103083 1.631526,-6.222259 2.001195,-6.93153 0.901364,-1.729505 3.392771,-1.635474 4.543751,0.171682 0.891392,1.399402 1.062184,1.334618 4.042783,-1.533343 2.989393,-2.876457 3.249443,-2.974287 6.597703,-2.482037 3.0448,0.447663 3.64637,0.844663 4.75681,3.138853 0.69911,1.444474 1.32945,3.147455 1.40063,3.784344 0.0716,0.636871 0.37812,1.737444 0.68196,2.445657 0.41766,0.973443 -0.79655,2.6538083 -4.97661,6.8872303 -7.557683,7.654225 -10.867582,9.075437 -15.676165,6.731158 z m 12.777891,-7.536807 c 3.49566,-3.44512 5.99938,-6.2638533 5.56385,-6.2638533 -0.43558,0 -1.58635,0.829071 -2.55727,1.842316 -0.97092,1.0132803 -2.0446,1.8423163 -2.38593,1.8423163 -1.33385,0 -0.51274,-2.0363993 1.63427,-4.0530853 1.24021,-1.164944 2.25495,-2.454958 2.25495,-2.866671 0,-0.411714 -1.28267,0.479364 -2.85036,1.980181 -2.67662,2.562465 -4.66606,3.475532 -4.66606,2.141451 0,-0.323059 1.35293,-1.882656 3.00655,-3.46573 1.65361,-1.583091 3.00658,-3.211701 3.00658,-3.619149 0,-0.407431 -1.45033,0.654702 -3.22291,2.360336 -3.00574,2.892119 -5.045153,3.903535 -5.045153,2.502054 0,-0.329439 1.014733,-1.552178 2.254933,-2.717087 1.2402,-1.164944 2.25493,-2.460155 2.25493,-2.878284 0,-0.418093 -1.95469,1.136217 -4.343753,3.454045 -2.389045,2.317828 -4.756722,4.214229 -5.261474,4.214229 -0.557218,0 -0.917751,-1.071146 -0.917751,-2.726602 0,-4.107134 -1.270595,-2.138852 -2.590507,4.012907 -1.621116,7.5556233 -0.185531,10.42858532 5.237834,10.48211532 1.864378,0.01935 3.410648,-1.10028602 8.627271,-6.24148902 z m 17.13743,-19.6758643 c 1.50729,-1.477788 1.01977,-2.049624 -1.3511,-1.584775 -1.33149,0.261178 -2.7116,0.06882 -3.37413,-0.470351 -1.669,-1.358041 -0.65057,-2.223905 2.08604,-1.773572 2.18188,0.35908 2.28732,0.295712 1.09832,-0.658017 -0.72346,-0.58042 -1.31538,-1.392683 -1.31538,-1.804988 0,-1.352467 -2.15148,-2.535512 -3.72214,-2.046756 -1.32347,0.41182 -1.53935,1.092059 -1.53935,4.850884 v 4.371861 h 3.60789 c 1.98435,0 4.01376,-0.397896 4.50985,-0.884286 z m 15.24709,-17.871022 c 3.83064,-6.547576 2.43103,-8.460357 -3.76954,-5.15165 -2.07779,1.108709 -4.293,2.574024 -4.9227,3.256217 -1.03983,1.126504 -0.88606,1.512967 1.67468,4.209714 3.27662,3.450711 3.73281,3.300248 7.01756,-2.314281 z" /></g><path
       style="fill:#43aedf;fill-opacity:1;stroke:none;stroke-width:0.00854328"
       d="m -13.4263,13.533391 v 0.0085 c 0.03977,0.01398 0.0575,0.0422 0.04618,0.08543 -0.01055,0.04033 -0.04494,0.07399 -0.06352,0.111064 -0.03688,0.07357 -0.0534,0.168653 -0.116531,0.226321 -0.0233,0.02128 -0.09883,0.08249 -0.129525,0.07123 -0.03267,-0.012 -0.04831,-0.05387 -0.08612,-0.0582 -0.02279,-0.0026 -0.03916,0.01861 -0.0609,0.02202 -0.02731,0.0043 -0.05809,-0.0096 -0.0851,-0.01361 l 0.03417,0.05126 -0.0598,-0.0085 c 0.02806,0.05029 0.06185,0.08431 0.111063,0.114352 0.02672,0.01632 0.07986,0.0341 0.09041,0.06664 0.0097,0.02977 -0.02322,0.07355 -0.03321,0.10094 -0.03202,0.08783 -0.0651,0.242946 -0.168261,0.276436 -0.04285,0.01392 -0.101948,-0.01431 -0.145237,-0.02014 v 0.0085 l 0.03417,0.02563 -0.145237,-0.03417 0.0085,0.0598 c -0.189405,-0.04925 -0.0572,-0.364338 0.01149,-0.469882 0.04906,-0.07539 0.140195,-0.124134 0.183604,-0.197983 0.02277,-0.03873 0.02672,-0.09302 0.04422,-0.135207 0.03153,-0.07605 0.07749,-0.148124 0.127184,-0.213583 0.05826,-0.07674 0.170457,-0.14149 0.214207,-0.22289 0.01379,-0.02565 0.0079,-0.05755 0.01915,-0.08467 0.0711,-0.17125 0.203006,-0.409568 0.38263,-0.482908 0.142998,-0.05839 0.290652,0.05761 0.270917,0.209522 -0.01259,0.09688 -0.05833,0.148664 -0.11202,0.224565 -0.02086,0.02947 -0.01439,0.06881 -0.03675,0.0985 -0.06863,0.09113 -0.222109,0.180673 -0.335726,0.180986 m -1.204608,0.0598 0.03417,0.02563 c -0.01156,0.05843 0.03212,0.08161 0.03956,0.136693 0.01247,0.09225 -0.0706,0.248833 -0.15917,0.273386 0.0401,0.11302 -0.02074,0.118863 -0.119607,0.111063 v 0.0085 c 0.179547,0.0495 0.238982,0.223348 0.09708,0.36298 -0.05472,0.05383 -0.21777,0.10627 -0.293574,0.106902 0.01967,0.04089 0.0063,0.121512 0.05309,0.144502 0.04404,0.02163 0.07264,-0.04967 0.109363,-0.06077 0.04565,-0.0138 0.140683,0.104536 0.119478,-0.0068 0.105963,-0.05936 0.196497,-8.55e-4 0.290473,0.05126 v 0.01709 l -0.07689,0.0085 0.06835,0.06835 v 0.0085 l -0.0598,0.0085 c 0.04887,0.05396 0.06841,0.07934 0.08543,0.15378 0.08215,-0.0421 0.08022,-0.183494 0.128679,-0.252823 0.02607,-0.03729 0.06312,0.0025 0.06782,0.0307 h 0.187953 c -0.04344,0.05897 -0.113985,0.08413 -0.12815,0.162323 l 0.273258,0.05675 0.08556,-0.05675 c 0.02016,0.04265 -0.0016,0.06819 0.0043,0.110293 0.0062,0.04426 0.0781,0.09448 0.115319,0.111833 -0.01073,-0.06596 -0.153636,-0.134241 -0.02581,-0.186689 0.014,-0.0057 0.0281,-0.0076 0.0429,-0.0098 l -0.10252,-0.05126 c 0.01418,-0.07182 0.06783,-0.106057 0.119871,-0.03328 0.02872,0.04017 0.03515,0.09166 0.05543,0.135796 0.02999,0.06528 0.06078,0.088 0.06391,0.162323 l -0.213583,0.10252 0.0085,0.04272 c -0.09174,-0.0039 -0.19941,-0.04277 -0.23067,0.07689 0.04692,-0.03292 0.07511,-0.07298 0.136693,-0.0598 l -0.04272,0.08543 c 0.119478,-0.01609 0.271798,-0.09021 0.392993,-0.04611 0.06751,0.02456 0.12299,0.09682 0.187953,0.131541 v -0.03417 h 0.0085 c 0.03814,0.07175 0.102263,0.03734 0.146577,0.08204 0.08733,0.08811 0.02729,0.250704 -0.08678,0.285321 0.02262,0.05466 0.0056,0.109705 -0.01709,0.162323 l -0.04272,-0.01709 c -0.04495,0.115684 -0.124784,0.161981 -0.247757,0.162322 l -0.0085,0.05126 -0.08543,-0.04272 c 0.0026,0.125724 0.08413,0.285663 0.04854,0.408943 -0.01292,0.04475 -0.0599,0.03071 -0.07971,6.35e-4 -0.03742,-0.05681 -0.07652,-0.137659 -0.08844,-0.204536 h -0.0085 c 0,0.106612 0.07386,0.224561 0.06307,0.324613 -0.0083,0.07674 -0.130825,0.09437 -0.18264,0.05745 -0.03049,-0.02172 -0.05711,-0.05007 -0.08547,-0.07451 l -0.0085,0.03417 -0.111064,-0.0598 0.111064,0.136694 c -0.10633,0.05117 -0.19319,-0.05031 -0.299016,-0.05126 v 0.0085 c 0.115069,0.04188 0.285056,0.09985 0.364432,0.196625 0.03538,0.04313 0.04147,0.102426 0.06013,0.153651 0.01857,0.05099 0.06042,0.0943 0.07509,0.145237 0.01243,0.04319 0.0022,0.09192 0.01295,0.136693 0.0626,-0.09611 0.157427,-0.02071 0.247756,0 0.0062,0.03891 0.01746,0.06648 0.0598,0.06835 -0.09893,-0.06746 0.08455,-0.08858 0.12815,-0.10252 l 0.0085,0.07689 c 0.02528,-0.04798 0.03174,-0.139982 0.08022,-0.170619 0.05834,-0.03685 0.175087,0.03681 0.235881,0.04701 0.04824,0.0081 0.08967,-0.01692 0.136693,-0.02163 l 0.01709,0.05126 0.01709,-0.04272 c 0.07826,0.04212 0.03169,0.151977 0.136693,0.17941 l 0.0085,-0.12815 c 0.07834,0.0086 0.151713,-0.09615 0.222127,-0.129995 0.205113,-0.0986 0.453747,-0.06705 0.538683,0.164168 0.01036,0.0282 0.03496,0.06372 0.03531,0.09397 8.71e-4,0.07581 -0.161283,0.09328 -0.215178,0.104229 -0.235591,0.04787 -0.470797,0.05109 -0.709096,0.06741 -0.16533,0.01133 -0.332404,0.02172 -0.495512,0.05434 -0.08549,0.01709 -0.170986,0.05587 -0.2563,0.06786 -0.09773,0.01374 -0.199632,0.01616 -0.299016,0.03274 -0.03297,0.0055 -0.0603,0.02736 -0.09398,0.03031 -0.03357,0.0029 -0.06613,-0.01758 -0.0989,-0.01233 -0.223869,0.03589 -0.471275,0.06916 -0.704174,0.047 -0.08852,-0.0084 -0.175437,-0.02151 -0.2563,-0.06056 -0.04959,-0.02395 -0.10158,-0.07522 -0.15378,-0.08835 -0.0745,-0.01873 -0.167756,0.02625 -0.247756,0.01171 -0.06242,-0.01135 -0.10334,-0.07776 -0.162323,-0.100571 l -0.0085,0.03417 h -0.0085 c -0.03519,-0.08041 -0.01091,-0.197488 -0.128149,-0.23067 0.02609,0.05704 -0.0091,0.08122 -0.0598,0.10252 l -0.0598,-0.06835 -0.06835,-0.153779 0.03417,0.0085 c 0.02274,-0.03364 0.05869,-0.0068 0.09398,-0.0085 -0.06798,-0.06116 -0.185083,-0.0934 -0.196497,-0.196496 -0.114352,0.03476 -0.153711,-0.06939 -0.153779,-0.170867 0.01926,0.0069 0.08714,0.02692 0.08004,-0.01764 -0.0097,-0.06107 -0.103947,-0.03019 -0.136266,-0.062 -0.04518,-0.04445 -0.04593,-0.167313 -0.05484,-0.227919 0.09135,-0.03671 -0.01246,-0.09612 -0.0042,-0.162323 0.0042,-0.03349 0.0375,-0.05314 0.04554,-0.08543 0.0311,-0.124877 0.03684,-0.250191 0.07832,-0.375905 0.02433,-0.07375 0.03024,-0.160316 0.0605,-0.23067 0.06999,-0.162802 0.182536,-0.342109 0.284851,-0.48697 0.06378,-0.09029 0.162571,-0.158914 0.221895,-0.248089 0.01862,-0.02798 0.01395,-0.06405 0.03155,-0.09287 0.0413,-0.06769 0.101042,-0.122981 0.149961,-0.181998 0.02064,-0.0249 0.0082,-0.05701 0.02542,-0.08314 0.02689,-0.04086 0.08841,-0.05222 0.131414,-0.06882 -0.05343,-0.158248 0.03098,-0.278769 0.08249,-0.427166 0.04367,-0.125792 0.06558,-0.262673 0.117651,-0.38445 0.04842,-0.113216 0.133464,-0.190873 0.192643,-0.292911 0.03552,-0.06123 0.0441,-0.145265 0.07973,-0.211145 0.06423,-0.118748 0.180597,-0.341666 0.347636,-0.318641 0.253464,0.03494 0.06397,0.396528 -0.0017,0.506594 -0.02091,0.03504 -0.04302,0.09057 -0.07796,0.113654 -0.03187,0.02106 -0.09646,-0.01034 -0.133908,-0.01113 m 1.204604,-0.350276 c 0.08187,0.06826 0.127483,0.04421 0.179409,-0.05126 -0.04036,-0.0097 -0.114463,-0.04177 -0.05126,-0.07689 -0.01381,-0.04547 -0.05656,-0.04641 -0.08764,-0.01086 -0.02481,0.02838 -0.02719,0.101469 -0.04051,0.139008 m 0.854331,0.521142 c 0.01219,0.06761 0.05398,0.115506 0.05093,0.187953 -0.0061,0.14428 -0.195155,0.373206 -0.341399,0.392993 v 0.04272 c -0.03635,-0.004 -0.0946,-0.02614 -0.100111,-0.06912 -0.0026,-0.02024 0.01141,-0.03751 -2.69e-4,-0.05721 -0.01386,-0.02342 -0.0473,-0.03348 -0.07052,-0.04455 -0.01568,0.08554 0.08931,0.119863 0.09398,0.20504 -0.09379,-0.0023 -0.132951,-0.09269 -0.213583,-0.12815 -0.01958,0.1068 0.09506,0.09025 0.146449,0.143895 0.02489,0.02598 0.01731,0.08083 0.01006,0.112404 -0.03075,0.134011 -0.163331,0.233165 -0.267568,0.310721 -0.0355,0.02642 -0.07639,0.06562 -0.119606,0.07786 -0.09615,0.02721 -0.26352,-0.0933 -0.267569,-0.192079 -0.0021,-0.05104 0.04333,-0.111004 0.06745,-0.15378 0.06879,-0.122033 0.135881,-0.253566 0.243168,-0.347671 0.04623,-0.04055 0.116634,-0.02344 0.144903,-0.07949 l 0.06835,0.02563 c -0.0046,-0.03059 -0.03212,-0.07285 -0.02306,-0.10252 0.01198,-0.03923 0.06079,-0.07915 0.08628,-0.111063 0.073,-0.09139 0.139862,-0.195975 0.235795,-0.265457 0.03718,-0.02693 0.103136,-0.01885 0.131541,-0.04725 0.02594,-0.02595 0.0079,-0.07456 0.02736,-0.105912 0.06397,-0.10329 0.174515,-0.205169 0.26826,-0.281119 0.105596,-0.08555 0.278456,-0.151133 0.382505,-0.02641 0.08571,0.102739 0.0016,0.239294 -0.06644,0.324614 -0.08094,0.101512 -0.171781,0.22926 -0.298983,0.260819 -0.02414,0.006 -0.05139,0.02641 -0.07689,0.01853 -0.03958,-0.01222 -0.08087,-0.06359 -0.111063,-0.0914 m -0.828702,-0.452796 0.0085,0.02563 h 0.01709 l 0.0085,-0.02563 h -0.03417 m 1.161891,0.04272 c -0.04973,0.0075 -0.09915,0.03076 -0.109115,0.08543 -0.01099,0.06033 0.0285,0.164454 0.10835,0.13931 0.02516,-0.0079 0.04356,-0.03543 0.06077,-0.05388 0.01971,-0.02113 0.06305,-0.05837 0.04899,-0.09202 -0.01619,-0.03877 -0.08452,-0.03651 -0.109,-0.07884 m -1.213151,0.162322 0.02563,0.01709 v -0.0085 l -0.02563,-0.0085 m -1.366904,0.0085 v 0.0085 l 0.102519,0.03417 c -0.02266,-0.03982 -0.05975,-0.04234 -0.102502,-0.04272 m -0.02563,0.606576 0.0085,0.0085 -0.0085,-0.0085 m 2.964533,0.546772 0.03417,0.12815 -0.0598,-0.03417 c -0.05846,0.132045 -0.07294,0.240136 -0.19287,0.347696 -0.03079,0.02761 -0.07331,0.03733 -0.10602,0.06343 -0.03095,0.02471 -0.05447,0.06644 -0.08803,0.08619 -0.02481,0.0146 -0.05537,-0.0053 -0.07666,0.01833 -0.02957,0.03282 -0.03284,0.08166 -0.06648,0.11642 -0.106919,0.1105 -0.247884,0.165689 -0.384081,0.226654 -0.03494,0.01563 -0.0824,0.07093 -0.119607,0.07073 -0.06637,-3.22e-4 -0.105997,-0.117607 -0.142109,-0.158615 -0.0239,-0.02713 -0.06546,-0.03721 -0.0971,-0.05321 l -0.0085,0.03417 c -0.05852,-0.03074 -0.03206,-0.0721 0.01709,-0.09398 -0.02927,-0.09908 0.04775,-0.143228 0.111063,-0.20504 0.0834,-0.08142 0.188363,-0.183809 0.299016,-0.226764 0.03731,-0.01449 0.0729,0.01 0.111063,10e-4 0.04334,-0.01014 0.07967,-0.04584 0.119607,-0.06473 -0.05003,-0.100093 0.05769,-0.160956 0.136693,-0.206125 0.1533,-0.08765 0.351159,-0.191233 0.452796,0.02672 h 0.0085 l -0.08543,-0.136693 c 0.0054,-0.04102 -0.01146,-0.111934 0.0068,-0.145236 0.04579,-0.08348 0.147173,-0.119479 0.223867,-0.16533 0.121216,-0.07247 0.283469,-0.192755 0.35435,0.02009 0.04076,0.122391 -0.125469,0.305919 -0.216207,0.374189 -0.02793,0.02102 -0.04953,0.05989 -0.08688,0.06522 -0.04949,0.0071 -0.107976,-0.06234 -0.145235,-0.08913 m 0.179409,-0.239213 c 0.03486,0.0033 0.04992,-0.0094 0.0598,-0.04272 -0.03576,-0.0031 -0.04671,0.01052 -0.0598,0.04272 m -0.2563,0.145237 -0.0085,0.02563 0.04272,0.01709 -0.03417,-0.04272 m -0.119606,0.222125 -0.02563,0.04272 c 0.03187,5.38e-4 0.04324,-0.01085 0.04272,-0.04272 h -0.01709 m -1.443821,0 0.01709,0.04272 -0.01709,-0.04272 m -0.726182,0 c 0.01837,0.01773 0.02738,0.02187 0.04272,0 h -0.04272 m -0.04272,0.0085 -0.03417,0.05126 0.06835,-0.0085 -0.03417,-0.04272 m 0.666379,0.495513 v 0.0085 l -0.04272,0.0085 0.0085,-0.03417 0.03417,0.01709 m 0.06835,-0.0085 0.02563,0.04272 -0.07689,0.01709 0.05126,-0.0598 m -1.042285,0.01709 0.0598,0.03417 0.0085,-0.01709 -0.06835,-0.01709 m 1.196064,0.03417 -0.03417,0.03417 c -5.92e-4,-0.02789 0.0063,-0.03476 0.03417,-0.03417 m -0.683465,0.0085 0.02563,0.0598 c -0.03736,0.01785 -0.104997,0.149397 -0.02517,0.147356 0.07036,-0.0018 0.04493,-0.183332 -4.84e-4,-0.207159 m 0.828701,0.08543 c -0.04315,-0.007 -0.0609,-0.03839 -0.07689,-0.07689 0.04936,0.0037 0.07146,0.0282 0.07689,0.07689 m -0.709096,0.01709 c -0.08068,0.09643 0.08603,0.09316 0,0 m 0.871419,0.08543 -0.0085,0.03417 -0.0085,-0.03417 h 0.01709 m -1.119176,0.06835 c 0.02169,0.02433 0.04604,0.03897 0.06835,0.0085 l -0.06835,-0.0085 m -0.837244,0.179409 -0.0085,0.09398 h 0.01709 l 0.04272,-0.0598 -0.05126,-0.03417 m -0.02563,0.111063 -0.07689,0.145237 c 0.102494,0.04897 0.105826,-0.07815 0.07689,-0.145237 m -0.136693,0.316104 0.03417,0.0085 0.0598,-0.04272 v -0.0085 l -0.04272,-0.03417 -0.05126,0.07689 m 0.30756,-0.02563 0.04272,-0.02563 -0.04272,0.02563 m -0.35882,0.0085 -0.03417,0.136694 h -0.07689 c 0.03005,0.06439 0.06859,0.08395 0.119607,0.03417 l -0.05126,0.08543 c 0.08079,0.03823 0.09314,10e-4 0.170866,-0.0076 0.05968,-0.0066 0.112943,0.0031 0.170866,-0.01802 l -0.02563,0.09398 c 0.117352,-0.0025 0.182537,-0.102229 0.273387,-0.162323 v -0.0085 l -0.170867,0.06835 c -0.0071,-0.05628 0.03842,-0.08563 0.06835,-0.12815 -0.05533,4.84e-4 -0.09363,0.01511 -0.128149,0.0598 h -0.0085 c -0.02452,-0.04812 -0.03642,-0.08066 0.0085,-0.119606 l -0.145237,0.03964 -0.170867,-0.07381 m 0.743269,0.03417 v 0.0085 l 0.111063,0.07689 c -0.02416,-0.0481 -0.05558,-0.0814 -0.111063,-0.08543 m 0.324646,0.401536 0.02563,0.03417 -0.02563,-0.03417 m 0.281929,0.02563 0.02563,0.05126 -0.02563,-0.05126 m -1.674489,0.435709 0.03417,0.04272 -0.03417,-0.04272 m -0.41008,0.10252 v 0.01709 c -0.04828,0.02073 -0.08347,-3.77e-4 -0.09398,-0.05126 l 0.09398,0.03417 m 0.299016,0.367362 -0.02563,-0.0598 c 0.02795,0.01543 0.03255,0.02889 0.02563,0.0598 z"
       id="path773" /></g></svg>
