<?xml version="1.0" encoding="UTF-8" standalone="no"?>
<!-- Created with Inkscape (http://www.inkscape.org/) -->

<svg
   version="1.1"
   id="svg2390"
   width="401.37637mm"
   height="363.35287mm"
   viewBox="0 0 1517.0132 1373.3021"
   sodipodi:docname="logo-tacama.svg"
   inkscape:version="1.2.2 (b0a8486, 2022-12-01)"
   inkscape:export-filename="logo-tacama.png"
   inkscape:export-xdpi="96"
   inkscape:export-ydpi="96"
   xmlns:inkscape="http://www.inkscape.org/namespaces/inkscape"
   xmlns:sodipodi="http://sodipodi.sourceforge.net/DTD/sodipodi-0.dtd"
   xmlns="http://www.w3.org/2000/svg"
   xmlns:svg="http://www.w3.org/2000/svg"
   xmlns:rdf="http://www.w3.org/1999/02/22-rdf-syntax-ns#"
   xmlns:cc="http://creativecommons.org/ns#"
   xmlns:dc="http://purl.org/dc/elements/1.1/">
  <metadata
     id="metadata2396">
    <rdf:RDF>
      <cc:Work
         rdf:about="">
        <dc:format>image/svg+xml</dc:format>
        <dc:type
           rdf:resource="http://purl.org/dc/dcmitype/StillImage" />
      </cc:Work>
    </rdf:RDF>
  </metadata>
  <defs
     id="defs2394">
    <inkscape:path-effect
       effect="bspline"
       id="path-effect3467"
       is_visible="true"
       weight="33.333333"
       steps="2"
       helper_size="0"
       apply_no_weight="true"
       apply_with_weight="true"
       only_selected="false"
       lpeversion="0" />
    <inkscape:path-effect
       only_selected="false"
       apply_with_weight="true"
       apply_no_weight="true"
       helper_size="0"
       steps="2"
       weight="33.333333"
       is_visible="true"
       id="path-effect3463"
       effect="bspline"
       lpeversion="0" />
    <inkscape:path-effect
       only_selected="false"
       apply_with_weight="true"
       apply_no_weight="true"
       helper_size="0"
       steps="2"
       weight="33.333333"
       is_visible="true"
       id="path-effect3428"
       effect="bspline"
       lpeversion="0" />
    <inkscape:path-effect
       only_selected="false"
       apply_with_weight="true"
       apply_no_weight="true"
       helper_size="0"
       steps="2"
       weight="33.333333"
       is_visible="true"
       id="path-effect3417"
       effect="bspline"
       lpeversion="0" />
    <inkscape:path-effect
       only_selected="false"
       apply_with_weight="true"
       apply_no_weight="true"
       helper_size="0"
       steps="2"
       weight="33.333333"
       is_visible="true"
       id="path-effect3055"
       effect="bspline"
       lpeversion="0" />
    <inkscape:path-effect
       only_selected="false"
       apply_with_weight="true"
       apply_no_weight="true"
       helper_size="0"
       steps="2"
       weight="33.333333"
       is_visible="true"
       id="path-effect1614"
       effect="bspline"
       lpeversion="0" />
    <inkscape:path-effect
       only_selected="false"
       apply_with_weight="true"
       apply_no_weight="true"
       helper_size="0"
       steps="2"
       weight="33.333333"
       is_visible="true"
       id="path-effect1610"
       effect="bspline"
       lpeversion="0" />
    <clipPath
       id="clipPath1428"
       clipPathUnits="userSpaceOnUse">
      <rect
         y="596.59375"
         x="909.513"
         height="663.85675"
         width="672.63019"
         id="rect1430"
         style="opacity:0.992327;fill:none;fill-opacity:1;stroke:#050000;stroke-width:1.13386;stroke-linecap:round;stroke-linejoin:round;stroke-miterlimit:4;stroke-dasharray:none;stroke-dashoffset:0;stroke-opacity:1;paint-order:normal" />
    </clipPath>
    <clipPath
       clipPathUnits="userSpaceOnUse"
       id="clipPath1053">
      <rect
         style="opacity:0.992327;fill:none;fill-opacity:1;stroke:#030003;stroke-width:0.7;stroke-linecap:round;stroke-linejoin:bevel;stroke-miterlimit:4;stroke-dasharray:none;stroke-dashoffset:0;stroke-opacity:1;paint-order:normal"
         id="rect1055"
         width="119.35606"
         height="102.16486"
         x="21.120619"
         y="91.196754" />
    </clipPath>
    <clipPath
       clipPathUnits="userSpaceOnUse"
       id="clipPath861">
      <rect
         style="opacity:0.992327;fill:none;fill-opacity:1;stroke:#050000;stroke-width:0.3;stroke-linecap:round;stroke-linejoin:round;stroke-miterlimit:4;stroke-dasharray:none;stroke-dashoffset:0;stroke-opacity:1;paint-order:normal"
         id="rect863"
         width="47.234802"
         height="219.5029"
         x="-280.63028"
         y="-201.74393" />
    </clipPath>
    <inkscape:path-effect
       only_selected="false"
       apply_with_weight="true"
       apply_no_weight="true"
       helper_size="0"
       steps="2"
       weight="33.333333"
       is_visible="true"
       id="path-effect3055-0"
       effect="bspline"
       lpeversion="0" />
    <inkscape:path-effect
       only_selected="false"
       apply_with_weight="true"
       apply_no_weight="true"
       helper_size="0"
       steps="2"
       weight="33.333333"
       is_visible="true"
       id="path-effect1614-0"
       effect="bspline"
       lpeversion="0" />
    <clipPath
       clipPathUnits="userSpaceOnUse"
       id="clipPath985">
      <rect
         style="display:block;fill:#ff0000;stroke-width:0.506;stroke-miterlimit:0.5"
         id="rect987"
         width="245.58859"
         height="90.867775"
         x="-89.874718"
         y="72.136925" />
    </clipPath>
    <inkscape:path-effect
       effect="powerclip"
       id="path-effect989"
       is_visible="true"
       lpeversion="1"
       inverse="true"
       flatten="false"
       hide_clip="false"
       message="Use fill-rule evenodd on &lt;b&gt;fill and stroke&lt;/b&gt; dialog if no flatten result after convert clip to paths." />
    <clipPath
       clipPathUnits="userSpaceOnUse"
       id="clipPath971">
      <ellipse
         style="display:none;fill:#ff0000;stroke-width:0.548386;stroke-miterlimit:0.5"
         id="ellipse973"
         cx="27.762213"
         cy="-24.25852"
         rx="50.836838"
         ry="46.045929" />
    </clipPath>
    <inkscape:path-effect
       effect="powerclip"
       id="path-effect975"
       is_visible="true"
       lpeversion="1"
       inverse="true"
       flatten="false"
       hide_clip="false"
       message="Use fill-rule evenodd on &lt;b&gt;fill and stroke&lt;/b&gt; dialog if no flatten result after convert clip to paths." />
  </defs>
  <sodipodi:namedview
     pagecolor="#ffffff"
     bordercolor="#000000"
     borderopacity="0.25"
     objecttolerance="10"
     gridtolerance="10"
     guidetolerance="10"
     inkscape:pageopacity="0"
     inkscape:pageshadow="2"
     inkscape:window-width="1280"
     inkscape:window-height="747"
     id="namedview2392"
     showgrid="false"
     inkscape:zoom="0.23603956"
     inkscape:cx="762.58403"
     inkscape:cy="764.70232"
     inkscape:window-x="0"
     inkscape:window-y="25"
     inkscape:window-maximized="0"
     inkscape:current-layer="g3073"
     inkscape:showpageshadow="2"
     inkscape:pagecheckerboard="0"
     inkscape:deskcolor="#d1d1d1"
     inkscape:document-units="mm" />
  <g
     id="g5041"
     transform="translate(1168.9429,1473.5677)">
    <g
       style="stroke-width:4.54535"
       transform="matrix(0.22023184,0,0,0.21977848,82.151544,673.29535)"
       id="g1685">
      <g
         style="fill:none;stroke:#070000;stroke-width:22.9415;stroke-miterlimit:4;stroke-dasharray:none;stroke-opacity:1"
         transform="matrix(0.37521019,0,0,0.37362119,2028.2505,-1818.3436)"
         id="g2995">
        <g
           style="stroke:#070000;stroke-width:46.8022;stroke-miterlimit:4;stroke-dasharray:none;stroke-opacity:1"
           transform="matrix(2.6457868,0,0,2.6481525,6037.6132,-1467.9507)"
           id="g3073">
          <g
             id="g3061"
             transform="matrix(0.93142763,0,0,0.98091566,-83.229424,1473.11)"
             style="stroke:#070000;stroke-width:10.8809;stroke-miterlimit:4;stroke-dasharray:none;stroke-opacity:1" />
          <flowRoot
             transform="matrix(4.5739396,0,0,4.5987557,-4368.1431,-1707.685)"
             style="font-style:normal;font-variant:normal;font-weight:normal;font-stretch:normal;font-size:64px;line-height:37.65;font-family:'Maiandra GD';-inkscape-font-specification:'Maiandra GD';font-variant-ligatures:normal;font-variant-caps:normal;font-variant-numeric:normal;font-feature-settings:normal;text-align:center;writing-mode:lr-tb;text-orientation:upright;text-anchor:middle;opacity:0.992327;fill:#d40000;fill-opacity:1;stroke:#070000;stroke-width:3.934;stroke-linecap:round;stroke-linejoin:round;stroke-miterlimit:4;stroke-dasharray:none;stroke-dashoffset:0;stroke-opacity:1;paint-order:normal"
             id="flowRoot3765"
             xml:space="preserve"><flowRegion
               id="flowRegion3767"><rect
                 y="358.4408"
                 x="44.194176"
                 height="649.65436"
                 width="680.59027"
                 id="rect3769" /></flowRegion><flowPara
               id="flowPara3771" /></flowRoot>
          <g
             style="stroke-width:12.4138;stroke-miterlimit:4;stroke-dasharray:none"
             transform="matrix(0.30312396,0,0,0.36880493,-9750.9032,824.94971)"
             id="g4123" />
          <g
             style="fill:none;stroke:#070000;stroke-width:17.3342;stroke-miterlimit:4;stroke-dasharray:none;stroke-opacity:1"
             transform="translate(-8769.7595,467.84744)"
             id="g4217">
            <g
               id="g7419"
               transform="translate(51.169118)">
              <g
                 id="g1707"
                 style="fill:#ffffff;fill-opacity:1;stroke:#070000;stroke-width:8.3455;stroke-miterlimit:4;stroke-dasharray:none;stroke-opacity:1"
                 transform="matrix(8.3656998,0,0,8.2512236,5303.6662,-13717.44)">
                <path
                   sodipodi:nodetypes="cccccccccc"
                   transform="matrix(1.0035353,0,0,0.85336853,368.9138,465.46262)"
                   inkscape:original-d="m -1034.2649,337.59781 c 29.6022,-20.95817 59.20219,-41.91424 88.80448,-62.87151 132.23401,0.7768 264.4518,1.5545 396.67667,2.33322 29.7894,18.79431 59.57571,37.58846 89.36471,56.38611 -5.74631,34.4703 -11.49287,68.93727 -17.2409,103.40827 -55.40512,104.36868 -110.80859,208.73337 -166.21537,313.10337 -33.6207,45.55578 -67.24194,91.1121 -100.86368,136.66892 -25.27951,-34.54703 -50.56032,-69.09333 -75.84258,-103.63908 -60.97086,-118.31537 -121.94102,-236.62648 -182.91293,-354.93806 -10.5891,-30.15134 -21.1794,-60.30223 -31.7704,-90.45124 z"
                   inkscape:path-effect="#path-effect1614-0"
                   inkscape:connector-curvature="0"
                   id="path1705"
                   d="m -1014.1688,342.19361 c 9.5063,-25.55364 39.10631,-46.50973 120.02435,-56.59963 80.91803,-10.08989 213.13582,-9.3122 294.14256,0.47447 81.00673,9.78666 110.79304,28.58082 122.8144,55.21408 12.02136,26.63327 6.2748,61.10024 -24.30157,130.52005 -30.57637,69.4198 -85.97985,173.78449 -130.49344,248.74745 -44.5136,74.96295 -78.13484,120.51928 -107.58602,126.02464 -29.45118,5.50537 -54.73199,-29.04093 -97.85854,-105.47162 -43.12655,-76.4307 -104.09672,-194.74181 -139.87723,-268.97336 -35.78051,-74.23156 -46.37081,-104.38244 -36.86451,-129.93608 z"
                   style="opacity:0.992327;fill:#ffffff;fill-opacity:1;stroke:#070000;stroke-width:9.01816;stroke-linecap:round;stroke-linejoin:round;stroke-miterlimit:4;stroke-dasharray:none;stroke-dashoffset:0;stroke-opacity:1;paint-order:normal" />
              </g>
              <g
                 id="g1713"
                 transform="matrix(9.2366455,0,0,7.477036,6292.1072,-5788.2284)"
                 style="fill:#f00000;fill-opacity:1;stroke:#070000;stroke-width:8.34336;stroke-miterlimit:4;stroke-dasharray:none;stroke-opacity:1">
                <g
                   id="g8578"
                   style="stroke-width:8.34336;stroke-dasharray:none">
                  <path
                     sodipodi:nodetypes="cccccccccc"
                     id="path3053"
                     style="opacity:0.992327;fill:#f00000;fill-opacity:1;stroke:#070000;stroke-width:8.34336;stroke-linecap:round;stroke-linejoin:round;stroke-miterlimit:4;stroke-dasharray:none;stroke-dashoffset:0;stroke-opacity:1;paint-order:normal"
                     inkscape:path-effect="#path-effect3055-0"
                     inkscape:original-d="m -633.92943,-204.03949 139.85994,94.42755 42.84443,318.92983 0.50183,-362.43538 z m 183.2062,50.922 0.50186,362.43538 42.8444,-318.92983 139.85994,-94.42755 z"
                     d="m -633.92943,-204.03949 c 0,0 139.85994,94.42755 139.85994,94.42755 0,0 42.84443,318.92983 42.84443,318.92983 0,0 0.50183,-362.43538 0.50183,-362.43538 0,0 -183.2062,-50.922 -183.2062,-50.922 z m 183.2062,50.922 c 0,0 0.50186,362.43538 0.50186,362.43538 0,0 42.8444,-318.92983 42.8444,-318.92983 0,0 139.85994,-94.42755 139.85994,-94.42755 0,0 -183.2062,50.922 -183.2062,50.922 z"
                     inkscape:connector-curvature="0" />
                  <path
                     inkscape:connector-curvature="0"
                     id="path5104"
                     d="m -633.92937,-204.0395 h 366.41238 l -183.20624,50.922 z"
                     style="opacity:0.992327;fill:#f00000;fill-opacity:1;stroke:#040000;stroke-width:8.34336;stroke-linecap:round;stroke-linejoin:round;stroke-miterlimit:4;stroke-dasharray:none;stroke-dashoffset:0;stroke-opacity:1;paint-order:normal" />
                </g>
              </g>
            </g>
            <g
               aria-label="TACAMA"
               transform="scale(0.83017073,1.2045715)"
               id="text1717"
               style="font-size:880.576px;line-height:100;font-family:'Nirmala UI';-inkscape-font-specification:'Nirmala UI';text-align:center;letter-spacing:183.453px;text-orientation:upright;text-anchor:middle;opacity:0.992327;fill:#43aedf;stroke:#000000;stroke-width:69.3367;stroke-linecap:round;stroke-linejoin:round;stroke-opacity:0.996078">
              <path
                 d="m 134.3097,-2712.4234 h -277.68765 v 717.2105 H -372.6942 v -717.2105 h -277.68765 v -171.9872 H 134.3097 Z"
                 style="font-weight:bold;font-size:1223.02px;-inkscape-font-specification:'Nirmala UI, Bold'"
                 id="path411" />
              <path
                 d="m 1277.4274,-1995.2129 h -237.0796 l -61.50931,-179.7505 H 649.19638 l -61.50931,179.7505 H 356.57928 l 328.44776,-889.1977 h 263.95257 z m -354.12644,-342.78 -109.28353,-318.8929 -109.28352,318.8929 z"
                 style="font-weight:bold;font-size:1223.02px;-inkscape-font-specification:'Nirmala UI, Bold'"
                 id="path413" />
              <path
                 d="m 1990.5771,-1977.8947 q -99.1315,0 -183.3336,-29.2617 -83.6048,-29.2618 -143.9198,-87.188 -60.3149,-57.9262 -93.7569,-144.517 -32.8448,-86.5908 -32.8448,-200.0546 0,-105.7004 31.6504,-191.694 31.6505,-85.9936 91.9654,-147.5029 57.9263,-59.1206 143.3227,-91.3682 85.9936,-32.2476 187.5138,-32.2476 56.1347,0 100.923,6.5689 45.3855,5.9718 83.6049,16.1238 40.0109,11.3464 72.2585,25.6787 32.8448,13.7351 57.3291,25.6786 v 215.5812 h -26.2758 q -16.721,-14.3323 -42.3997,-34.0391 -25.0814,-19.7069 -57.329,-38.8166 -32.8448,-19.1097 -71.0642,-32.2476 -38.2194,-13.1379 -81.8133,-13.1379 -48.3714,0 -91.9654,15.5266 -43.594,14.9295 -80.619,50.163 -35.2335,34.0391 -57.3291,90.1738 -21.4984,56.1347 -21.4984,136.1565 0,83.6049 23.29,139.7396 23.8871,56.1347 59.7177,88.3823 36.4279,32.8448 81.2162,47.1771 44.7884,13.7351 88.3823,13.7351 41.8025,0 82.4106,-12.5408 41.2052,-12.5407 75.8415,-34.0391 29.2617,-17.3182 54.3432,-37.025 25.0815,-19.7069 41.2053,-34.0392 h 23.8871 v 212.5953 q -33.442,14.9295 -63.898,28.0674 -30.4561,13.1379 -63.8981,22.6927 -43.5939,12.5408 -81.8133,19.1097 -38.2194,6.569 -105.1033,6.569 z"
                 style="font-weight:bold;font-size:1223.02px;-inkscape-font-specification:'Nirmala UI, Bold'"
                 id="path415" />
              <path
                 d="M 3478.8635,-1995.2129 H 3241.784 l -61.5094,-179.7505 h -329.6421 l -61.5093,179.7505 h -231.1078 l 328.4478,-889.1977 h 263.9526 z m -354.1264,-342.78 -109.2835,-318.8929 -109.2835,318.8929 z"
                 style="font-weight:bold;font-size:1223.02px;-inkscape-font-specification:'Nirmala UI, Bold'"
                 id="path417" />
              <path
                 d="m 4722.3067,-1995.2129 h -228.1219 v -595.3862 l -164.821,386.374 h -158.2521 l -164.8211,-386.374 v 595.3862 h -216.1783 v -889.1977 h 266.3413 l 200.0545,446.0918 199.4574,-446.0918 h 266.3412 z"
                 style="font-weight:bold;font-size:1223.02px;-inkscape-font-specification:'Nirmala UI, Bold'"
                 id="path419" />
              <path
                 d="m 5954.404,-1995.2129 h -237.0795 l -61.5093,-179.7505 h -329.6421 l -61.5093,179.7505 H 5033.556 l 328.4477,-889.1977 h 263.9526 z m -354.1264,-342.78 -109.2835,-318.8929 -109.2835,318.8929 z"
                 style="font-weight:bold;font-size:1223.02px;-inkscape-font-specification:'Nirmala UI, Bold'"
                 id="path421" />
            </g>
            <g
               aria-label="Pasión en cada creación"
               transform="scale(0.83427468,1.198646)"
               id="text1721"
               style="font-size:529.184px;line-height:37.65;font-family:'Bodoni MT';-inkscape-font-specification:'Bodoni MT';text-align:center;letter-spacing:91.7266px;text-orientation:upright;text-anchor:middle;opacity:0.992327;fill:#030000;stroke-width:34.6683;stroke-linecap:round;stroke-linejoin:round">
              <path
                 d="m -1262.5699,-1656.2837 q 0,25.5807 -9.0437,47.5439 -8.7853,21.7048 -24.8055,37.725 -19.8961,19.8961 -47.0271,29.9734 -27.131,9.8188 -68.4735,9.8188 h -51.1614 v 143.4068 h -51.1613 v -384.7437 h 104.3898 q 34.6244,0 58.6547,5.943 24.0303,5.6846 42.6344,18.0874 21.9632,14.7282 33.8492,36.6914 12.1444,21.9633 12.1444,55.554 z m -53.2285,1.292 q 0,-19.8961 -6.9765,-34.6244 -6.9766,-14.7282 -21.1881,-24.0303 -12.4027,-8.0101 -28.4229,-11.3692 -15.7619,-3.6174 -40.0506,-3.6174 h -50.6446 v 153.7424 h 43.1513 q 31.0069,0 50.3862,-5.4262 19.3792,-5.6846 31.5236,-17.829 12.1444,-12.4027 17.0538,-26.0974 5.1678,-13.6947 5.1678,-30.7485 z"
                 style="font-family:Candara;-inkscape-font-specification:Candara"
                 id="path424" />
              <path
                 d="m -895.9157,-1387.8158 h -48.31905 v -30.7485 q -6.45976,4.3927 -17.57056,12.4028 -10.85241,7.7517 -21.18803,12.4027 -12.14436,5.943 -27.90616,9.8189 -15.7619,4.1342 -36.9499,4.1342 -39.017,0 -66.148,-25.839 -27.131,-25.8391 -27.131,-65.8897 0,-32.8156 13.9531,-52.97 14.2115,-20.4129 40.3089,-32.0405 26.3559,-11.6276 63.3057,-15.7618 36.94989,-4.1343 79.32595,-6.2014 v -7.4933 q 0,-16.537 -5.94298,-27.3894 -5.6846,-10.8524 -16.537,-17.0538 -10.33563,-5.943 -24.8055,-8.0101 -14.46987,-2.0671 -30.23167,-2.0671 -19.1209,0 -42.6345,5.1678 -23.5135,4.9094 -48.5774,14.4699 h -2.5839 v -49.3527 q 14.2114,-3.8758 41.0841,-8.5269 26.8726,-4.651 52.9701,-4.651 30.49005,0 52.97003,5.1678 22.73838,4.9095 39.27538,17.0538 16.27861,11.886 24.8055,30.7485 8.52689,18.8625 8.52689,46.7687 z m -48.31905,-71.0574 v -80.3595 q -22.22159,1.2919 -52.4533,3.8759 -29.97335,2.5839 -47.54385,7.4933 -20.9297,5.943 -33.8492,18.6041 -12.9195,12.4028 -12.9195,34.366 0,24.8055 14.9866,37.4666 14.9867,12.4028 45.7352,12.4028 25.5806,0 46.76868,-9.8189 21.18803,-10.0772 39.27537,-24.0303 z"
                 style="font-family:Candara;-inkscape-font-specification:Candara"
                 id="path426" />
              <path
                 d="m -504.45592,-1471.0176 q 0,39.5338 -32.81561,64.8561 -32.55722,25.3223 -89.14477,25.3223 -32.04044,0 -58.91307,-7.4934 -26.61423,-7.7517 -44.70158,-16.7954 v -54.5204 h 2.58391 q 22.99676,17.3122 51.16134,27.6478 28.16458,10.0772 54.00365,10.0772 32.04044,0 50.12778,-10.3356 18.08734,-10.3356 18.08734,-32.5572 0,-17.0538 -9.81884,-25.8391 -9.81884,-8.7853 -37.72503,-14.9866 -10.33563,-2.3255 -27.13102,-5.4262 -16.537,-3.1007 -30.2317,-6.7182 -37.98343,-10.0772 -54.00365,-29.4565 -15.76183,-19.6377 -15.76183,-48.0607 0,-17.8289 7.23494,-33.5908 7.49333,-15.7618 22.47999,-28.1645 14.46987,-12.1444 36.69147,-19.1209 22.47998,-7.235 50.12778,-7.235 25.83906,0 52.19491,6.4598 26.61423,6.2014 44.1848,15.245 v 51.9365 h -2.58391 q -18.60412,-13.6947 -45.21836,-22.9967 -26.61423,-9.5605 -52.19491,-9.5605 -26.61423,0 -44.95997,10.3357 -18.34573,10.0772 -18.34573,30.2317 0,17.8289 11.11079,26.8726 10.85241,9.0437 35.14113,14.7283 13.43631,3.1006 29.97331,6.2013 16.7954,3.1007 27.90619,5.6846 33.84918,7.7517 52.19491,26.6143 18.34574,19.1209 18.34574,50.6445 z"
                 style="font-family:Candara;-inkscape-font-specification:Candara"
                 id="path428" />
              <path
                 d="m -291.02736,-1724.7572 h -54.77881 v -50.3862 h 54.77881 z m -3.10069,336.9414 h -48.57744 v -288.6223 h 48.57744 z"
                 style="font-family:Candara;-inkscape-font-specification:Candara"
                 id="path430" />
              <path
                 d="m 139.70775,-1531.9978 q 0,70.5407 -36.17468,111.3664 -36.174693,40.8257 -96.8964923,40.8257 -61.2385807,0 -97.4132697,-40.8257 -35.916298,-40.8257 -35.916298,-111.3664 0,-70.5406 35.916298,-111.3663 36.174689,-41.0841 97.4132697,-41.0841 60.7217993,0 96.8964923,41.0841 36.17468,40.8257 36.17468,111.3663 z m -50.127778,0 q 0,-56.0707 -21.963204,-83.2018 -21.963204,-27.3894 -60.9801903,-27.3894 -39.5337667,0 -61.4969707,27.3894 -21.704814,27.1311 -21.704814,83.2018 0,54.2621 21.963204,82.4266 21.963204,27.9062 61.2385807,27.9062 38.7585953,0 60.7217993,-27.6478 22.221595,-27.9062 22.221595,-82.685 z m -2.583907,-288.8807 -70.540643,96.6381 h -38.500205 l 46.251924,-96.6381 z"
                 style="font-family:Candara;-inkscape-font-specification:Candara"
                 id="path432" />
              <path
                 d="m 547.96285,-1387.8158 h -48.57744 v -164.3364 q 0,-19.8961 -2.32551,-37.2083 -2.32552,-17.5706 -8.52689,-27.3894 -6.45977,-10.8524 -18.60413,-16.0202 -12.14436,-5.4262 -31.52366,-5.4262 -19.89608,0 -41.60089,9.8188 -21.70481,9.8189 -41.60089,25.0639 v 215.4978 H 306.626 v -288.6223 h 48.57744 v 32.0404 q 22.73837,-18.8625 47.02709,-29.4565 24.28872,-10.594 49.8694,-10.594 46.7687,0 71.31581,28.1645 24.54711,28.1646 24.54711,81.1347 z"
                 style="font-family:Candara;-inkscape-font-specification:Candara"
                 id="path434" />
              <path
                 d="m 1252.59,-1527.0883 h -212.6555 q 0,26.6142 8.0101,46.5103 8.0101,19.6377 21.9632,32.2988 13.4364,12.4027 31.7821,18.6041 18.6041,6.2014 40.8257,6.2014 29.4565,0 59.1715,-11.6276 29.9733,-11.886 42.6344,-23.2551 h 2.5839 v 52.97 q -24.5471,10.3357 -50.1278,17.3122 -25.5806,6.9766 -53.7452,6.9766 -71.8326,0 -112.1415,-38.7586 -40.30899,-39.017 -40.30899,-110.5912 0,-70.7991 38.50019,-112.4 38.7586,-41.6008 101.8059,-41.6008 58.3963,0 89.92,34.1075 31.782,34.1076 31.782,96.8965 z m -47.2855,-37.2083 q -0.2584,-38.2418 -19.3793,-59.1715 -18.8625,-20.9296 -57.6211,-20.9296 -39.017,0 -62.2721,22.9968 -22.9968,22.9967 -26.0975,57.1043 z"
                 style="font-family:Candara;-inkscape-font-specification:Candara"
                 id="path436" />
              <path
                 d="m 1659.2948,-1387.8158 h -48.5775 v -164.3364 q 0,-19.8961 -2.3255,-37.2083 -2.3255,-17.5706 -8.5269,-27.3894 -6.4598,-10.8524 -18.6041,-16.0202 -12.1444,-5.4262 -31.5237,-5.4262 -19.896,0 -41.6009,9.8188 -21.7048,9.8189 -41.6009,25.0639 v 215.4978 h -48.5774 v -288.6223 h 48.5774 v 32.0404 q 22.7384,-18.8625 47.0271,-29.4565 24.2888,-10.594 49.8694,-10.594 46.7687,0 71.3159,28.1645 24.5471,28.1646 24.5471,81.1347 z"
                 style="font-family:Candara;-inkscape-font-specification:Candara"
                 id="path438" />
              <path
                 d="m 2335.7572,-1405.9031 q -24.2887,11.6275 -46.2519,18.0873 -21.7048,6.4598 -46.2519,6.4598 -31.2653,0 -57.3627,-9.0437 -26.0975,-9.3021 -44.7016,-27.9062 -18.8625,-18.6041 -29.1982,-47.0271 -10.3356,-28.423 -10.3356,-66.4064 0,-70.799 38.7586,-111.108 39.017,-40.3089 102.8395,-40.3089 24.8055,0 48.5774,6.9766 24.0303,6.9765 43.9264,17.0537 v 54.0037 h -2.5839 q -22.2216,-17.3122 -45.9935,-26.6143 -23.5136,-9.302 -45.9935,-9.302 -41.3425,0 -65.3729,27.9062 -23.7719,27.6478 -23.7719,81.393 0,52.1949 23.2551,80.3595 23.5136,27.9062 65.8897,27.9062 14.7282,0 29.9733,-3.8759 15.245,-3.8758 27.3894,-10.0772 10.594,-5.4262 19.8961,-11.3692 9.302,-6.2014 14.7282,-10.594 h 2.5839 z"
                 style="font-family:Candara;-inkscape-font-specification:Candara"
                 id="path440" />
              <path
                 d="M 2714.0391,-1387.8158 H 2665.72 v -30.7485 q -6.4597,4.3927 -17.5705,12.4028 -10.8524,7.7517 -21.1881,12.4027 -12.1443,5.943 -27.9062,9.8189 -15.7618,4.1342 -36.9498,4.1342 -39.017,0 -66.148,-25.839 -27.131,-25.8391 -27.131,-65.8897 0,-32.8156 13.9531,-52.97 14.2114,-20.4129 40.3089,-32.0405 26.3558,-11.6276 63.3057,-15.7618 36.9499,-4.1343 79.3259,-6.2014 v -7.4933 q 0,-16.537 -5.943,-27.3894 -5.6846,-10.8524 -16.537,-17.0538 -10.3356,-5.943 -24.8055,-8.0101 -14.4698,-2.0671 -30.2317,-2.0671 -19.1209,0 -42.6344,5.1678 -23.5136,4.9094 -48.5775,14.4699 h -2.5839 v -49.3527 q 14.2115,-3.8758 41.0841,-8.5269 26.8727,-4.651 52.9701,-4.651 30.4901,0 52.9701,5.1678 22.7384,4.9095 39.2754,17.0538 16.2786,11.886 24.8055,30.7485 8.5269,18.8625 8.5269,46.7687 z m -48.3191,-71.0574 v -80.3595 q -22.2216,1.2919 -52.4533,3.8759 -29.9733,2.5839 -47.5439,7.4933 -20.9296,5.943 -33.8491,18.6041 -12.9196,12.4028 -12.9196,34.366 0,24.8055 14.9867,37.4666 14.9867,12.4028 45.7351,12.4028 25.5807,0 46.7687,-9.8189 21.1881,-10.0772 39.2754,-24.0303 z"
                 style="font-family:Candara;-inkscape-font-specification:Candara"
                 id="path442" />
              <path
                 d="m 3133.405,-1387.8158 h -48.5774 v -30.2317 q -20.9296,18.0873 -43.668,28.1646 -22.7384,10.0772 -49.3526,10.0772 -51.6782,0 -82.1683,-39.7921 -30.2317,-39.7922 -30.2317,-110.3328 0,-36.6915 10.3357,-65.3729 10.594,-28.6813 28.4229,-48.8358 17.5706,-19.6377 40.8258,-29.9733 23.5135,-10.3356 48.5774,-10.3356 22.7384,0 40.3089,4.9094 17.5706,4.651 36.9499,14.7282 v -125.061 h 48.5774 z m -48.5774,-71.0574 v -165.6284 q -19.6377,-8.7853 -35.1411,-12.1444 -15.5035,-3.3591 -33.8492,-3.3591 -40.8257,0 -63.5641,28.423 -22.7384,28.423 -22.7384,80.6179 0,51.4197 17.5706,78.2924 17.5706,26.6142 56.3291,26.6142 20.6713,0 41.8593,-9.0437 21.1881,-9.302 39.5338,-23.7719 z"
                 style="font-family:Candara;-inkscape-font-specification:Candara"
                 id="path444" />
              <path
                 d="m 3545.0193,-1387.8158 h -48.319 v -30.7485 q -6.4598,4.3927 -17.5706,12.4028 -10.8524,7.7517 -21.188,12.4027 -12.1444,5.943 -27.9062,9.8189 -15.7619,4.1342 -36.9499,4.1342 -39.017,0 -66.148,-25.839 -27.131,-25.8391 -27.131,-65.8897 0,-32.8156 13.9531,-52.97 14.2115,-20.4129 40.3089,-32.0405 26.3559,-11.6276 63.3057,-15.7618 36.9499,-4.1343 79.326,-6.2014 v -7.4933 q 0,-16.537 -5.943,-27.3894 -5.6846,-10.8524 -16.537,-17.0538 -10.3357,-5.943 -24.8055,-8.0101 -14.4699,-2.0671 -30.2317,-2.0671 -19.1209,0 -42.6345,5.1678 -23.5135,4.9094 -48.5774,14.4699 h -2.5839 v -49.3527 q 14.2114,-3.8758 41.0841,-8.5269 26.8726,-4.651 52.9701,-4.651 30.49,0 52.97,5.1678 22.7384,4.9095 39.2754,17.0538 16.2786,11.886 24.8055,30.7485 8.5269,18.8625 8.5269,46.7687 z m -48.319,-71.0574 v -80.3595 q -22.2216,1.2919 -52.4533,3.8759 -29.9734,2.5839 -47.5439,7.4933 -20.9297,5.943 -33.8492,18.6041 -12.9195,12.4028 -12.9195,34.366 0,24.8055 14.9866,37.4666 14.9867,12.4028 45.7352,12.4028 25.5806,0 46.7687,-9.8189 21.188,-10.0772 39.2754,-24.0303 z"
                 style="font-family:Candara;-inkscape-font-specification:Candara"
                 id="path446" />
              <path
                 d="m 4221.4818,-1405.9031 q -24.2887,11.6275 -46.2519,18.0873 -21.7048,6.4598 -46.2519,6.4598 -31.2653,0 -57.3627,-9.0437 -26.0975,-9.3021 -44.7016,-27.9062 -18.8625,-18.6041 -29.1982,-47.0271 -10.3356,-28.423 -10.3356,-66.4064 0,-70.799 38.7586,-111.108 39.017,-40.3089 102.8395,-40.3089 24.8055,0 48.5774,6.9766 24.0304,6.9765 43.9264,17.0537 v 54.0037 h -2.5839 q -22.2216,-17.3122 -45.9935,-26.6143 -23.5136,-9.302 -45.9935,-9.302 -41.3425,0 -65.3729,27.9062 -23.7719,27.6478 -23.7719,81.393 0,52.1949 23.2551,80.3595 23.5136,27.9062 65.8897,27.9062 14.7282,0 29.9733,-3.8759 15.245,-3.8758 27.3894,-10.0772 10.594,-5.4262 19.8961,-11.3692 9.302,-6.2014 14.7282,-10.594 h 2.5839 z"
                 style="font-family:Candara;-inkscape-font-specification:Candara"
                 id="path448" />
              <path
                 d="m 4555.5791,-1623.4681 h -2.5839 q -10.8524,-2.5839 -21.188,-3.6174 -10.0772,-1.292 -24.0303,-1.292 -22.48,0 -43.4097,10.0773 -20.9296,9.8188 -40.3089,25.5806 v 204.9038 h -48.5774 v -288.6223 h 48.5774 v 42.6344 q 28.9397,-23.2551 50.903,-32.8156 22.2215,-9.8188 45.2183,-9.8188 12.6612,0 18.3457,0.7751 5.6846,0.5168 17.0538,2.3256 z"
                 style="font-family:Candara;-inkscape-font-specification:Candara"
                 id="path450" />
              <path
                 d="m 4934.6357,-1527.0883 h -212.6555 q 0,26.6142 8.0101,46.5103 8.0101,19.6377 21.9632,32.2988 13.4363,12.4027 31.782,18.6041 18.6042,6.2014 40.8258,6.2014 29.4565,0 59.1714,-11.6276 29.9733,-11.886 42.6345,-23.2551 h 2.5839 v 52.97 q -24.5471,10.3357 -50.1278,17.3122 -25.5807,6.9766 -53.7453,6.9766 -71.8326,0 -112.1415,-38.7586 -40.3089,-39.017 -40.3089,-110.5912 0,-70.7991 38.5002,-112.4 38.7586,-41.6008 101.8059,-41.6008 58.3963,0 89.9199,34.1075 31.7821,34.1076 31.7821,96.8965 z m -47.2855,-37.2083 q -0.2584,-38.2418 -19.3793,-59.1715 -18.8625,-20.9296 -57.6211,-20.9296 -39.017,0 -62.2722,22.9968 -22.9967,22.9967 -26.0974,57.1043 z"
                 style="font-family:Candara;-inkscape-font-specification:Candara"
                 id="path452" />
              <path
                 d="m 5324.2869,-1387.8158 h -48.3191 v -30.7485 q -6.4597,4.3927 -17.5705,12.4028 -10.8524,7.7517 -21.1881,12.4027 -12.1443,5.943 -27.9062,9.8189 -15.7618,4.1342 -36.9498,4.1342 -39.017,0 -66.148,-25.839 -27.131,-25.8391 -27.131,-65.8897 0,-32.8156 13.9531,-52.97 14.2114,-20.4129 40.3089,-32.0405 26.3558,-11.6276 63.3057,-15.7618 36.9499,-4.1343 79.3259,-6.2014 v -7.4933 q 0,-16.537 -5.943,-27.3894 -5.6846,-10.8524 -16.537,-17.0538 -10.3356,-5.943 -24.8055,-8.0101 -14.4698,-2.0671 -30.2317,-2.0671 -19.1209,0 -42.6344,5.1678 -23.5136,4.9094 -48.5775,14.4699 h -2.5839 v -49.3527 q 14.2115,-3.8758 41.0841,-8.5269 26.8727,-4.651 52.9701,-4.651 30.4901,0 52.9701,5.1678 22.7384,4.9095 39.2754,17.0538 16.2786,11.886 24.8055,30.7485 8.5269,18.8625 8.5269,46.7687 z m -48.3191,-71.0574 v -80.3595 q -22.2216,1.2919 -52.4533,3.8759 -29.9733,2.5839 -47.5438,7.4933 -20.9297,5.943 -33.8492,18.6041 -12.9196,12.4028 -12.9196,34.366 0,24.8055 14.9867,37.4666 14.9867,12.4028 45.7351,12.4028 25.5807,0 46.7688,-9.8189 21.188,-10.0772 39.2753,-24.0303 z"
                 style="font-family:Candara;-inkscape-font-specification:Candara"
                 id="path454" />
              <path
                 d="m 5722.9813,-1405.9031 q -24.2887,11.6275 -46.2519,18.0873 -21.7048,6.4598 -46.2519,6.4598 -31.2653,0 -57.3627,-9.0437 -26.0975,-9.3021 -44.7016,-27.9062 -18.8625,-18.6041 -29.1981,-47.0271 -10.3357,-28.423 -10.3357,-66.4064 0,-70.799 38.7586,-111.108 39.017,-40.3089 102.8395,-40.3089 24.8055,0 48.5774,6.9766 24.0304,6.9765 43.9264,17.0537 v 54.0037 h -2.5839 q -22.2216,-17.3122 -45.9935,-26.6143 -23.5135,-9.302 -45.9935,-9.302 -41.3425,0 -65.3729,27.9062 -23.7719,27.6478 -23.7719,81.393 0,52.1949 23.2552,80.3595 23.5135,27.9062 65.8896,27.9062 14.7282,0 29.9733,-3.8759 15.245,-3.8758 27.3894,-10.0772 10.594,-5.4262 19.8961,-11.3692 9.302,-6.2014 14.7282,-10.594 h 2.5839 z"
                 style="font-family:Candara;-inkscape-font-specification:Candara"
                 id="path456" />
              <path
                 d="m 5929.1753,-1724.7572 h -54.7788 v -50.3862 h 54.7788 z m -3.1007,336.9414 h -48.5775 v -288.6223 h 48.5775 z"
                 style="font-family:Candara;-inkscape-font-specification:Candara"
                 id="path458" />
              <path
                 d="m 6359.9101,-1531.9978 q 0,70.5407 -36.1746,111.3664 -36.1747,40.8257 -96.8965,40.8257 -61.2386,0 -97.4133,-40.8257 -35.9163,-40.8257 -35.9163,-111.3664 0,-70.5406 35.9163,-111.3663 36.1747,-41.0841 97.4133,-41.0841 60.7218,0 96.8965,41.0841 36.1746,40.8257 36.1746,111.3663 z m -50.1277,0 q 0,-56.0707 -21.9632,-83.2018 -21.9632,-27.3894 -60.9802,-27.3894 -39.5338,0 -61.497,27.3894 -21.7048,27.1311 -21.7048,83.2018 0,54.2621 21.9632,82.4266 21.9632,27.9062 61.2386,27.9062 38.7586,0 60.7218,-27.6478 22.2216,-27.9062 22.2216,-82.685 z m -2.5839,-288.8807 -70.5407,96.6381 h -38.5002 l 46.2519,-96.6381 z"
                 style="font-family:Candara;-inkscape-font-specification:Candara"
                 id="path460" />
              <path
                 d="m 6768.1654,-1387.8158 h -48.5775 v -164.3364 q 0,-19.8961 -2.3255,-37.2083 -2.3255,-17.5706 -8.5269,-27.3894 -6.4597,-10.8524 -18.6041,-16.0202 -12.1444,-5.4262 -31.5237,-5.4262 -19.896,0 -41.6009,9.8188 -21.7048,9.8189 -41.6008,25.0639 v 215.4978 h -48.5775 v -288.6223 h 48.5775 v 32.0404 q 22.7383,-18.8625 47.027,-29.4565 24.2888,-10.594 49.8694,-10.594 46.7687,0 71.3159,28.1645 24.5471,28.1646 24.5471,81.1347 z"
                 style="font-family:Candara;-inkscape-font-specification:Candara"
                 id="path462" />
            </g>
          </g>
        </g>
      </g>
    </g>
  </g>
</svg>
