<?xml version="1.0" encoding="UTF-8" standalone="no"?>
<!-- Created with Inkscape (http://www.inkscape.org/) -->

<svg
   width="247.88081mm"
   height="222.75581mm"
   viewBox="0 0 247.88082 222.75582"
   version="1.1"
   id="svg8"
   inkscape:version="1.2.2 (b0a8486, 2022-12-01)"
   sodipodi:docname="logo-tacama.svg"
   xmlns:inkscape="http://www.inkscape.org/namespaces/inkscape"
   xmlns:sodipodi="http://sodipodi.sourceforge.net/DTD/sodipodi-0.dtd"
   xmlns="http://www.w3.org/2000/svg"
   xmlns:svg="http://www.w3.org/2000/svg"
   xmlns:rdf="http://www.w3.org/1999/02/22-rdf-syntax-ns#"
   xmlns:cc="http://creativecommons.org/ns#"
   xmlns:dc="http://purl.org/dc/elements/1.1/">
  <defs
     id="defs2">
    <clipPath
       clipPathUnits="userSpaceOnUse"
       id="clipPath941">
      <path
         style="fill:var(--logo-stroke-color); stroke: var(--logo-stroke-color);"
         id="path943"
         sodipodi:type="arc"
         sodipodi:cx="-128.76439"
         sodipodi:cy="63.161652"
         sodipodi:rx="30.944174"
         sodipodi:ry="30.944174"
         sodipodi:start="5.8371141"
         sodipodi:end="5.8231689"
         sodipodi:open="true"
         d="m -100.84813,49.811576 a 30.944174,30.944174 0 0 1 -14.46894,41.21962 30.944174,30.944174 0 0 1 -41.26981,-14.325146 30.944174,30.944174 0 0 1 14.18118,-41.319504 30.944174,30.944174 0 0 1 41.36869,14.037043"
         sodipodi:arc-type="arc" />
    </clipPath>
    <clipPath
       clipPathUnits="userSpaceOnUse"
       id="clipPath1053">
      <rect
         style="fill:var(--logo-stroke-color); stroke: var(--logo-stroke-color);"
         id="rect1055"
         width="119.35606"
         height="102.16486"
         x="21.120619"
         y="91.196754" />
    </clipPath>
  </defs>
  <sodipodi:namedview
     id="base"
     pagecolor="#ffffff"
     bordercolor="#666666"
     borderopacity="1.0"
     inkscape:pageopacity="0.0"
     inkscape:pageshadow="2"
     inkscape:zoom="0.53867188"
     inkscape:cx="23.205221"
     inkscape:cy="452.0377"
     inkscape:document-units="mm"
     inkscape:current-layer="layer1"
     showgrid="false"
     inkscape:window-width="1920"
     inkscape:window-height="1027"
     inkscape:window-x="0"
     inkscape:window-y="25"
     inkscape:window-maximized="0"
     showguides="false"
     inkscape:showpageshadow="2"
     inkscape:pagecheckerboard="0"
     inkscape:deskcolor="#d1d1d1" />
  <metadata
     id="metadata5">
    <rdf:RDF>
      <cc:Work
         rdf:about="">
        <dc:format>image/svg+xml</dc:format>
        <dc:type
           rdf:resource="http://purl.org/dc/dcmitype/StillImage" />
      </cc:Work>
    </rdf:RDF>
  </metadata>
  <g
     inkscape:label="Capa 1"
     inkscape:groupmode="layer"
     id="layer1"
     transform="translate(18.16285,-11.23096)">
    <text
       xml:space="preserve"
       style="fill:var(--logo-stroke-color); stroke: var(--logo-stroke-color);"
       x="9.4939461"
       y="160.35915"
       id="text857" />
    <text
       xml:space="preserve"
       style="fill:var(--logo-stroke-color); stroke: var(--logo-stroke-color);"
       x="44.8587"
       y="131.47794"
       id="text947" />
    <g
       id="g962"
       transform="matrix(1.2,0,0,1.2,-17.029627,-132.38428)">
      <g
         id="g1047">
        <g
           id="g1086"
           transform="matrix(1.5150236,0,0,1.4934034,-33.732047,89.944311)"
           style="stroke-width:0.664816">
          <g
             aria-label="T A C A M A"
             transform="matrix(0.9880796,0,0,1.0120642,-5.8610147,-6.9566745)"
             style="font-style:normal;font-variant:normal;font-weight:normal;font-stretch:normal;font-size:14.692px;line-height:37.65;font-family:Mistral;-inkscape-font-specification:'Mistral, Normal';font-variant-ligatures:normal;font-variant-caps:normal;font-variant-numeric:normal;font-feature-settings:normal;text-align:center;writing-mode:lr-tb;text-orientation:upright;text-anchor:middle;opacity:0.992327;fill:#050000;fill-opacity:1;stroke:#030003;stroke-width:1.13019;stroke-linecap:round;stroke-linejoin:bevel;stroke-miterlimit:4;stroke-dasharray:none;stroke-dashoffset:0;stroke-opacity:1;paint-order:normal"
             id="text951">
            <path
               d="m 42.828999,121.88027 h -4.810043 v 14.75295 H 35.856051 V 121.88027 H 31.06753 v -1.9154 h 11.761469 z"
               style="font-style:normal;font-variant:normal;font-weight:normal;font-stretch:normal;font-size:22.038px;font-family:'Microsoft YaHei UI';-inkscape-font-specification:'Microsoft YaHei UI';stroke-width:1.13019;stroke-miterlimit:4;stroke-dasharray:none"
               id="path964"
               inkscape:connector-curvature="0" />
            <path
               d="m 65.04989,136.63322 h -2.37812 l -1.700194,-4.56254 h -6.940665 l -1.603348,4.56254 h -2.378119 l 6.348826,-16.66835 h 2.302794 z m -4.745478,-6.44567 -2.518009,-6.9299 q -0.118368,-0.33359 -0.258258,-1.16216 h -0.0538 q -0.118368,0.75325 -0.269018,1.16216 l -2.496488,6.9299 z"
               style="font-style:normal;font-variant:normal;font-weight:normal;font-stretch:normal;font-size:22.038px;font-family:'Microsoft YaHei UI';-inkscape-font-specification:'Microsoft YaHei UI';stroke-width:1.13019;stroke-miterlimit:4;stroke-dasharray:none"
               id="path966"
               inkscape:connector-curvature="0" />
            <path
               d="m 85.398413,135.94454 q -1.840084,0.96846 -4.61635,0.96846 -3.58332,0 -5.724704,-2.27051 -2.141383,-2.28127 -2.141383,-6.026 0,-4.02451 2.410401,-6.47796 2.410402,-2.45344 6.122851,-2.45344 2.38888,0 3.949185,0.67792 v 2.24899 q -1.78628,-0.98998 -3.927664,-0.98998 -2.787027,0 -4.541024,1.8616 -1.753998,1.85085 -1.753998,5.00374 0,2.99148 1.63563,4.75624 1.63563,1.75399 4.282767,1.75399 2.474966,0 4.304289,-1.11911 z"
               style="font-style:normal;font-variant:normal;font-weight:normal;font-stretch:normal;font-size:22.038px;font-family:'Microsoft YaHei UI';-inkscape-font-specification:'Microsoft YaHei UI';stroke-width:1.13019;stroke-miterlimit:4;stroke-dasharray:none"
               id="path968"
               inkscape:connector-curvature="0" />
            <path
               d="m 108.39407,136.63322 h -2.37811 l -1.7002,-4.56254 h -6.940664 l -1.603348,4.56254 h -2.378119 l 6.348825,-16.66835 h 2.302796 z m -4.74547,-6.44567 -2.51801,-6.9299 q -0.11837,-0.33359 -0.25826,-1.16216 h -0.0538 q -0.11837,0.75325 -0.26902,1.16216 l -2.496489,6.9299 z"
               style="font-style:normal;font-variant:normal;font-weight:normal;font-stretch:normal;font-size:22.038px;font-family:'Microsoft YaHei UI';-inkscape-font-specification:'Microsoft YaHei UI';stroke-width:1.13019;stroke-miterlimit:4;stroke-dasharray:none"
               id="path970"
               inkscape:connector-curvature="0" />
            <path
               d="m 132.412,136.63322 v -11.0405 q 0,-1.36661 0.16141,-3.28202 h -0.0538 q -0.27978,1.2052 -0.49499,1.67868 l -5.49873,12.64384 h -1.19444 l -5.48797,-12.547 q -0.19369,-0.43043 -0.49499,-1.77552 h -0.0646 q 0.10761,1.16216 0.10761,3.37887 v 10.94365 h -2.0553 v -16.66835 h 2.91616 l 4.91765,11.42788 q 0.55956,1.31281 0.74249,2.04454 h 0.0753 q 0.55956,-1.53878 0.78554,-2.08758 l 5.00373,-11.38484 h 2.77627 v 16.66835 z"
               style="font-style:normal;font-variant:normal;font-weight:normal;font-stretch:normal;font-size:22.038px;font-family:'Microsoft YaHei UI';-inkscape-font-specification:'Microsoft YaHei UI';stroke-width:1.13019;stroke-miterlimit:4;stroke-dasharray:none"
               id="path972"
               inkscape:connector-curvature="0" />
            <path
               d="m 158.496,136.63322 h -2.37812 l -1.7002,-4.56254 h -6.94066 l -1.60335,4.56254 h -2.37812 l 6.34883,-16.66835 h 2.30279 z m -4.74548,-6.44567 -2.51801,-6.9299 q -0.11837,-0.33359 -0.25826,-1.16216 h -0.0538 q -0.11837,0.75325 -0.26902,1.16216 l -2.49649,6.9299 z"
               style="font-style:normal;font-variant:normal;font-weight:normal;font-stretch:normal;font-size:22.038px;font-family:'Microsoft YaHei UI';-inkscape-font-specification:'Microsoft YaHei UI';stroke-width:1.13019;stroke-miterlimit:4;stroke-dasharray:none"
               id="path974"
               inkscape:connector-curvature="0" />
          </g>
          <g
             aria-label="Pasion en cada creacion"
             transform="matrix(1.0715553,0,0,0.93322294,-3.5999544,-8.0222036)"
             style="font-style:normal;font-variant:normal;font-weight:normal;font-stretch:normal;font-size:16.2885px;line-height:37.65;font-family:'Segoe Print';-inkscape-font-specification:'Segoe Print';font-variant-ligatures:normal;font-variant-caps:normal;font-variant-numeric:normal;font-feature-settings:normal;text-align:center;writing-mode:lr-tb;text-orientation:upright;text-anchor:middle;opacity:0.992327;fill:#050000;fill-opacity:1;stroke:#030003;stroke-width:0.0664816;stroke-linecap:round;stroke-linejoin:bevel;stroke-miterlimit:4;stroke-dasharray:none;stroke-dashoffset:0;stroke-opacity:1;paint-order:normal"
             id="text955">
            <path
               d="m 24.591464,159.71662 v 3.23306 h -1.002127 v -8.55387 h 2.350226 q 1.371959,0 2.123554,0.66808 0.75756,0.66809 0.75756,1.88496 0,1.21686 -0.841071,1.99232 -0.835105,0.77545 -2.26075,0.77545 z m 0,-4.41412 v 3.50744 h 1.049847 q 1.037917,0 1.580735,-0.47124 0.548784,-0.4772 0.548784,-1.34213 0,-1.69407 -2.004254,-1.69407 z"
               style="font-style:normal;font-variant:normal;font-weight:normal;font-stretch:normal;font-size:12.2164px;font-family:'Segoe UI Emoji';-inkscape-font-specification:'Segoe UI Emoji';stroke-width:0.0664816;stroke-miterlimit:4;stroke-dasharray:none"
               id="path977"
               inkscape:connector-curvature="0" />
            <path
               d="M 34.678346,162.94968 H 33.70008 v -0.95441 h -0.02386 q -0.63826,1.09757 -1.878988,1.09757 -0.912651,0 -1.43161,-0.48317 -0.512993,-0.48317 -0.512993,-1.28248 0,-1.71197 2.016184,-1.99233 l 1.831267,-0.25649 q 0,-1.55688 -1.258624,-1.55688 -1.103532,0 -1.992323,0.7516 v -1.00213 q 0.900721,-0.57265 2.075834,-0.57265 2.153379,0 2.153379,2.27865 z m -0.978266,-3.08989 -1.473365,0.20281 q -0.680015,0.0954 -1.025987,0.34 -0.345972,0.23861 -0.345972,0.85301 0,0.44737 0.316147,0.7337 0.322112,0.28035 0.853001,0.28035 0.727734,0 1.198973,-0.50703 0.477203,-0.51299 0.477203,-1.29441 z"
               style="font-style:normal;font-variant:normal;font-weight:normal;font-stretch:normal;font-size:12.2164px;font-family:'Segoe UI Emoji';-inkscape-font-specification:'Segoe UI Emoji';stroke-width:0.0664816;stroke-miterlimit:4;stroke-dasharray:none"
               id="path979"
               inkscape:connector-curvature="0" />
            <path
               d="m 36.163641,162.72897 v -1.04985 q 0.799316,0.59054 1.759687,0.59054 1.288449,0 1.288449,-0.85896 0,-0.24457 -0.113336,-0.41159 -0.107371,-0.17299 -0.298252,-0.30422 -0.184916,-0.13123 -0.441413,-0.23264 -0.250532,-0.10737 -0.542819,-0.2207 -0.405622,-0.16106 -0.715804,-0.32211 -0.304217,-0.16702 -0.512994,-0.36984 -0.202811,-0.20877 -0.310182,-0.47123 -0.101406,-0.26247 -0.101406,-0.6144 0,-0.42949 0.196847,-0.75756 0.196846,-0.33405 0.524923,-0.55475 0.328078,-0.22667 0.74563,-0.34001 0.423518,-0.11334 0.870896,-0.11334 0.793351,0 1.41968,0.2744 v 0.99019 q -0.67405,-0.44141 -1.550911,-0.44141 -0.274392,0 -0.495098,0.0656 -0.220707,0.0597 -0.381763,0.17298 -0.155091,0.11334 -0.244566,0.27439 -0.08351,0.15509 -0.08351,0.34598 0,0.2386 0.08351,0.39965 0.08948,0.16106 0.256496,0.28633 0.167022,0.12526 0.405623,0.22667 0.238602,0.1014 0.542819,0.2207 0.405623,0.15509 0.727735,0.32212 0.322112,0.16105 0.548783,0.36983 0.226672,0.20281 0.345973,0.47124 0.125266,0.26842 0.125266,0.63826 0,0.45334 -0.202812,0.78738 -0.196846,0.33404 -0.530888,0.55475 -0.334043,0.22071 -0.769491,0.32808 -0.435447,0.10737 -0.912651,0.10737 -0.942476,0 -1.634421,-0.36387 z"
               style="font-style:normal;font-variant:normal;font-weight:normal;font-stretch:normal;font-size:12.2164px;font-family:'Segoe UI Emoji';-inkscape-font-specification:'Segoe UI Emoji';stroke-width:0.0664816;stroke-miterlimit:4;stroke-dasharray:none"
               id="path981"
               inkscape:connector-curvature="0" />
            <path
               d="m 42.212192,155.29057 q -0.262461,0 -0.447378,-0.17896 -0.184916,-0.17895 -0.184916,-0.45334 0,-0.27439 0.184916,-0.45334 0.184917,-0.18492 0.447378,-0.18492 0.268427,0 0.453344,0.18492 0.190881,0.17895 0.190881,0.45334 0,0.26246 -0.190881,0.44738 -0.184917,0.18492 -0.453344,0.18492 z m 0.477204,7.65911 h -0.978267 v -6.1082 h 0.978267 z"
               style="font-style:normal;font-variant:normal;font-weight:normal;font-stretch:normal;font-size:12.2164px;font-family:'Segoe UI Emoji';-inkscape-font-specification:'Segoe UI Emoji';stroke-width:0.0664816;stroke-miterlimit:4;stroke-dasharray:none"
               id="path983"
               inkscape:connector-curvature="0" />
            <path
               d="m 47.222826,163.09284 q -1.354064,0 -2.165309,-0.853 -0.805281,-0.85897 -0.805281,-2.27268 0,-1.53898 0.841071,-2.40391 0.841071,-0.86494 2.27268,-0.86494 1.365995,0 2.12952,0.84108 0.76949,0.84107 0.76949,2.33233 0,1.46143 -0.829141,2.34426 -0.823175,0.87686 -2.21303,0.87686 z m 0.07158,-5.57135 q -0.942476,0 -1.49126,0.64422 -0.548784,0.63826 -0.548784,1.76566 0,1.08563 0.554749,1.71196 0.554749,0.62633 1.485295,0.62633 0.948441,0 1.45547,-0.6144 0.512993,-0.6144 0.512993,-1.74775 0,-1.14529 -0.512993,-1.76566 -0.507029,-0.62036 -1.45547,-0.62036 z"
               style="font-style:normal;font-variant:normal;font-weight:normal;font-stretch:normal;font-size:12.2164px;font-family:'Segoe UI Emoji';-inkscape-font-specification:'Segoe UI Emoji';stroke-width:0.0664816;stroke-miterlimit:4;stroke-dasharray:none"
               id="path985"
               inkscape:connector-curvature="0" />
            <path
               d="m 56.89812,162.94968 h -0.978267 v -3.48359 q 0,-1.9446 -1.419679,-1.9446 -0.7337,0 -1.216868,0.55475 -0.477203,0.54878 -0.477203,1.38985 v 3.48359 h -0.978267 v -6.1082 h 0.978267 v 1.01405 h 0.02386 q 0.691944,-1.15722 2.004253,-1.15722 1.002127,0 1.533015,0.65019 0.530889,0.64423 0.530889,1.86706 z"
               style="font-style:normal;font-variant:normal;font-weight:normal;font-stretch:normal;font-size:12.2164px;font-family:'Segoe UI Emoji';-inkscape-font-specification:'Segoe UI Emoji';stroke-width:0.0664816;stroke-miterlimit:4;stroke-dasharray:none"
               id="path987"
               inkscape:connector-curvature="0" />
            <path
               d="M 66.996934,160.14014 H 62.68421 q 0.02386,1.02002 0.548784,1.57477 0.524924,0.55475 1.44354,0.55475 1.031952,0 1.896883,-0.68001 v 0.91861 q -0.805281,0.58458 -2.12952,0.58458 -1.294413,0 -2.034078,-0.82914 -0.739665,-0.83511 -0.739665,-2.34426 0,-1.42565 0.80528,-2.3204 0.811246,-0.90073 2.010219,-0.90073 1.198973,0 1.855127,0.77546 0.656154,0.77545 0.656154,2.15338 z M 65.994808,159.311 q -0.006,-0.84703 -0.411588,-1.31827 -0.399658,-0.47124 -1.115463,-0.47124 -0.691944,0 -1.175112,0.4951 -0.483169,0.4951 -0.596504,1.29441 z"
               style="font-style:normal;font-variant:normal;font-weight:normal;font-stretch:normal;font-size:12.2164px;font-family:'Segoe UI Emoji';-inkscape-font-specification:'Segoe UI Emoji';stroke-width:0.0664816;stroke-miterlimit:4;stroke-dasharray:none"
               id="path989"
               inkscape:connector-curvature="0" />
            <path
               d="m 73.552514,162.94968 h -0.978266 v -3.48359 q 0,-1.9446 -1.41968,-1.9446 -0.7337,0 -1.216868,0.55475 -0.477203,0.54878 -0.477203,1.38985 v 3.48359 H 68.48223 v -6.1082 h 0.978267 v 1.01405 h 0.02386 q 0.691944,-1.15722 2.004253,-1.15722 1.002127,0 1.533016,0.65019 0.530888,0.64423 0.530888,1.86706 z"
               style="font-style:normal;font-variant:normal;font-weight:normal;font-stretch:normal;font-size:12.2164px;font-family:'Segoe UI Emoji';-inkscape-font-specification:'Segoe UI Emoji';stroke-width:0.0664816;stroke-miterlimit:4;stroke-dasharray:none"
               id="path991"
               inkscape:connector-curvature="0" />
            <path
               d="m 82.905697,162.66932 q -0.703875,0.42352 -1.670212,0.42352 -1.306343,0 -2.111624,-0.84704 -0.799315,-0.853 -0.799315,-2.20706 0,-1.50916 0.864931,-2.42181 0.864931,-0.91862 2.30847,-0.91862 0.805281,0 1.41968,0.29826 v 1.00212 q -0.680015,-0.4772 -1.45547,-0.4772 -0.936511,0 -1.53898,0.67405 -0.596504,0.66808 -0.596504,1.75969 0,1.0737 0.560713,1.69407 0.566679,0.62036 1.515121,0.62036 0.799315,0 1.50319,-0.53089 z"
               style="font-style:normal;font-variant:normal;font-weight:normal;font-stretch:normal;font-size:12.2164px;font-family:'Segoe UI Emoji';-inkscape-font-specification:'Segoe UI Emoji';stroke-width:0.0664816;stroke-miterlimit:4;stroke-dasharray:none"
               id="path993"
               inkscape:connector-curvature="0" />
            <path
               d="m 88.769331,162.94968 h -0.978267 v -0.95441 h -0.02386 q -0.638259,1.09757 -1.878988,1.09757 -0.912651,0 -1.431609,-0.48317 -0.512994,-0.48317 -0.512994,-1.28248 0,-1.71197 2.016184,-1.99233 l 1.831267,-0.25649 q 0,-1.55688 -1.258623,-1.55688 -1.103533,0 -1.992324,0.7516 v -1.00213 q 0.900721,-0.57265 2.075834,-0.57265 2.15338,0 2.15338,2.27865 z m -0.978267,-3.08989 -1.473365,0.20281 q -0.680014,0.0954 -1.025987,0.34 -0.345972,0.23861 -0.345972,0.85301 0,0.44737 0.316147,0.7337 0.322112,0.28035 0.853001,0.28035 0.727735,0 1.198973,-0.50703 0.477203,-0.51299 0.477203,-1.29441 z"
               style="font-style:normal;font-variant:normal;font-weight:normal;font-stretch:normal;font-size:12.2164px;font-family:'Segoe UI Emoji';-inkscape-font-specification:'Segoe UI Emoji';stroke-width:0.0664816;stroke-miterlimit:4;stroke-dasharray:none"
               id="path995"
               inkscape:connector-curvature="0" />
            <path
               d="m 95.837902,162.94968 h -0.978266 v -1.03792 h -0.02386 q -0.680015,1.18108 -2.099695,1.18108 -1.151252,0 -1.843197,-0.81721 -0.68598,-0.82318 -0.68598,-2.23689 0,-1.51512 0.763526,-2.42777 0.763525,-0.91266 2.034078,-0.91266 1.258624,0 1.831268,0.9902 h 0.02386 v -3.78183 h 0.978266 z m -0.978266,-2.76182 v -0.90072 q 0,-0.73966 -0.489134,-1.25266 -0.489133,-0.51299 -1.240728,-0.51299 -0.894756,0 -1.407749,0.65615 -0.512994,0.65616 -0.512994,1.81338 0,1.05581 0.489133,1.67021 0.495099,0.60843 1.324239,0.60843 0.817211,0 1.324239,-0.59054 0.512994,-0.59054 0.512994,-1.49126 z"
               style="font-style:normal;font-variant:normal;font-weight:normal;font-stretch:normal;font-size:12.2164px;font-family:'Segoe UI Emoji';-inkscape-font-specification:'Segoe UI Emoji';stroke-width:0.0664816;stroke-miterlimit:4;stroke-dasharray:none"
               id="path997"
               inkscape:connector-curvature="0" />
            <path
               d="m 102.2026,162.94968 h -0.97826 v -0.95441 h -0.0239 q -0.63826,1.09757 -1.87899,1.09757 -0.912651,0 -1.43161,-0.48317 -0.512993,-0.48317 -0.512993,-1.28248 0,-1.71197 2.016183,-1.99233 l 1.83127,-0.25649 q 0,-1.55688 -1.258626,-1.55688 -1.103532,0 -1.992323,0.7516 v -1.00213 q 0.900721,-0.57265 2.075829,-0.57265 2.15338,0 2.15338,2.27865 z m -0.97826,-3.08989 -1.473367,0.20281 q -0.680015,0.0954 -1.025987,0.34 -0.345973,0.23861 -0.345973,0.85301 0,0.44737 0.316147,0.7337 0.322113,0.28035 0.853001,0.28035 0.727739,0 1.198969,-0.50703 0.47721,-0.51299 0.47721,-1.29441 z"
               style="font-style:normal;font-variant:normal;font-weight:normal;font-stretch:normal;font-size:12.2164px;font-family:'Segoe UI Emoji';-inkscape-font-specification:'Segoe UI Emoji';stroke-width:0.0664816;stroke-miterlimit:4;stroke-dasharray:none"
               id="path999"
               inkscape:connector-curvature="0" />
            <path
               d="m 111.56175,162.66932 q -0.70387,0.42352 -1.67021,0.42352 -1.30634,0 -2.11162,-0.84704 -0.79932,-0.853 -0.79932,-2.20706 0,-1.50916 0.86493,-2.42181 0.86493,-0.91862 2.30847,-0.91862 0.80528,0 1.41968,0.29826 v 1.00212 q -0.68001,-0.4772 -1.45547,-0.4772 -0.93651,0 -1.53898,0.67405 -0.5965,0.66808 -0.5965,1.75969 0,1.0737 0.56071,1.69407 0.56668,0.62036 1.51512,0.62036 0.79932,0 1.50319,-0.53089 z"
               style="font-style:normal;font-variant:normal;font-weight:normal;font-stretch:normal;font-size:12.2164px;font-family:'Segoe UI Emoji';-inkscape-font-specification:'Segoe UI Emoji';stroke-width:0.0664816;stroke-miterlimit:4;stroke-dasharray:none"
               id="path1001"
               inkscape:connector-curvature="0" />
            <path
               d="m 116.23834,157.83167 q -0.2565,-0.19684 -0.73967,-0.19684 -0.62632,0 -1.04984,0.59053 -0.41756,0.59054 -0.41756,1.61057 v 3.11375 h -0.97826 v -6.1082 h 0.97826 v 1.25862 h 0.0239 q 0.20878,-0.64423 0.63826,-1.00213 0.42949,-0.36387 0.96038,-0.36387 0.38176,0 0.58457,0.0835 z"
               style="font-style:normal;font-variant:normal;font-weight:normal;font-stretch:normal;font-size:12.2164px;font-family:'Segoe UI Emoji';-inkscape-font-specification:'Segoe UI Emoji';stroke-width:0.0664816;stroke-miterlimit:4;stroke-dasharray:none"
               id="path1003"
               inkscape:connector-curvature="0" />
            <path
               d="m 122.20934,160.14014 h -4.31272 q 0.0239,1.02002 0.54878,1.57477 0.52493,0.55475 1.44354,0.55475 1.03196,0 1.89689,-0.68001 v 0.91861 q -0.80528,0.58458 -2.12952,0.58458 -1.29442,0 -2.03408,-0.82914 -0.73967,-0.83511 -0.73967,-2.34426 0,-1.42565 0.80528,-2.3204 0.81125,-0.90073 2.01022,-0.90073 1.19898,0 1.85513,0.77546 0.65615,0.77545 0.65615,2.15338 z m -1.00212,-0.82914 q -0.006,-0.84703 -0.41159,-1.31827 -0.39966,-0.47124 -1.11546,-0.47124 -0.69195,0 -1.17512,0.4951 -0.48316,0.4951 -0.5965,1.29441 z"
               style="font-style:normal;font-variant:normal;font-weight:normal;font-stretch:normal;font-size:12.2164px;font-family:'Segoe UI Emoji';-inkscape-font-specification:'Segoe UI Emoji';stroke-width:0.0664816;stroke-miterlimit:4;stroke-dasharray:none"
               id="path1005"
               inkscape:connector-curvature="0" />
            <path
               d="m 128.06701,162.94968 h -0.97826 v -0.95441 h -0.0239 q -0.63826,1.09757 -1.87899,1.09757 -0.91265,0 -1.43161,-0.48317 -0.51299,-0.48317 -0.51299,-1.28248 0,-1.71197 2.01618,-1.99233 l 1.83127,-0.25649 q 0,-1.55688 -1.25863,-1.55688 -1.10353,0 -1.99232,0.7516 v -1.00213 q 0.90072,-0.57265 2.07583,-0.57265 2.15338,0 2.15338,2.27865 z m -0.97826,-3.08989 -1.47337,0.20281 q -0.68001,0.0954 -1.02598,0.34 -0.34598,0.23861 -0.34598,0.85301 0,0.44737 0.31615,0.7337 0.32211,0.28035 0.853,0.28035 0.72774,0 1.19897,-0.50703 0.47721,-0.51299 0.47721,-1.29441 z"
               style="font-style:normal;font-variant:normal;font-weight:normal;font-stretch:normal;font-size:12.2164px;font-family:'Segoe UI Emoji';-inkscape-font-specification:'Segoe UI Emoji';stroke-width:0.0664816;stroke-miterlimit:4;stroke-dasharray:none"
               id="path1007"
               inkscape:connector-curvature="0" />
            <path
               d="m 134.08574,162.66932 q -0.70388,0.42352 -1.67021,0.42352 -1.30635,0 -2.11163,-0.84704 -0.79931,-0.853 -0.79931,-2.20706 0,-1.50916 0.86493,-2.42181 0.86493,-0.91862 2.30847,-0.91862 0.80528,0 1.41968,0.29826 v 1.00212 q -0.68002,-0.4772 -1.45547,-0.4772 -0.93651,0 -1.53898,0.67405 -0.59651,0.66808 -0.59651,1.75969 0,1.0737 0.56072,1.69407 0.56668,0.62036 1.51512,0.62036 0.79931,0 1.50319,-0.53089 z"
               style="font-style:normal;font-variant:normal;font-weight:normal;font-stretch:normal;font-size:12.2164px;font-family:'Segoe UI Emoji';-inkscape-font-specification:'Segoe UI Emoji';stroke-width:0.0664816;stroke-miterlimit:4;stroke-dasharray:none"
               id="path1009"
               inkscape:connector-curvature="0" />
            <path
               d="m 136.07807,155.29057 q -0.26247,0 -0.44738,-0.17896 -0.18492,-0.17895 -0.18492,-0.45334 0,-0.27439 0.18492,-0.45334 0.18491,-0.18492 0.44738,-0.18492 0.26842,0 0.45334,0.18492 0.19088,0.17895 0.19088,0.45334 0,0.26246 -0.19088,0.44738 -0.18492,0.18492 -0.45334,0.18492 z m 0.4772,7.65911 H 135.577 v -6.1082 h 0.97827 z"
               style="font-style:normal;font-variant:normal;font-weight:normal;font-stretch:normal;font-size:12.2164px;font-family:'Segoe UI Emoji';-inkscape-font-specification:'Segoe UI Emoji';stroke-width:0.0664816;stroke-miterlimit:4;stroke-dasharray:none"
               id="path1011"
               inkscape:connector-curvature="0" />
            <path
               d="m 141.0887,163.09284 q -1.35407,0 -2.16531,-0.853 -0.80528,-0.85897 -0.80528,-2.27268 0,-1.53898 0.84107,-2.40391 0.84107,-0.86494 2.27268,-0.86494 1.36599,0 2.12952,0.84108 0.76949,0.84107 0.76949,2.33233 0,1.46143 -0.82914,2.34426 -0.82318,0.87686 -2.21303,0.87686 z m 0.0716,-5.57135 q -0.94248,0 -1.49126,0.64422 -0.54879,0.63826 -0.54879,1.76566 0,1.08563 0.55475,1.71196 0.55475,0.62633 1.4853,0.62633 0.94844,0 1.45547,-0.6144 0.51299,-0.6144 0.51299,-1.74775 0,-1.14529 -0.51299,-1.76566 -0.50703,-0.62036 -1.45547,-0.62036 z"
               style="font-style:normal;font-variant:normal;font-weight:normal;font-stretch:normal;font-size:12.2164px;font-family:'Segoe UI Emoji';-inkscape-font-specification:'Segoe UI Emoji';stroke-width:0.0664816;stroke-miterlimit:4;stroke-dasharray:none"
               id="path1013"
               inkscape:connector-curvature="0" />
            <path
               d="m 150.76399,162.94968 h -0.97826 v -3.48359 q 0,-1.9446 -1.41968,-1.9446 -0.7337,0 -1.21687,0.55475 -0.4772,0.54878 -0.4772,1.38985 v 3.48359 h -0.97827 v -6.1082 h 0.97827 v 1.01405 h 0.0239 q 0.69194,-1.15722 2.00425,-1.15722 1.00213,0 1.53301,0.65019 0.53089,0.64423 0.53089,1.86706 z"
               style="font-style:normal;font-variant:normal;font-weight:normal;font-stretch:normal;font-size:12.2164px;font-family:'Segoe UI Emoji';-inkscape-font-specification:'Segoe UI Emoji';stroke-width:0.0664816;stroke-miterlimit:4;stroke-dasharray:none"
               id="path1015"
               inkscape:connector-curvature="0" />
          </g>
          <path
             transform="translate(7.3492711,-82.644174)"
             clip-path="url(#clipPath1053)"
             inkscape:connector-curvature="0"
             id="path1049"
             d="m 31.677723,241.20488 c -1.340324,-1.47306 -0.458991,-2.97422 1.746183,-2.97422 0.483535,0 0.854054,-0.26758 0.854054,-0.61682 0,-0.68735 -1.460794,-0.8488 -1.860467,-0.20559 -0.388325,0.62494 -1.033593,0.49107 -1.033593,-0.21442 0,-0.3441 0.457497,-0.83297 1.016659,-1.08636 0.814131,-0.36895 1.225923,-0.32434 2.067185,0.22391 0.910993,0.59369 1.050528,0.98036 1.050528,2.91125 0,1.85021 -0.122314,2.22494 -0.723516,2.21671 -0.397933,-0.005 -1.102923,0.10992 -1.566646,0.25647 -0.558744,0.17653 -1.081688,0.003 -1.550387,-0.51093 z m 2.600237,-1.32936 c 0.502025,-0.933 0.177471,-1.02553 -1.444992,-0.41198 -0.596967,0.22574 -0.970188,0.59581 -0.829393,0.82241 0.436082,0.70179 1.809256,0.45399 2.274385,-0.41043 z m 2.979137,1.4111 c -0.50918,-0.35472 -0.808649,-0.83347 -0.665484,-1.06386 0.174189,-0.28033 0.408983,-0.27103 0.709759,0.0281 0.557725,0.55473 1.804621,0.58289 2.136822,0.0483 0.136283,-0.21931 -0.410878,-0.67249 -1.215915,-1.00704 -1.12605,-0.46795 -1.463696,-0.84691 -1.463696,-1.64282 0,-1.37046 1.382905,-2.14064 2.739638,-1.5258 0.539712,0.24459 0.981296,0.72623 0.981296,1.07033 0,0.75706 -0.183852,0.77521 -1.235602,0.12195 -0.635134,-0.39453 -0.919562,-0.39569 -1.311963,-0.005 -0.392399,0.3903 -0.213479,0.59803 0.825282,0.95819 1.867713,0.64757 2.388743,1.76653 1.318322,2.8312 -1.005881,1.00044 -1.594603,1.03949 -2.818459,0.18689 z m 7.683493,0.21006 c -1.503554,-0.87183 -1.303061,-5.32207 0.23977,-5.32207 0.321312,0 0.700937,-0.4626 0.843612,-1.02803 0.142674,-0.56541 0.534943,-1.02803 0.871697,-1.02803 0.720475,0 0.792972,0.47823 0.16689,1.10094 -0.318223,0.31649 -0.127963,0.75868 0.666354,1.54873 0.902409,0.89754 1.06319,1.34719 0.853913,2.38796 -0.469441,2.33454 -1.979267,3.30477 -3.64224,2.3405 z m 2.36064,-2.64919 c 0,-1.39057 -0.14319,-1.66508 -0.926235,-1.77572 -0.654397,-0.0926 -1.061228,0.16381 -1.386206,0.87318 -0.626969,1.36867 0.155402,2.85282 1.410179,2.67512 0.755608,-0.107 0.902262,-0.3951 0.902262,-1.77258 z m 11.874951,2.44394 c -1.351043,-0.94122 -1.314142,-4.01783 0.05892,-4.91265 1.28599,-0.83807 3.032733,-0.22135 3.390678,1.19717 0.372363,1.47562 -0.06493,1.88836 -2.000833,1.88836 -1.628744,0 -1.680796,0.0369 -1.002511,0.71157 0.59217,0.58899 0.855773,0.6244 1.53002,0.20562 1.049666,-0.65202 1.239232,-0.63727 1.239232,0.0964 0,0.56836 -1.186374,1.4537 -1.948013,1.4537 -0.191744,0 -0.762117,-0.28807 -1.267492,-0.64015 z m 2.316602,-3.71984 c -0.423082,-0.42082 -0.978239,-0.55945 -1.535618,-0.3835 -1.393752,0.43997 -1.010747,1.04257 0.662647,1.04257 1.408759,0 1.480879,-0.0544 0.872971,-0.65907 z m 11.648266,3.53756 c -1.185951,-1.17956 -1.133713,-3.85172 0.09201,-4.70561 1.186608,-0.82666 1.676938,-0.80656 2.822044,0.1157 0.566151,0.45598 0.814062,0.956 0.624905,1.26041 -0.236086,0.37994 -0.513658,0.32447 -1.123568,-0.22452 -1.065435,-0.959 -2.208657,-0.29008 -2.208657,1.29237 0,1.5615 1.141725,2.25271 2.178893,1.31914 0.953466,-0.85823 1.335317,-0.88935 1.335317,-0.10887 0,0.65617 -1.537395,1.87377 -2.365897,1.87377 -0.290486,0 -0.900249,-0.3701 -1.35503,-0.82243 z m 5.271322,0.38943 c -0.830722,-0.49406 -0.958067,-2.04772 -0.227387,-2.77445 0.272861,-0.2714 0.913045,-0.49347 1.422637,-0.49347 0.509575,0 1.042279,-0.18634 1.183821,-0.41411 0.374613,-0.60287 -1.006409,-1.01282 -1.559312,-0.4629 -0.652114,0.64858 -1.129834,0.58101 -1.129834,-0.15985 0,-0.96109 1.77475,-1.615 2.841756,-1.04703 0.745767,0.39696 0.87917,0.8402 0.87917,2.92078 0,1.68509 -0.161741,2.45454 -0.516796,2.45839 -0.28424,0.003 -0.888887,0.095 -1.343665,0.20427 -0.454791,0.10921 -1.152463,0.005 -1.55039,-0.23165 z m 2.178835,-1.42741 c 0.694068,-0.83179 0.332337,-1.11878 -0.993088,-0.7879 -1.079714,0.26953 -1.328642,0.62144 -0.806758,1.14053 0.463437,0.46095 1.249494,0.30696 1.799846,-0.35263 z m 3.337426,1.07598 c -1.870211,-1.86012 -0.468731,-5.78679 1.858083,-5.20595 0.856936,0.21394 0.997768,0.10281 0.997768,-0.78677 0,-0.56973 0.186048,-1.03588 0.413434,-1.03588 0.245006,0 0.413434,1.50779 0.413434,3.70091 0,2.68358 -0.142111,3.70244 -0.516802,3.70651 -0.284222,0.003 -0.918199,0.1127 -1.408797,0.24362 -0.590721,0.1576 -1.184198,-0.0525 -1.75712,-0.62244 z m 2.775341,-2.16194 c 0.103233,-1.23098 -0.03307,-1.55739 -0.743344,-1.78162 -0.966956,-0.30522 -2.070216,0.39291 -2.070216,1.31007 0,1.2048 0.873468,2.23553 1.785093,2.10641 0.711107,-0.10064 0.928997,-0.44703 1.028467,-1.63486 z m 2.829478,2.3321 c -1.393942,-1.38642 -0.418069,-3.08665 1.771659,-3.08665 0.469723,0 0.85404,-0.19083 0.85404,-0.42409 0,-0.6558 -1.240138,-0.97417 -1.764212,-0.45292 -0.645236,0.64177 -1.129841,0.5832 -1.129841,-0.13658 0,-0.59917 1.199193,-1.45371 2.040013,-1.45371 0.242353,0 0.812701,0.37009 1.267491,0.82242 1.127509,1.12145 1.207242,4.93157 0.10334,4.94012 -0.397955,0.003 -1.114396,0.11004 -1.592123,0.23755 -0.521032,0.13918 -1.141422,-0.0394 -1.550389,-0.4462 z m 2.483048,-1.25392 c 0.134698,-0.34901 0.154678,-0.72426 0.04439,-0.83394 -0.367892,-0.36589 -2.436018,0.63819 -2.176091,1.0565 0.396722,0.63846 1.85841,0.48585 2.131727,-0.22256 z m 6.022787,1.22804 c -0.712076,-0.49605 -0.918874,-1.0461 -0.918874,-2.44394 0,-1.39786 0.206798,-1.94788 0.918874,-2.44395 1.186626,-0.82666 1.676931,-0.80656 2.822044,0.1157 0.56616,0.45598 0.81407,0.956 0.62491,1.26041 -0.23608,0.37994 -0.51365,0.32447 -1.12356,-0.22452 -1.065445,-0.959 -2.208675,-0.29008 -2.208675,1.29237 0,1.5615 1.141715,2.25271 2.178905,1.31914 1.46703,-1.32051 1.92682,-0.46822 0.50844,0.94251 -0.99511,0.98976 -1.587691,1.0283 -2.802064,0.18228 z m 8.856944,0.0243 c -1.55107,-1.54273 -1.12484,-4.82203 0.68805,-5.29355 1.35741,-0.35306 2.76612,0.77649 2.76612,2.21796 0,1.15404 -0.0947,1.22416 -1.65374,1.22416 -0.90957,0 -1.65376,0.19084 -1.65376,0.4241 0,0.69297 1.29141,0.97562 2.11635,0.46322 0.89171,-0.55389 1.19363,-0.59662 1.18482,-0.16777 -0.0279,1.35798 -2.42821,2.14594 -3.44784,1.13181 z m 2.62731,-3.46857 c 0,-0.49975 -1.52509,-0.97776 -2.0635,-0.6468 -0.8183,0.503 -0.397,1.0303 0.82317,1.0303 0.68217,0 1.24033,-0.17258 1.24033,-0.3835 z m 2.33796,3.3324 c -0.37631,-0.41361 -0.68422,-0.95553 -0.68422,-1.20426 0,-0.78134 1.25838,-1.74464 2.27903,-1.74464 0.53882,0 1.09545,-0.18636 1.23698,-0.41411 0.41157,-0.66235 -1.06635,-0.99812 -1.9573,-0.44472 -0.95657,0.59419 -1.26572,0.41584 -0.90405,-0.52156 0.26089,-0.67619 0.91132,-0.87191 2.42806,-0.73064 1.14343,0.10648 1.45151,0.78033 1.45876,3.19045 0.007,2.03319 -0.0393,2.1165 -1.28565,2.36447 -1.78244,0.35455 -1.80202,0.35078 -2.57161,-0.49499 z m 2.63157,-1.10841 c 0.28763,-0.34469 0.42538,-0.72379 0.30613,-0.84243 -0.41469,-0.41244 -2.38159,0.32834 -2.38159,0.89695 0,0.76706 1.42109,0.72973 2.07546,-0.0546 z m 3.39119,1.22027 c -0.71208,-0.49606 -0.91885,-1.0461 -0.91885,-2.44394 0,-1.39786 0.20677,-1.9479 0.91885,-2.44396 1.21824,-0.84869 1.80696,-0.80747 2.81715,0.19729 1.0492,1.04356 0.64045,1.97522 -0.43993,1.00276 -1.19701,-1.07745 -2.54766,-0.436 -2.38941,1.13477 0.17034,1.69144 1.26216,2.3677 2.30581,1.42828 1.46705,-1.32051 1.92681,-0.46822 0.50846,0.9425 -0.99512,0.98975 -1.58769,1.02831 -2.80208,0.1823 z m 7.53798,-0.20274 c -1.03364,-1.13603 -1.01222,-3.57747 0.0394,-4.47311 0.4434,-0.37772 1.0122,-1.0478 1.26394,-1.48908 0.25178,-0.44128 0.80991,-0.87011 1.24033,-0.95293 0.74802,-0.144 0.75062,-0.11525 0.0592,0.64918 -0.88908,0.98282 -0.91487,1.35187 -0.0946,1.35187 1.62947,0 1.80374,4.49091 0.20724,5.34072 -1.1648,0.62004 -1.86276,0.51036 -2.71534,-0.42665 z m 2.73396,-1.2652 c 0.68662,-1.27606 -0.13848,-2.92656 -1.37565,-2.75173 -1.61842,0.22867 -1.54362,3.62616 0.0797,3.62616 0.45392,0 1.03704,-0.3935 1.29584,-0.87443 z m -102.886592,-1.90128 0.119454,-3.59809 1.734444,-0.12541 c 4.156159,-0.30035 4.751306,4.18006 0.628313,4.7301 -1.588497,0.2119 -1.742601,0.33678 -1.742601,1.41195 0,0.64872 -0.19329,1.1795 -0.429533,1.1795 -0.273462,0 -0.386128,-1.30738 -0.310077,-3.5981 z m 4.013208,-0.86222 c 0.55846,-1.03787 -0.190531,-1.70783 -1.909255,-1.70783 -1.240313,0 -1.364343,0.11211 -1.364343,1.23361 0,1.13334 0.116457,1.23365 1.432486,1.23365 0.969736,0 1.564483,-0.24533 1.841112,-0.75943 z m 12.437013,1.78745 c 0,-1.50778 0.180218,-2.67287 0.413436,-2.67287 0.233222,0 0.413438,1.16509 0.413438,2.67287 0,1.50776 -0.180216,2.67287 -0.413438,2.67287 -0.233218,0 -0.413436,-1.16511 -0.413436,-2.67287 z m 8.137819,2.40557 c -0.155385,-0.1545 -0.282514,-1.33941 -0.282514,-2.63305 0,-2.3309 0.01189,-2.35378 1.32089,-2.54487 0.726492,-0.10614 1.655675,-0.1057 2.064853,5.6e-4 1.369276,0.35615 2.118689,4.92903 0.874528,5.33631 -0.332168,0.10865 -0.535547,-0.55497 -0.620156,-2.02384 -0.116577,-2.02396 -0.202428,-2.18578 -1.159492,-2.18578 -0.930197,0 -1.046542,0.18511 -1.163052,1.85043 -0.131374,1.87793 -0.522676,2.7096 -1.035057,2.19999 z m 14.187786,-2.40557 c 0,-1.86115 0.156948,-2.67457 0.516792,-2.67849 0.28424,-0.003 0.918201,-0.11269 1.408808,-0.24363 1.49761,-0.3996 2.622208,1.11816 2.622208,3.53895 0,1.13082 -0.186047,2.05604 -0.413441,2.05604 -0.227387,0 -0.413433,-0.70482 -0.413433,-1.56625 0,-2.03991 -0.7996,-3.15162 -1.995331,-2.77417 -0.762664,0.24077 -0.89873,0.59083 -0.89873,2.31207 0,1.1156 -0.186046,2.02835 -0.413432,2.02835 -0.233223,0 -0.413441,-1.16511 -0.413441,-2.67287 z m 38.725306,2.39873 c -0.3446,-0.34273 -0.36248,-3.54565 -0.0246,-4.42117 0.14882,-0.38572 0.73776,-0.65043 1.44702,-0.65043 1.36921,0 1.59899,0.6398 0.36922,1.02803 -0.67966,0.21454 -0.82689,0.62217 -0.82689,2.28936 0,1.88598 -0.29424,2.42103 -0.96468,1.75421 z m 19.83372,-0.0108 c -0.14538,-0.14469 -0.26439,-1.34237 -0.26439,-2.6617 0,-1.85805 0.13987,-2.39871 0.62017,-2.39871 0.48165,0 0.62017,0.54559 0.62017,2.44298 0,2.28174 -0.35534,3.2347 -0.97595,2.61743 z m 8.00437,-2.38755 c 0,-1.86116 0.15691,-2.67458 0.51679,-2.67849 0.28424,-0.003 0.91819,-0.11258 1.40881,-0.24362 1.49761,-0.3996 2.6222,1.11816 2.6222,3.53892 0,1.13085 -0.18605,2.05606 -0.41344,2.05606 -0.2274,0 -0.41343,-0.70481 -0.41343,-1.56625 0,-2.03992 -0.79961,-3.15161 -1.99532,-2.77415 -0.76267,0.24076 -0.89874,0.59082 -0.89874,2.31205 0,1.11561 -0.18606,2.02835 -0.41344,2.02835 -0.23321,0 -0.41343,-1.16509 -0.41343,-2.67287 z m -88.889001,-4.11296 c 0,-0.37694 0.200001,-0.61902 0.444444,-0.53798 0.244446,0.0809 0.444445,0.32314 0.444445,0.53798 0,0.21487 -0.199999,0.45696 -0.444445,0.53801 -0.244443,0.0809 -0.444444,-0.16105 -0.444444,-0.53801 z m 80.620241,0 c 0,-0.33923 0.27908,-0.61682 0.62017,-0.61682 0.34108,0 0.62017,0.27759 0.62017,0.61682 0,0.33926 -0.27909,0.61683 -0.62017,0.61683 -0.34109,0 -0.62017,-0.27757 -0.62017,-0.61683 z m -57.416993,-7.17747 c -3.476558,-0.86501 -5.094661,-3.28902 -5.34155,-8.00195 -0.213992,-4.08498 0.360722,-6.35103 2.019953,-7.96448 2.354495,-2.28956 7.396203,-2.77586 10.441112,-1.00712 1.671832,0.97113 3.165644,3.17925 3.165644,4.67937 0,1.14603 -0.05135,1.17283 -2.251342,1.17283 -2.043632,0 -2.301198,-0.10356 -2.791666,-1.12127 -1.030581,-2.13865 -4.526524,-2.3229 -5.307543,-0.27973 -0.527338,1.37953 -0.511211,6.1807 0.0241,7.17556 1.092328,2.03004 4.109585,1.9998 5.176291,-0.0519 0.573704,-1.10346 0.804625,-1.19938 2.886873,-1.19938 2.213062,0 2.263291,0.026 2.263291,1.17281 0,1.57903 -1.538235,3.73227 -3.307501,4.62993 -1.75376,0.88977 -5.076036,1.26843 -6.977665,0.79529 z m -35.606362,-6.80332 v -6.78497 h -2.480623 -2.480623 v -2.06554 -2.06555 l 7.338509,0.11235 7.33851,0.11235 v 1.85047 1.85044 l -2.480623,0.20559 -2.480623,0.20561 -0.113602,6.68218 -0.113602,6.68217 h -2.263655 -2.263662 z m 10.335929,6.06989 c 0,-0.39329 1.332263,-4.37176 2.960585,-8.84103 l 2.96059,-8.12593 h 2.641909 2.641908 l 0.626263,1.49077 c 1.297703,3.08913 5.533103,15.0287 5.533103,15.59784 0,0.43825 -0.542349,0.59345 -2.073875,0.59345 -1.963082,0 -2.110736,-0.0768 -2.763915,-1.43925 l -0.690039,-1.43923 h -3.225374 -3.225376 l -0.604607,1.43923 c -0.577841,1.37551 -0.697071,1.43925 -2.69289,1.43925 -1.708177,0 -2.088282,-0.13023 -2.088282,-0.7151 z m 9.800746,-8.94835 c -0.480546,-1.47009 -0.985082,-2.67288 -1.121188,-2.67288 -0.13611,0 -0.592889,0.97149 -1.015067,2.15886 -0.422179,1.18736 -0.850929,2.39017 -0.952779,2.67287 -0.132355,0.36738 0.406467,0.514 1.888784,0.514 h 2.073967 z m 28.235473,8.97116 c 0,-0.67348 5.091261,-14.83162 5.850737,-16.27014 0.566005,-1.07211 5.111427,-1.03842 5.692894,0.0422 0.734703,1.36544 5.820732,15.56676 5.820732,16.25279 0,0.52773 -0.437244,0.66747 -2.088303,0.66747 -1.995806,0 -2.115042,-0.0638 -2.692888,-1.43924 l -0.604595,-1.43923 h -3.296402 -3.29639 l -0.604601,1.43923 c -0.577845,1.37549 -0.697081,1.43924 -2.692906,1.43924 -1.681813,0 -2.088278,-0.1347 -2.088278,-0.69228 z m 10.640061,-6.81231 c -0.10864,-0.2827 -0.544453,-1.48551 -0.968156,-2.67287 -0.423697,-1.18737 -0.878774,-2.15886 -1.011264,-2.15886 -0.132445,0 -0.566777,0.97149 -0.965064,2.15886 -0.398281,1.18736 -0.81986,2.39017 -0.936832,2.67287 -0.153973,0.37236 0.378708,0.514 1.933226,0.514 1.546531,0 2.090629,-0.14347 1.94809,-0.514 z m 10.44524,-1.33645 v -8.84101 h 2.002146 2.00216 l 2.17583,3.9065 c 1.19673,2.14857 2.24077,3.9065 2.32011,3.9065 0.0794,0 1.1295,-1.76425 2.33364,-3.92053 l 2.18939,-3.92053 2.06717,0.11677 2.06718,0.1168 0.11748,7.813 c 0.0646,4.29716 0.0138,8.22936 -0.1113,8.73823 -0.199,0.80522 -0.49575,0.92522 -2.28796,0.92522 h -2.05932 l -0.007,-4.83172 -0.007,-4.83173 -1.22471,2.20981 c -1.68392,3.03836 -2.0469,3.40152 -3.25806,3.25952 -0.78476,-0.0919 -1.37516,-0.6851 -2.30929,-2.31984 l -1.25499,-2.19624 -0.10366,3.42988 c -0.15898,5.2623 -0.16794,5.28032 -2.59154,5.28032 h -2.059315 z m 20.686656,8.12142 c 0.009,-0.39579 1.35698,-4.32799 2.99742,-8.73822 l 2.98262,-8.01861 2.7136,-0.11989 2.71361,-0.11989 2.97708,8.13846 c 1.6374,4.47615 2.97441,8.46228 2.97116,8.85807 -0.005,0.58958 -0.38326,0.71961 -2.09421,0.71961 -1.99582,0 -2.11505,-0.0638 -2.6929,-1.43923 l -0.6046,-1.43923 h -3.22538 -3.22538 l -0.69002,1.43923 c -0.65319,1.36235 -0.80085,1.43923 -2.76393,1.43923 -1.70512,0 -2.07125,-0.12797 -2.05907,-0.71961 z m 10.63231,-6.78497 c -0.10496,-0.2827 -0.51186,-1.48551 -0.90433,-2.67287 -0.39248,-1.18737 -0.84678,-2.15886 -1.00954,-2.15886 -0.16277,0 -0.68908,1.20279 -1.16964,2.67288 l -0.8737,2.67285 h 2.07397 c 1.48527,0 2.01983,-0.14588 1.88324,-0.514 z M 71.280585,185.7463 c -12.595465,-1.02925 -21.959148,-3.69867 -25.279516,-7.20675 -4.211275,-4.44935 -6.650697,-15.16496 -7.052808,-30.98082 -0.325633,-12.80776 0.755599,-22.95192 3.24211,-30.4176 1.907197,-5.72629 3.404789,-7.67717 7.454084,-9.71025 12.948208,-6.50103 48.928729,-6.50103 61.876935,0 4.04928,2.03308 5.54691,3.98396 7.45409,9.71025 2.48651,7.46568 3.56775,17.60984 3.2421,30.4176 -0.4021,15.81586 -2.84154,26.53147 -7.0528,30.98082 -2.74874,2.90412 -9.02335,5.08905 -18.537625,6.45507 -4.522271,0.6493 -20.720712,1.12967 -25.34657,0.75168 z m 15.561579,-7.78958 c 16.407256,-3.07793 28.077856,-16.95473 28.158906,-33.48207 0.0503,-10.23523 -3.44252,-18.25369 -11.08538,-25.44933 -2.81541,-2.65066 -4.385052,-3.74209 -7.747009,-5.38678 -6.086416,-2.9775 -8.413129,-3.49998 -15.585767,-3.49998 -7.172627,0 -9.499323,0.52248 -15.585745,3.49998 -3.361959,1.64469 -4.931606,2.73612 -7.747006,5.38678 -7.642851,7.19564 -11.135593,15.2141 -11.085393,25.44933 0.104741,21.35607 19.632861,37.42989 40.677394,33.48207 z M 67.895947,156.68209 c -6.033241,-6.00076 -6.744573,-6.85358 -6.744573,-8.08607 0,-1.24607 0.87971,-2.25749 9.198973,-10.57638 10.778334,-10.77782 10.634222,-10.69061 15.762088,-9.53679 1.847668,0.41574 3.574342,0.76064 3.837075,0.76644 0.262716,0.006 1.285967,-0.66513 2.273894,-1.49099 0.987928,-0.82584 2.603449,-1.85952 3.590076,-2.29707 4.75014,-2.10653 5.5985,1.87279 1.473236,6.91026 l -1.810948,2.21136 0.863093,3.72834 c 0.503102,2.17329 0.747737,4.19331 0.586536,4.84312 -0.174308,0.70268 -3.814578,4.6487 -9.848225,10.67539 -8.812187,8.802 -9.685382,9.56065 -11.00417,9.56065 -1.30017,0 -2.055391,-0.61958 -8.177055,-6.70826 z m 18.590368,-3.9009 c 6.381374,-6.36895 9.393784,-9.65748 9.393784,-10.25474 0,-0.89405 -1.192816,-6.36583 -1.441658,-6.61334 -0.07489,-0.0746 -0.897481,0.36558 -1.827914,0.97798 -1.163165,0.76562 -1.691667,1.40826 -1.691667,2.05701 0,0.53438 -0.482165,1.32076 -1.111844,1.8134 -0.906583,0.70929 -1.574464,0.84766 -3.61758,0.74947 l -2.505742,-0.12041 -0.11936,-2.8808 c -0.132468,-3.1966 0.280076,-4.11079 2.046197,-4.53379 0.908724,-0.21766 1.401716,0.0279 2.836672,1.41297 l 1.736763,1.6764 1.219071,-0.71585 c 2.010469,-1.18061 2.782833,-2.23568 2.387841,-3.26195 -0.530349,-1.37802 -1.856624,-2.01385 -6.679605,-3.20221 -4.176269,-1.02902 -4.506224,-1.05397 -5.808543,-0.43931 -1.911016,0.90194 -18.910977,17.93908 -18.910977,18.95232 0,1.10546 12.743816,13.75837 13.857201,13.75837 0.549864,0 4.114623,-3.26463 10.237428,-9.37552 z m -13.758707,2.27283 c -0.568474,-0.28116 -1.382843,-1.22103 -1.809708,-2.08863 -0.751095,-1.52655 -0.752541,-1.67897 -0.04506,-4.72567 0.402075,-1.73155 0.897415,-3.47208 1.10075,-3.86786 0.495792,-0.96508 1.866182,-0.91261 2.499274,0.0958 0.490307,0.78088 0.584251,0.74473 2.223718,-0.85562 1.644306,-1.60509 1.787346,-1.65968 3.629044,-1.385 1.67478,0.2498 2.00567,0.47133 2.616462,1.75151 0.384548,0.80603 0.731261,1.75631 0.770415,2.1117 0.03937,0.35538 0.207981,0.96951 0.375108,1.3647 0.229735,0.54319 -0.43814,1.48085 -2.737365,3.84314 -4.157075,4.27113 -5.977674,5.06418 -8.622618,3.75605 z m 7.028433,-4.20561 c 1.922777,-1.92241 3.299934,-3.49529 3.060375,-3.49529 -0.239587,0 -0.872567,0.46263 -1.406616,1.02803 -0.534051,0.56542 -1.124627,1.02803 -1.312375,1.02803 -0.733678,0 -0.282031,-1.13633 0.898923,-2.26166 0.682178,-0.65005 1.24033,-1.36989 1.24033,-1.59963 0,-0.22974 -0.70553,0.26749 -1.567829,1.10496 -1.472268,1.42988 -2.566553,1.93938 -2.566553,1.19495 0,-0.18027 0.744176,-1.05054 1.653745,-1.93391 0.909563,-0.88338 1.653759,-1.79216 1.653759,-2.01952 0,-0.22735 -0.797753,0.36533 -1.772753,1.31709 -1.653294,1.61383 -2.775064,2.17821 -2.775064,1.39617 0,-0.18383 0.558146,-0.86613 1.240313,-1.51616 0.68217,-0.65005 1.240317,-1.37279 1.240317,-1.60611 0,-0.2333 -1.075167,0.63402 -2.389265,1.92739 -1.314084,1.29337 -2.616416,2.35158 -2.894053,2.35158 -0.306496,0 -0.504806,-0.59771 -0.504806,-1.52147 0,-2.29182 -0.698886,-1.1935 -1.424899,2.23924 -0.891689,4.21611 -0.102051,5.81925 2.881052,5.84912 1.025497,0.0108 1.876014,-0.61397 4.745399,-3.48281 z m 9.426383,-10.97932 c 0.829076,-0.82462 0.560918,-1.14371 -0.743169,-0.88432 -0.732382,0.14574 -1.491504,0.0384 -1.855926,-0.26246 -0.918029,-0.7578 -0.357849,-1.24096 1.147416,-0.98967 1.200133,0.20037 1.258135,0.16501 0.604128,-0.36718 -0.397938,-0.32388 -0.723522,-0.77713 -0.723522,-1.0072 0,-0.75469 -1.18341,-1.41484 -2.047347,-1.14211 -0.727972,0.2298 -0.846718,0.60938 -0.846718,2.70684 v 2.43954 h 1.984507 c 1.091487,0 2.207759,-0.22203 2.480631,-0.49344 z m 8.386604,-9.9722 c 2.107033,-3.65361 1.337181,-4.72096 -2.073421,-2.87467 -1.142881,0.61867 -2.36135,1.43633 -2.707713,1.817 -0.571953,0.6286 -0.487376,0.84425 0.92115,2.34906 1.802296,1.92553 2.053222,1.84157 3.859984,-1.29139 z"
             style="fill:#000000;stroke-width:0.664816" />
        </g>
      </g>
    </g>
    <text
       xml:space="preserve"
       style="font-style:normal;font-variant:normal;font-weight:normal;font-stretch:normal;font-size:20.32px;line-height:37.65;font-family:'Segoe UI Emoji';-inkscape-font-specification:'Segoe UI Emoji';font-variant-ligatures:normal;font-variant-caps:normal;font-variant-numeric:normal;font-feature-settings:normal;text-align:center;writing-mode:lr-tb;text-orientation:upright;text-anchor:middle;opacity:0.992327;fill:none;fill-opacity:1;stroke:#030003;stroke-width:0.84;stroke-linecap:round;stroke-linejoin:bevel;stroke-miterlimit:4;stroke-dasharray:none;stroke-dashoffset:0;stroke-opacity:1;paint-order:normal"
       x="70.203445"
       y="229.32042"
       id="text1090" />
    <text
       xml:space="preserve"
       style="font-style:normal;font-variant:normal;font-weight:normal;font-stretch:normal;font-size:20.32px;line-height:37.65;font-family:'Segoe UI Emoji';-inkscape-font-specification:'Segoe UI Emoji';font-variant-ligatures:normal;font-variant-caps:normal;font-variant-numeric:normal;font-feature-settings:normal;text-align:center;writing-mode:lr-tb;text-orientation:upright;text-anchor:middle;opacity:0.992327;fill:none;fill-opacity:1;stroke:#030003;stroke-width:0.84;stroke-linecap:round;stroke-linejoin:bevel;stroke-miterlimit:4;stroke-dasharray:none;stroke-dashoffset:0;stroke-opacity:1;paint-order:normal"
       x="103.79996"
       y="141.49796"
       id="text1094" />
    <text
       xml:space="preserve"
       style="font-style:normal;font-variant:normal;font-weight:normal;font-stretch:normal;font-size:20.32px;line-height:37.65;font-family:'Segoe UI Emoji';-inkscape-font-specification:'Segoe UI Emoji';font-variant-ligatures:normal;font-variant-caps:normal;font-variant-numeric:normal;font-feature-settings:normal;text-align:center;writing-mode:lr-tb;text-orientation:upright;text-anchor:middle;opacity:0.992327;fill:none;fill-opacity:1;stroke:#030003;stroke-width:0.84;stroke-linecap:round;stroke-linejoin:bevel;stroke-miterlimit:4;stroke-dasharray:none;stroke-dashoffset:0;stroke-opacity:1;paint-order:normal"
       x="39.553986"
       y="69.589615"
       id="text1098" />
    <text
       xml:space="preserve"
       style="font-style:normal;font-variant:normal;font-weight:normal;font-stretch:normal;font-size:20.32px;line-height:37.65;font-family:'Segoe UI Emoji';-inkscape-font-specification:'Segoe UI Emoji';font-variant-ligatures:normal;font-variant-caps:normal;font-variant-numeric:normal;font-feature-settings:normal;text-align:center;writing-mode:lr-tb;text-orientation:upright;text-anchor:middle;opacity:0.992327;fill:none;fill-opacity:1;stroke:#030003;stroke-width:0.84;stroke-linecap:round;stroke-linejoin:bevel;stroke-miterlimit:4;stroke-dasharray:none;stroke-dashoffset:0;stroke-opacity:1;paint-order:normal"
       x="27.176327"
       y="87.861404"
       id="text1102" />
  </g>
</svg>
