<?xml version="1.0" encoding="UTF-8" standalone="no"?>
<!-- Created with Inkscape (http://www.inkscape.org/) -->

<svg
   width="247.88081mm"
   height="222.75581mm"
   viewBox="0 0 247.88082 222.75582"
   xml:space="preserve"
   version="1.1"
   id="svg215"
   sodipodi:docname="logo-tacama.svg"
   inkscape:version="1.2.2 (b0a8486, 2022-12-01)"
   xmlns:inkscape="http://www.inkscape.org/namespaces/inkscape"
   xmlns:sodipodi="http://sodipodi.sourceforge.net/DTD/sodipodi-0.dtd"
   xmlns="http://www.w3.org/2000/svg"
   xmlns:svg="http://www.w3.org/2000/svg"
   xmlns:rdf="http://www.w3.org/1999/02/22-rdf-syntax-ns#"
   xmlns:cc="http://creativecommons.org/ns#"
   xmlns:dc="http://purl.org/dc/elements/1.1/"><sodipodi:namedview
   id="namedview217"
   pagecolor="#ffffff"
   bordercolor="#000000"
   borderopacity="0.25"
   inkscape:showpageshadow="2"
   inkscape:pageopacity="0.0"
   inkscape:pagecheckerboard="0"
   inkscape:deskcolor="#d1d1d1"
   inkscape:document-units="mm"
   showgrid="false"
   inkscape:zoom="1.0416769"
   inkscape:cx="376.31631"
   inkscape:cy="421.91586"
   inkscape:window-width="1390"
   inkscape:window-height="1027"
   inkscape:window-x="0"
   inkscape:window-y="25"
   inkscape:window-maximized="0"
   inkscape:current-layer="layer1" />

  <defs
   id="base" />

  <metadata
   id="metadata5">
    <rdf:RDF>
      <cc:Work
   rdf:about="">
        <dc:format>image/svg+xml</dc:format>
        <dc:type
   rdf:resource="http://purl.org/dc/dcmitype/StillImage" />
      </cc:Work>
    </rdf:RDF>
  </metadata>

  <g
   inkscape:label="Capa 1"
   inkscape:groupmode="layer"
   id="layer1"
   transform="translate(18.16285,-11.23096)">

    <!-- text to path - TACAMA -->
    <g
   aria-label="T A C A M A"
   transform="matrix(1.7963567,0,0,1.8137041,-68.163573,-36.918053)"
   style="stroke-width:1.13019;               font-style:normal;               font-variant:normal;               font-weight:normal;               font-stretch:normal;               font-size:14.692px;               line-height:37.65;               font-family:Mistral;               -inkscape-font-specification:'Mistral, Normal';               font-variant-ligatures:normal;               font-variant-caps:normal;               font-variant-numeric:normal;               font-feature-settings:normal;               text-align:center;               writing-mode:lr-tb;               text-orientation:upright;               text-anchor:middle;               opacity:0.992327;               fill:var(--logo-stroke-color);               fill-opacity:1;               stroke:none;               stroke-linecap:round;               stroke-linejoin:bevel;               stroke-miterlimit:4;               stroke-dasharray:none;               stroke-dashoffset:0;               stroke-opacity:1;               paint-order:normal"
   id="text951">
      <path
   d="m 42.828999,121.88027 h -4.810043 v 14.75295 H 35.856051 V 121.88027 H 31.06753 v -1.9154 h 11.761469 z"
   style="font-style:normal;                 font-variant:normal;                 font-weight:normal;                 font-stretch:normal;                 font-size:22.038px;                 font-family:'Microsoft YaHei UI';                 -inkscape-font-specification:'Microsoft YaHei UI';                 stroke-width:1.13019;                 stroke-miterlimit:4;                 stroke-dasharray:none"
   id="path964"
   inkscape:connector-curvature="0" />
      <path
   d="m 65.04989,136.63322 h -2.37812 l -1.700194,-4.56254 h -6.940665 l -1.603348,4.56254 h -2.378119 l 6.348826,-16.66835 h 2.302794 z m -4.745478,-6.44567 -2.518009,-6.9299 q -0.118368,-0.33359 -0.258258,-1.16216 h -0.0538 q -0.118368,0.75325 -0.269018,1.16216 l -2.496488,6.9299 z"
   style="font-style:normal;font-variant:normal;font-weight:normal;font-stretch:normal;font-size:22.038px;font-family:'Microsoft YaHei UI';-inkscape-font-specification:'Microsoft YaHei UI';stroke-width:1.13019;stroke-miterlimit:4;stroke-dasharray:none"
   id="path966"
   inkscape:connector-curvature="0" />
      <path
   d="m 85.398413,135.94454 q -1.840084,0.96846 -4.61635,0.96846 -3.58332,0 -5.724704,-2.27051 -2.141383,-2.28127 -2.141383,-6.026 0,-4.02451 2.410401,-6.47796 2.410402,-2.45344 6.122851,-2.45344 2.38888,0 3.949185,0.67792 v 2.24899 q -1.78628,-0.98998 -3.927664,-0.98998 -2.787027,0 -4.541024,1.8616 -1.753998,1.85085 -1.753998,5.00374 0,2.99148 1.63563,4.75624 1.63563,1.75399 4.282767,1.75399 2.474966,0 4.304289,-1.11911 z"
   style="font-style:normal;font-variant:normal;font-weight:normal;font-stretch:normal;font-size:22.038px;font-family:'Microsoft YaHei UI';-inkscape-font-specification:'Microsoft YaHei UI';stroke-width:1.13019;stroke-miterlimit:4;stroke-dasharray:none"
   id="path968"
   inkscape:connector-curvature="0" />
      <path
   d="m 108.39407,136.63322 h -2.37811 l -1.7002,-4.56254 h -6.940664 l -1.603348,4.56254 h -2.378119 l 6.348825,-16.66835 h 2.302796 z m -4.74547,-6.44567 -2.51801,-6.9299 q -0.11837,-0.33359 -0.25826,-1.16216 h -0.0538 q -0.11837,0.75325 -0.26902,1.16216 l -2.496489,6.9299 z"
   style="font-style:normal;font-variant:normal;font-weight:normal;font-stretch:normal;font-size:22.038px;font-family:'Microsoft YaHei UI';-inkscape-font-specification:'Microsoft YaHei UI';stroke-width:1.13019;stroke-miterlimit:4;stroke-dasharray:none"
   id="path970"
   inkscape:connector-curvature="0" />
      <path
   d="m 132.412,136.63322 v -11.0405 q 0,-1.36661 0.16141,-3.28202 h -0.0538 q -0.27978,1.2052 -0.49499,1.67868 l -5.49873,12.64384 h -1.19444 l -5.48797,-12.547 q -0.19369,-0.43043 -0.49499,-1.77552 h -0.0646 q 0.10761,1.16216 0.10761,3.37887 v 10.94365 h -2.0553 v -16.66835 h 2.91616 l 4.91765,11.42788 q 0.55956,1.31281 0.74249,2.04454 h 0.0753 q 0.55956,-1.53878 0.78554,-2.08758 l 5.00373,-11.38484 h 2.77627 v 16.66835 z"
   style="font-style:normal;font-variant:normal;font-weight:normal;font-stretch:normal;font-size:22.038px;font-family:'Microsoft YaHei UI';-inkscape-font-specification:'Microsoft YaHei UI';stroke-width:1.13019;stroke-miterlimit:4;stroke-dasharray:none"
   id="path972"
   inkscape:connector-curvature="0" />
      <path
   d="m 158.496,136.63322 h -2.37812 l -1.7002,-4.56254 h -6.94066 l -1.60335,4.56254 h -2.37812 l 6.34883,-16.66835 h 2.30279 z m -4.74548,-6.44567 -2.51801,-6.9299 q -0.11837,-0.33359 -0.25826,-1.16216 h -0.0538 q -0.11837,0.75325 -0.26902,1.16216 l -2.49649,6.9299 z"
   style="font-style:normal;font-variant:normal;font-weight:normal;font-stretch:normal;font-size:22.038px;font-family:'Microsoft YaHei UI';-inkscape-font-specification:'Microsoft YaHei UI';stroke-width:1.13019;stroke-miterlimit:4;stroke-dasharray:none"
   id="path974"
   inkscape:connector-curvature="0" />
    </g>

    <!-- text to path - pasion en cada creacion -->
    <g
   aria-label="Pasion en cada creacion"
   transform="matrix(1.9481179,0,0,1.672414,-64.052903,-38.827569)"
   style="stroke-width:0.0664816;               font-style:normal;               font-variant:normal;               font-weight:normal;               font-stretch:normal;               font-size:16.2885px;               line-height:37.65;               font-family:'Segoe Print';               -inkscape-font-specification:'Segoe Print';               font-variant-ligatures:normal;               font-variant-caps:normal;               font-variant-numeric:normal;               font-feature-settings:normal;               text-align:center;               writing-mode:lr-tb;               text-orientation:upright;               text-anchor:middle;               opacity:0.992327;               fill:var(--logo-stroke-color);               fill-opacity:1;               stroke:none;               stroke-linecap:round;               stroke-linejoin:bevel;               stroke-miterlimit:4;               stroke-dasharray:none;               stroke-dashoffset:0;               stroke-opacity:1;               paint-order:normal"
   id="text955">
      <path
   d="m 24.591464,159.71662 v 3.23306 h -1.002127 v -8.55387 h 2.350226 q 1.371959,0 2.123554,0.66808 0.75756,0.66809 0.75756,1.88496 0,1.21686 -0.841071,1.99232 -0.835105,0.77545 -2.26075,0.77545 z m 0,-4.41412 v 3.50744 h 1.049847 q 1.037917,0 1.580735,-0.47124 0.548784,-0.4772 0.548784,-1.34213 0,-1.69407 -2.004254,-1.69407 z"
   style="font-style:normal;font-variant:normal;font-weight:normal;font-stretch:normal;font-size:12.2164px;font-family:'Segoe UI Emoji';-inkscape-font-specification:'Segoe UI Emoji';stroke-width:0.0664816;stroke-miterlimit:4;stroke-dasharray:none"
   id="path977"
   inkscape:connector-curvature="0" />
      <path
   d="M 34.678346,162.94968 H 33.70008 v -0.95441 h -0.02386 q -0.63826,1.09757 -1.878988,1.09757 -0.912651,0 -1.43161,-0.48317 -0.512993,-0.48317 -0.512993,-1.28248 0,-1.71197 2.016184,-1.99233 l 1.831267,-0.25649 q 0,-1.55688 -1.258624,-1.55688 -1.103532,0 -1.992323,0.7516 v -1.00213 q 0.900721,-0.57265 2.075834,-0.57265 2.153379,0 2.153379,2.27865 z m -0.978266,-3.08989 -1.473365,0.20281 q -0.680015,0.0954 -1.025987,0.34 -0.345972,0.23861 -0.345972,0.85301 0,0.44737 0.316147,0.7337 0.322112,0.28035 0.853001,0.28035 0.727734,0 1.198973,-0.50703 0.477203,-0.51299 0.477203,-1.29441 z"
   style="font-style:normal;font-variant:normal;font-weight:normal;font-stretch:normal;font-size:12.2164px;font-family:'Segoe UI Emoji';-inkscape-font-specification:'Segoe UI Emoji';stroke-width:0.0664816;stroke-miterlimit:4;stroke-dasharray:none"
   id="path979"
   inkscape:connector-curvature="0" />
      <path
   d="m 36.163641,162.72897 v -1.04985 q 0.799316,0.59054 1.759687,0.59054 1.288449,0 1.288449,-0.85896 0,-0.24457 -0.113336,-0.41159 -0.107371,-0.17299 -0.298252,-0.30422 -0.184916,-0.13123 -0.441413,-0.23264 -0.250532,-0.10737 -0.542819,-0.2207 -0.405622,-0.16106 -0.715804,-0.32211 -0.304217,-0.16702 -0.512994,-0.36984 -0.202811,-0.20877 -0.310182,-0.47123 -0.101406,-0.26247 -0.101406,-0.6144 0,-0.42949 0.196847,-0.75756 0.196846,-0.33405 0.524923,-0.55475 0.328078,-0.22667 0.74563,-0.34001 0.423518,-0.11334 0.870896,-0.11334 0.793351,0 1.41968,0.2744 v 0.99019 q -0.67405,-0.44141 -1.550911,-0.44141 -0.274392,0 -0.495098,0.0656 -0.220707,0.0597 -0.381763,0.17298 -0.155091,0.11334 -0.244566,0.27439 -0.08351,0.15509 -0.08351,0.34598 0,0.2386 0.08351,0.39965 0.08948,0.16106 0.256496,0.28633 0.167022,0.12526 0.405623,0.22667 0.238602,0.1014 0.542819,0.2207 0.405623,0.15509 0.727735,0.32212 0.322112,0.16105 0.548783,0.36983 0.226672,0.20281 0.345973,0.47124 0.125266,0.26842 0.125266,0.63826 0,0.45334 -0.202812,0.78738 -0.196846,0.33404 -0.530888,0.55475 -0.334043,0.22071 -0.769491,0.32808 -0.435447,0.10737 -0.912651,0.10737 -0.942476,0 -1.634421,-0.36387 z"
   style="font-style:normal;font-variant:normal;font-weight:normal;font-stretch:normal;font-size:12.2164px;font-family:'Segoe UI Emoji';-inkscape-font-specification:'Segoe UI Emoji';stroke-width:0.0664816;stroke-miterlimit:4;stroke-dasharray:none"
   id="path981"
   inkscape:connector-curvature="0" />
      <path
   d="m 42.212192,155.29057 q -0.262461,0 -0.447378,-0.17896 -0.184916,-0.17895 -0.184916,-0.45334 0,-0.27439 0.184916,-0.45334 0.184917,-0.18492 0.447378,-0.18492 0.268427,0 0.453344,0.18492 0.190881,0.17895 0.190881,0.45334 0,0.26246 -0.190881,0.44738 -0.184917,0.18492 -0.453344,0.18492 z m 0.477204,7.65911 h -0.978267 v -6.1082 h 0.978267 z"
   style="font-style:normal;font-variant:normal;font-weight:normal;font-stretch:normal;font-size:12.2164px;font-family:'Segoe UI Emoji';-inkscape-font-specification:'Segoe UI Emoji';stroke-width:0.0664816;stroke-miterlimit:4;stroke-dasharray:none"
   id="path983"
   inkscape:connector-curvature="0" />
      <path
   d="m 47.222826,163.09284 q -1.354064,0 -2.165309,-0.853 -0.805281,-0.85897 -0.805281,-2.27268 0,-1.53898 0.841071,-2.40391 0.841071,-0.86494 2.27268,-0.86494 1.365995,0 2.12952,0.84108 0.76949,0.84107 0.76949,2.33233 0,1.46143 -0.829141,2.34426 -0.823175,0.87686 -2.21303,0.87686 z m 0.07158,-5.57135 q -0.942476,0 -1.49126,0.64422 -0.548784,0.63826 -0.548784,1.76566 0,1.08563 0.554749,1.71196 0.554749,0.62633 1.485295,0.62633 0.948441,0 1.45547,-0.6144 0.512993,-0.6144 0.512993,-1.74775 0,-1.14529 -0.512993,-1.76566 -0.507029,-0.62036 -1.45547,-0.62036 z"
   style="font-style:normal;font-variant:normal;font-weight:normal;font-stretch:normal;font-size:12.2164px;font-family:'Segoe UI Emoji';-inkscape-font-specification:'Segoe UI Emoji';stroke-width:0.0664816;stroke-miterlimit:4;stroke-dasharray:none"
   id="path985"
   inkscape:connector-curvature="0" />
      <path
   d="m 56.89812,162.94968 h -0.978267 v -3.48359 q 0,-1.9446 -1.419679,-1.9446 -0.7337,0 -1.216868,0.55475 -0.477203,0.54878 -0.477203,1.38985 v 3.48359 h -0.978267 v -6.1082 h 0.978267 v 1.01405 h 0.02386 q 0.691944,-1.15722 2.004253,-1.15722 1.002127,0 1.533015,0.65019 0.530889,0.64423 0.530889,1.86706 z"
   style="font-style:normal;font-variant:normal;font-weight:normal;font-stretch:normal;font-size:12.2164px;font-family:'Segoe UI Emoji';-inkscape-font-specification:'Segoe UI Emoji';stroke-width:0.0664816;stroke-miterlimit:4;stroke-dasharray:none"
   id="path987"
   inkscape:connector-curvature="0" />
      <path
   d="M 66.996934,160.14014 H 62.68421 q 0.02386,1.02002 0.548784,1.57477 0.524924,0.55475 1.44354,0.55475 1.031952,0 1.896883,-0.68001 v 0.91861 q -0.805281,0.58458 -2.12952,0.58458 -1.294413,0 -2.034078,-0.82914 -0.739665,-0.83511 -0.739665,-2.34426 0,-1.42565 0.80528,-2.3204 0.811246,-0.90073 2.010219,-0.90073 1.198973,0 1.855127,0.77546 0.656154,0.77545 0.656154,2.15338 z M 65.994808,159.311 q -0.006,-0.84703 -0.411588,-1.31827 -0.399658,-0.47124 -1.115463,-0.47124 -0.691944,0 -1.175112,0.4951 -0.483169,0.4951 -0.596504,1.29441 z"
   style="font-style:normal;font-variant:normal;font-weight:normal;font-stretch:normal;font-size:12.2164px;font-family:'Segoe UI Emoji';-inkscape-font-specification:'Segoe UI Emoji';stroke-width:0.0664816;stroke-miterlimit:4;stroke-dasharray:none"
   id="path989"
   inkscape:connector-curvature="0" />
      <path
   d="m 73.552514,162.94968 h -0.978266 v -3.48359 q 0,-1.9446 -1.41968,-1.9446 -0.7337,0 -1.216868,0.55475 -0.477203,0.54878 -0.477203,1.38985 v 3.48359 H 68.48223 v -6.1082 h 0.978267 v 1.01405 h 0.02386 q 0.691944,-1.15722 2.004253,-1.15722 1.002127,0 1.533016,0.65019 0.530888,0.64423 0.530888,1.86706 z"
   style="font-style:normal;font-variant:normal;font-weight:normal;font-stretch:normal;font-size:12.2164px;font-family:'Segoe UI Emoji';-inkscape-font-specification:'Segoe UI Emoji';stroke-width:0.0664816;stroke-miterlimit:4;stroke-dasharray:none"
   id="path991"
   inkscape:connector-curvature="0" />
      <path
   d="m 82.905697,162.66932 q -0.703875,0.42352 -1.670212,0.42352 -1.306343,0 -2.111624,-0.84704 -0.799315,-0.853 -0.799315,-2.20706 0,-1.50916 0.864931,-2.42181 0.864931,-0.91862 2.30847,-0.91862 0.805281,0 1.41968,0.29826 v 1.00212 q -0.680015,-0.4772 -1.45547,-0.4772 -0.936511,0 -1.53898,0.67405 -0.596504,0.66808 -0.596504,1.75969 0,1.0737 0.560713,1.69407 0.566679,0.62036 1.515121,0.62036 0.799315,0 1.50319,-0.53089 z"
   style="font-style:normal;font-variant:normal;font-weight:normal;font-stretch:normal;font-size:12.2164px;font-family:'Segoe UI Emoji';-inkscape-font-specification:'Segoe UI Emoji';stroke-width:0.0664816;stroke-miterlimit:4;stroke-dasharray:none"
   id="path993"
   inkscape:connector-curvature="0" />
      <path
   d="m 88.769331,162.94968 h -0.978267 v -0.95441 h -0.02386 q -0.638259,1.09757 -1.878988,1.09757 -0.912651,0 -1.431609,-0.48317 -0.512994,-0.48317 -0.512994,-1.28248 0,-1.71197 2.016184,-1.99233 l 1.831267,-0.25649 q 0,-1.55688 -1.258623,-1.55688 -1.103533,0 -1.992324,0.7516 v -1.00213 q 0.900721,-0.57265 2.075834,-0.57265 2.15338,0 2.15338,2.27865 z m -0.978267,-3.08989 -1.473365,0.20281 q -0.680014,0.0954 -1.025987,0.34 -0.345972,0.23861 -0.345972,0.85301 0,0.44737 0.316147,0.7337 0.322112,0.28035 0.853001,0.28035 0.727735,0 1.198973,-0.50703 0.477203,-0.51299 0.477203,-1.29441 z"
   style="font-style:normal;font-variant:normal;font-weight:normal;font-stretch:normal;font-size:12.2164px;font-family:'Segoe UI Emoji';-inkscape-font-specification:'Segoe UI Emoji';stroke-width:0.0664816;stroke-miterlimit:4;stroke-dasharray:none"
   id="path995"
   inkscape:connector-curvature="0" />
      <path
   d="m 95.837902,162.94968 h -0.978266 v -1.03792 h -0.02386 q -0.680015,1.18108 -2.099695,1.18108 -1.151252,0 -1.843197,-0.81721 -0.68598,-0.82318 -0.68598,-2.23689 0,-1.51512 0.763526,-2.42777 0.763525,-0.91266 2.034078,-0.91266 1.258624,0 1.831268,0.9902 h 0.02386 v -3.78183 h 0.978266 z m -0.978266,-2.76182 v -0.90072 q 0,-0.73966 -0.489134,-1.25266 -0.489133,-0.51299 -1.240728,-0.51299 -0.894756,0 -1.407749,0.65615 -0.512994,0.65616 -0.512994,1.81338 0,1.05581 0.489133,1.67021 0.495099,0.60843 1.324239,0.60843 0.817211,0 1.324239,-0.59054 0.512994,-0.59054 0.512994,-1.49126 z"
   style="font-style:normal;font-variant:normal;font-weight:normal;font-stretch:normal;font-size:12.2164px;font-family:'Segoe UI Emoji';-inkscape-font-specification:'Segoe UI Emoji';stroke-width:0.0664816;stroke-miterlimit:4;stroke-dasharray:none"
   id="path997"
   inkscape:connector-curvature="0" />
      <path
   d="m 102.2026,162.94968 h -0.97826 v -0.95441 h -0.0239 q -0.63826,1.09757 -1.87899,1.09757 -0.912651,0 -1.43161,-0.48317 -0.512993,-0.48317 -0.512993,-1.28248 0,-1.71197 2.016183,-1.99233 l 1.83127,-0.25649 q 0,-1.55688 -1.258626,-1.55688 -1.103532,0 -1.992323,0.7516 v -1.00213 q 0.900721,-0.57265 2.075829,-0.57265 2.15338,0 2.15338,2.27865 z m -0.97826,-3.08989 -1.473367,0.20281 q -0.680015,0.0954 -1.025987,0.34 -0.345973,0.23861 -0.345973,0.85301 0,0.44737 0.316147,0.7337 0.322113,0.28035 0.853001,0.28035 0.727739,0 1.198969,-0.50703 0.47721,-0.51299 0.47721,-1.29441 z"
   style="font-style:normal;font-variant:normal;font-weight:normal;font-stretch:normal;font-size:12.2164px;font-family:'Segoe UI Emoji';-inkscape-font-specification:'Segoe UI Emoji';stroke-width:0.0664816;stroke-miterlimit:4;stroke-dasharray:none"
   id="path999"
   inkscape:connector-curvature="0" />
      <path
   d="m 111.56175,162.66932 q -0.70387,0.42352 -1.67021,0.42352 -1.30634,0 -2.11162,-0.84704 -0.79932,-0.853 -0.79932,-2.20706 0,-1.50916 0.86493,-2.42181 0.86493,-0.91862 2.30847,-0.91862 0.80528,0 1.41968,0.29826 v 1.00212 q -0.68001,-0.4772 -1.45547,-0.4772 -0.93651,0 -1.53898,0.67405 -0.5965,0.66808 -0.5965,1.75969 0,1.0737 0.56071,1.69407 0.56668,0.62036 1.51512,0.62036 0.79932,0 1.50319,-0.53089 z"
   style="font-style:normal;font-variant:normal;font-weight:normal;font-stretch:normal;font-size:12.2164px;font-family:'Segoe UI Emoji';-inkscape-font-specification:'Segoe UI Emoji';stroke-width:0.0664816;stroke-miterlimit:4;stroke-dasharray:none"
   id="path1001"
   inkscape:connector-curvature="0" />
      <path
   d="m 116.23834,157.83167 q -0.2565,-0.19684 -0.73967,-0.19684 -0.62632,0 -1.04984,0.59053 -0.41756,0.59054 -0.41756,1.61057 v 3.11375 h -0.97826 v -6.1082 h 0.97826 v 1.25862 h 0.0239 q 0.20878,-0.64423 0.63826,-1.00213 0.42949,-0.36387 0.96038,-0.36387 0.38176,0 0.58457,0.0835 z"
   style="font-style:normal;font-variant:normal;font-weight:normal;font-stretch:normal;font-size:12.2164px;font-family:'Segoe UI Emoji';-inkscape-font-specification:'Segoe UI Emoji';stroke-width:0.0664816;stroke-miterlimit:4;stroke-dasharray:none"
   id="path1003"
   inkscape:connector-curvature="0" />
      <path
   d="m 122.20934,160.14014 h -4.31272 q 0.0239,1.02002 0.54878,1.57477 0.52493,0.55475 1.44354,0.55475 1.03196,0 1.89689,-0.68001 v 0.91861 q -0.80528,0.58458 -2.12952,0.58458 -1.29442,0 -2.03408,-0.82914 -0.73967,-0.83511 -0.73967,-2.34426 0,-1.42565 0.80528,-2.3204 0.81125,-0.90073 2.01022,-0.90073 1.19898,0 1.85513,0.77546 0.65615,0.77545 0.65615,2.15338 z m -1.00212,-0.82914 q -0.006,-0.84703 -0.41159,-1.31827 -0.39966,-0.47124 -1.11546,-0.47124 -0.69195,0 -1.17512,0.4951 -0.48316,0.4951 -0.5965,1.29441 z"
   style="font-style:normal;font-variant:normal;font-weight:normal;font-stretch:normal;font-size:12.2164px;font-family:'Segoe UI Emoji';-inkscape-font-specification:'Segoe UI Emoji';stroke-width:0.0664816;stroke-miterlimit:4;stroke-dasharray:none"
   id="path1005"
   inkscape:connector-curvature="0" />
      <path
   d="m 128.06701,162.94968 h -0.97826 v -0.95441 h -0.0239 q -0.63826,1.09757 -1.87899,1.09757 -0.91265,0 -1.43161,-0.48317 -0.51299,-0.48317 -0.51299,-1.28248 0,-1.71197 2.01618,-1.99233 l 1.83127,-0.25649 q 0,-1.55688 -1.25863,-1.55688 -1.10353,0 -1.99232,0.7516 v -1.00213 q 0.90072,-0.57265 2.07583,-0.57265 2.15338,0 2.15338,2.27865 z m -0.97826,-3.08989 -1.47337,0.20281 q -0.68001,0.0954 -1.02598,0.34 -0.34598,0.23861 -0.34598,0.85301 0,0.44737 0.31615,0.7337 0.32211,0.28035 0.853,0.28035 0.72774,0 1.19897,-0.50703 0.47721,-0.51299 0.47721,-1.29441 z"
   style="font-style:normal;font-variant:normal;font-weight:normal;font-stretch:normal;font-size:12.2164px;font-family:'Segoe UI Emoji';-inkscape-font-specification:'Segoe UI Emoji';stroke-width:0.0664816;stroke-miterlimit:4;stroke-dasharray:none"
   id="path1007"
   inkscape:connector-curvature="0" />
      <path
   d="m 134.08574,162.66932 q -0.70388,0.42352 -1.67021,0.42352 -1.30635,0 -2.11163,-0.84704 -0.79931,-0.853 -0.79931,-2.20706 0,-1.50916 0.86493,-2.42181 0.86493,-0.91862 2.30847,-0.91862 0.80528,0 1.41968,0.29826 v 1.00212 q -0.68002,-0.4772 -1.45547,-0.4772 -0.93651,0 -1.53898,0.67405 -0.59651,0.66808 -0.59651,1.75969 0,1.0737 0.56072,1.69407 0.56668,0.62036 1.51512,0.62036 0.79931,0 1.50319,-0.53089 z"
   style="font-style:normal;font-variant:normal;font-weight:normal;font-stretch:normal;font-size:12.2164px;font-family:'Segoe UI Emoji';-inkscape-font-specification:'Segoe UI Emoji';stroke-width:0.0664816;stroke-miterlimit:4;stroke-dasharray:none"
   id="path1009"
   inkscape:connector-curvature="0" />
      <path
   d="m 136.07807,155.29057 q -0.26247,0 -0.44738,-0.17896 -0.18492,-0.17895 -0.18492,-0.45334 0,-0.27439 0.18492,-0.45334 0.18491,-0.18492 0.44738,-0.18492 0.26842,0 0.45334,0.18492 0.19088,0.17895 0.19088,0.45334 0,0.26246 -0.19088,0.44738 -0.18492,0.18492 -0.45334,0.18492 z m 0.4772,7.65911 H 135.577 v -6.1082 h 0.97827 z"
   style="font-style:normal;font-variant:normal;font-weight:normal;font-stretch:normal;font-size:12.2164px;font-family:'Segoe UI Emoji';-inkscape-font-specification:'Segoe UI Emoji';stroke-width:0.0664816;stroke-miterlimit:4;stroke-dasharray:none"
   id="path1011"
   inkscape:connector-curvature="0" />
      <path
   d="m 141.0887,163.09284 q -1.35407,0 -2.16531,-0.853 -0.80528,-0.85897 -0.80528,-2.27268 0,-1.53898 0.84107,-2.40391 0.84107,-0.86494 2.27268,-0.86494 1.36599,0 2.12952,0.84108 0.76949,0.84107 0.76949,2.33233 0,1.46143 -0.82914,2.34426 -0.82318,0.87686 -2.21303,0.87686 z m 0.0716,-5.57135 q -0.94248,0 -1.49126,0.64422 -0.54879,0.63826 -0.54879,1.76566 0,1.08563 0.55475,1.71196 0.55475,0.62633 1.4853,0.62633 0.94844,0 1.45547,-0.6144 0.51299,-0.6144 0.51299,-1.74775 0,-1.14529 -0.51299,-1.76566 -0.50703,-0.62036 -1.45547,-0.62036 z"
   style="font-style:normal;font-variant:normal;font-weight:normal;font-stretch:normal;font-size:12.2164px;font-family:'Segoe UI Emoji';-inkscape-font-specification:'Segoe UI Emoji';stroke-width:0.0664816;stroke-miterlimit:4;stroke-dasharray:none"
   id="path1013"
   inkscape:connector-curvature="0" />
      <path
   d="m 150.76399,162.94968 h -0.97826 v -3.48359 q 0,-1.9446 -1.41968,-1.9446 -0.7337,0 -1.21687,0.55475 -0.4772,0.54878 -0.4772,1.38985 v 3.48359 h -0.97827 v -6.1082 h 0.97827 v 1.01405 h 0.0239 q 0.69194,-1.15722 2.00425,-1.15722 1.00213,0 1.53301,0.65019 0.53089,0.64423 0.53089,1.86706 z"
   style="font-style:normal;font-variant:normal;font-weight:normal;font-stretch:normal;font-size:12.2164px;font-family:'Segoe UI Emoji';-inkscape-font-specification:'Segoe UI Emoji';stroke-width:0.0664816;stroke-miterlimit:4;stroke-dasharray:none"
   id="path1015"
   inkscape:connector-curvature="0" />
    </g>

    <!-- red contour -->
    <path
   clip-path="none"
   inkscape:connector-curvature="0"
   id="path1049"
   d="M 11.766642,56.187009 C -11.13227,54.342506 -28.15571,49.558681 -34.192233,43.271907 c -7.656218,-7.97361 -12.091156,-27.176884 -12.822205,-55.520235 -0.59201,-22.952582 1.3737,-41.131771 5.894248,-54.510897 3.467338,-10.261994 6.190003,-13.758135 13.551735,-17.401585 23.5402098,-11.650393 88.953817,-11.650393 112.494027,0 7.3617,3.64345 10.08443,7.139591 13.55174,17.401585 4.520548,13.379126 6.486268,31.558315 5.894228,54.510897 -0.73103,28.343351 -5.165998,47.546625 -12.822188,55.520235 -4.99729,5.204427 -16.4047,9.120005 -33.70193,11.568028 -8.22161,1.1636 -37.670843,2.024464 -46.08078,1.347074 z m 28.29139,-13.959583 c 29.82886,-5.515909 51.04634,-30.384302 51.19369,-60.002685 0.0914,-18.342392 -6.2586,-32.712147 -20.15353,-45.607339 -5.1185,-4.750206 -7.97215,-6.70614 -14.08428,-9.653563 -11.06528,-5.335931 -15.29531,-6.272259 -28.33537,-6.272259 -13.040041,0 -17.270041,0.936328 -28.33532722,6.272259 -6.11213698,2.947423 -8.96579898,4.903357 -14.08427678,9.653563 -13.89492,12.895192 -20.244823,27.264947 -20.153558,45.607339 0.190422,38.271874 35.6930978,67.077511 73.952652,60.002685 z"
   style="display:inline;               fill:#f00000;               fill-opacity:1;               stroke-width:0"
   inkscape:label="path1049"
   transform="translate(71.220691,114.93546)"
   sodipodi:nodetypes="cssscsscsscccssssssc" />

    <!-- blue hand -->
    <path
   style="fill:#43aedf;fill-opacity:1;stroke:none;stroke-width:0"
   d="m 109.07166,60.064543 v 0.15879 c 0.73918,0.25986 1.06868,0.78431 0.85844,1.58796 -0.19611,0.74966 -0.83526,1.37515 -1.18064,2.06433 -0.68552,1.36738 -0.99247,3.13476 -2.16596,4.20663 -0.43304,0.39555 -1.83694,1.53331 -2.40749,1.32386 -0.60723,-0.22295 -0.89798,-1.00136 -1.60065,-1.08171 -0.42367,-0.0484 -0.72791,0.34586 -1.13205,0.40922 -0.50766,0.0797 -1.0798,-0.17912 -1.581749,-0.25296 l 0.635179,0.95277 -1.111569,-0.1588 c 0.52149,0.93482 1.149679,1.56699 2.064339,2.12547 0.4967,0.3033 1.48425,0.63391 1.68037,1.2386 0.17943,0.5534 -0.43162,1.36706 -0.61724,1.87616 -0.59517,1.63256 -1.21002,4.51564 -3.127469,5.13812 -0.79651,0.25868 -1.894898,-0.26599 -2.699508,-0.37428 v 0.15879 l 0.63519,0.47639 -2.69951,-0.63518 0.1588,1.11156 c -3.52048,-0.91545 -1.06314,-6.77196 0.21358,-8.73371 0.91194,-1.4012 2.6058,-2.30728 3.41265,-3.67991 0.423188,-0.71997 0.496708,-1.72895 0.821908,-2.51308 0.58612,-1.41359 1.440269,-2.75318 2.363979,-3.96987 1.08282,-1.42633 3.16827,-2.62988 3.98146,-4.14287 0.25629,-0.47675 0.14657,-1.06975 0.35586,-1.57373 1.32149,-3.18302 3.77328,-7.61264 7.11194,-8.97582 2.65791,-1.08527 5.40235,1.07079 5.03554,3.89439 -0.23406,1.80076 -1.08425,2.76322 -2.08211,4.17399 -0.38763,0.54784 -0.26741,1.27893 -0.68314,1.83092 -1.2756,1.6938 -4.12835,3.35816 -6.24015,3.36397 m -22.390047,1.11156 0.63517,0.47639 c -0.21484,1.08599 0.59707,1.51696 0.73539,2.54071 0.23184,1.71466 -1.31229,4.62506 -2.9585,5.08143 0.74538,2.1007 -0.38556,2.20931 -2.22313,2.06433 v 0.1588 c 3.33723,0.92005 4.44196,4.15137 1.80438,6.74671 -1.01708,1.00057 -4.04768,1.97525 -5.45666,1.98699 0.3657,0.76 0.11703,2.25855 0.98676,2.68586 0.81857,0.40206 1.35022,-0.92323 2.03272,-1.1295 0.8486,-0.25646 2.61487,1.94301 2.22074,-0.1272 1.96954,-1.10331 3.65229,-0.0159 5.39902,0.95277 v 0.31759 l -1.42915,0.15879 1.27036,1.27036 v 0.15879 l -1.11157,0.1588 c 0.90831,1.00294 1.27147,1.47472 1.58796,2.8583 1.52696,-0.78254 1.49107,-3.41059 2.39176,-4.69921 0.48464,-0.69314 1.17317,0.0463 1.26051,0.57055 h 3.49348 c -0.80748,1.09616 -2.11864,1.56381 -2.38192,3.0171 l 5.079037,1.05472 1.59033,-1.05472 c 0.37476,0.7927 -0.0303,1.2675 0.0797,2.05003 0.11592,0.82272 1.4517,1.75611 2.14342,2.07863 -0.19945,-1.2259 -2.85562,-2.49514 -0.47972,-3.46998 0.26026,-0.10671 0.52227,-0.14085 0.7973,-0.18229 l -1.90554,-0.95277 c 0.2636,-1.33499 1.26083,-1.97128 2.22805,-0.61851 0.53387,0.74665 0.65329,1.70371 1.03026,2.52404 0.55737,1.21334 1.12966,1.63574 1.18795,3.01709 l -3.96987,1.905539 0.1588,0.79397 c -1.70515,-0.0732 -3.706429,-0.79493 -4.287459,1.429162 0.8721,-0.611842 1.39612,-1.356432 2.540719,-1.111572 l -0.79398,1.587952 c 2.22074,-0.29901 5.0519,-1.676712 7.30456,-0.857022 1.2548,0.456532 2.28601,1.799629 3.49348,2.444966 v -0.635177 h 0.1588 c 0.70886,1.333554 1.90077,0.693937 2.72444,1.524901 1.62319,1.637641 0.50719,4.659818 -1.61289,5.303258 0.42034,1.01596 0.10323,2.03908 -0.31758,3.0171 l -0.79397,-0.31759 c -0.83543,2.15023 -2.31936,3.01075 -4.60505,3.01709 l -0.1588,0.95277 -1.58794,-0.79397 c 0.0482,2.33683 1.56364,5.30962 0.90227,7.60102 -0.2401,0.83177 -1.11331,0.57072 -1.48156,0.0118 -0.69552,-1.05582 -1.42232,-2.55866 -1.64384,-3.8017 h -0.15879 c 0,1.9816 1.37294,4.17392 1.17222,6.03357 -0.15403,1.42644 -2.43163,1.75404 -3.39472,1.06788 -0.566739,-0.40365 -1.061539,-0.93069 -1.588579,-1.38485 l -0.15879,0.63519 -2.064338,-1.11157 2.064338,2.54072 c -1.976358,0.95118 -3.590818,-0.93514 -5.557798,-0.95276 v 0.15878 c 2.13879,0.77842 5.29833,1.85584 6.773688,3.65467 0.657569,0.80175 0.770789,1.90379 1.117589,2.85592 0.34522,0.94784 1.123,1.75277 1.39565,2.69951 0.23105,0.8027 0.0408,1.70862 0.24074,2.54071 1.16348,-1.78644 2.9261,-0.38492 4.60505,0 0.11496,0.72331 0.32457,1.23574 1.11155,1.27036 -1.83884,-1.25385 1.57159,-1.64639 2.38193,-1.90554 l 0.15879,1.42915 c 0.46987,-0.89179 0.58992,-2.60185 1.49108,-3.17129 1.08442,-0.68503 3.25435,0.68425 4.38433,0.87385 0.89671,0.15038 1.66671,-0.31441 2.54071,-0.40207 l 0.3176,0.95277 0.31759,-0.79397 c 1.45455,0.78285 0.58896,2.82479 2.54071,3.33469 l 0.15879,-2.38192 c 1.45615,0.16054 2.81988,-1.78708 4.12867,-2.41623 3.81243,-1.83264 8.4338,-1.24622 10.0125,3.0514 0.19258,0.52418 0.6499,1.18429 0.65638,1.74659 0.0162,1.40898 -2.99777,1.73372 -3.99951,1.93729 -4.37893,0.88973 -8.75071,0.94959 -13.17996,1.25289 -3.07299,0.21056 -6.17839,0.40366 -9.21009,1.00994 -1.58906,0.31774 -3.17812,1.03836 -4.76384,1.26131 -1.81645,0.25533 -3.71056,0.30043 -5.55782,0.60849 -0.6128,0.10211 -1.120769,0.50846 -1.746739,0.56341 -0.623908,0.0548 -1.229228,-0.3268 -1.838208,-0.22914 -4.16105,0.66709 -8.75958,1.28544 -13.08848,0.87353 -1.64527,-0.15658 -3.26085,-0.39985 -4.76384,-1.12554 -0.92164,-0.4451 -1.88807,-1.39803 -2.85831,-1.6421 -1.38469,-0.34824 -3.11809,0.48798 -4.60504,0.21771 -1.16016,-0.21103 -1.92078,-1.44535 -3.0171,-1.86933 l -0.1588,0.63519 h -0.15879 c -0.65408,-1.49458 -0.20277,-3.67071 -2.38192,-4.28747 0.48496,1.06028 -0.16991,1.50967 -1.11156,1.90553 l -1.11157,-1.27035 -1.27035,-2.8583 0.63518,0.15879 c 0.42271,-0.62517 1.09092,-0.12719 1.74674,-0.15879 -1.26353,-1.13681 -3.44013,-1.7361 -3.65228,-3.65227 -2.12547,0.64612 -2.85703,-1.28974 -2.8583,-3.1759 0.35808,0.12735 1.6197,0.50036 1.48775,-0.32792 -0.18088,-1.13506 -1.93206,-0.56117 -2.53278,-1.15236 -0.83971,-0.82621 -0.85368,-3.10984 -1.0193,-4.23633 1.69798,-0.68234 -0.23169,-1.7866 -0.0789,-3.01709 0.0773,-0.62249 0.69695,-0.98771 0.84637,-1.58796 0.57801,-2.3211 0.68473,-4.6503 1.45583,-6.98696 0.45225,-1.37071 0.56213,-2.97979 1.12443,-4.28745 1.30085,-3.025991 3.3928,-6.358766 5.29453,-9.051298 1.18556,-1.6783 3.0217,-2.953729 4.12437,-4.611229 0.34602,-0.52005 0.25931,-1.19048 0.58643,-1.72625 0.76761,-1.25813 1.87807,-2.28585 2.78733,-3.3828 0.38364,-0.46289 0.15275,-1.05964 0.47241,-1.54539 0.49989,-0.75952 1.6432,-0.97072 2.44258,-1.27909 -0.9931,-2.94136 0.57579,-5.18148 1.53331,-7.93974 0.81161,-2.3381 1.21892,-4.8823 2.18677,-7.14577 0.89989,-2.10434 2.48069,-3.54776 3.58066,-5.44434 0.66011,-1.13815 0.8197,-2.70004 1.48203,-3.92454 1.19382,-2.20718 3.35676,-6.35056 6.46151,-5.92258 4.71113,0.64945 1.18906,7.37025 -0.0319,9.41606 -0.38856,0.65121 -0.79968,1.68339 -1.449,2.11248 -0.5923,0.3915 -1.79295,-0.19211 -2.48894,-0.20694 m 22.389957,-6.51059 c 1.52173,1.26875 2.36953,0.82169 3.33469,-0.95277 -0.75015,-0.18033 -2.12753,-0.77638 -0.95277,-1.42915 -0.25677,-0.8451 -1.05122,-0.86267 -1.62892,-0.20181 -0.46114,0.52755 -0.50528,1.886 -0.753,2.58373 m 15.87946,9.68647 c 0.22661,1.2567 1.00327,2.14691 0.94658,3.49348 -0.11306,2.68173 -3.62734,6.93679 -6.34559,7.30456 v 0.79397 c -0.67568,-0.0752 -1.75833,-0.48591 -1.86076,-1.28464 -0.0482,-0.37619 0.21215,-0.69727 -0.005,-1.06329 -0.25756,-0.43526 -0.87924,-0.62232 -1.31069,-0.82795 -0.29155,1.59 1.66004,2.22788 1.74675,3.81107 -1.74326,-0.0421 -2.47117,-1.72277 -3.96987,-2.38193 -0.36396,1.9851 1.7669,1.67751 2.72205,2.67458 0.46257,0.48289 0.32173,1.50236 0.18691,2.08926 -0.5715,2.49086 -3.03584,4.33383 -4.9733,5.77537 -0.65979,0.49099 -1.41994,1.2197 -2.22312,1.44709 -1.78707,0.50576 -4.89803,-1.73419 -4.97329,-3.57018 -0.0388,-0.94864 0.8054,-2.06322 1.25368,-2.8583 1.27862,-2.26823 2.52563,-4.71303 4.51978,-6.46216 0.85924,-0.75363 2.16786,-0.43572 2.69331,-1.47757 l 1.27036,0.47638 c -0.0856,-0.56849 -0.59707,-1.35404 -0.42858,-1.90554 0.22263,-0.72919 1.12982,-1.47123 1.60366,-2.06433 1.3569,-1.69862 2.59963,-3.64259 4.38273,-4.93406 0.69108,-0.50053 1.91698,-0.35031 2.44496,-0.87831 0.48211,-0.4823 0.14753,-1.38581 0.50863,-1.96857 1.18905,-1.91986 3.2437,-3.81349 4.98615,-5.22516 1.9627,-1.5901 5.17566,-2.80911 7.10962,-0.49085 1.59303,1.9096 0.0297,4.44775 -1.23484,6.0336 -1.50446,1.8868 -3.19288,4.26126 -5.55719,4.84784 -0.44876,0.11132 -0.95515,0.49083 -1.42916,0.34443 -0.73569,-0.22708 -1.50314,-1.18191 -2.06433,-1.69879 m -15.40308,-8.41612 0.1588,0.47639 h 0.31759 l 0.15879,-0.47639 h -0.63518 m 21.59607,0.79398 c -0.92434,0.13917 -1.84296,0.57174 -2.02812,1.58795 -0.20421,1.12141 0.52974,3.05671 2.01391,2.58935 0.46759,-0.14724 0.80965,-0.65858 1.12958,-1.00154 0.36645,-0.3928 1.17187,-1.08488 0.91062,-1.71034 -0.301,-0.72063 -1.57091,-0.67863 -2.02599,-1.46542 m -22.54884,3.01709 0.47639,0.3176 v -0.15881 l -0.47639,-0.1588 m -25.406637,0.1588 v 0.1588 l 1.90553,0.63518 c -0.42113,-0.74014 -1.11061,-0.78691 -1.90522,-0.79401 m -0.47639,11.27443 0.1588,0.15879 -0.1588,-0.15879 m 55.101757,10.16286 0.63517,2.38192 -1.11156,-0.63518 c -1.0865,2.45433 -1.35578,4.46341 -3.58488,6.46262 -0.57233,0.51322 -1.36271,0.69393 -1.9706,1.17905 -0.57526,0.459229 -1.01233,1.234939 -1.63617,1.602069 -0.46114,0.27139 -1.02916,-0.0984 -1.42487,0.34078 -0.54958,0.61009 -0.61041,1.51776 -1.23558,2.1639 -1.98731,2.053856 -4.60743,3.07966 -7.13892,4.212814 -0.64933,0.2906 -1.53159,1.318314 -2.22313,1.314654 -1.23369,-0.006 -1.97017,-2.185958 -2.64139,-2.948165 -0.44415,-0.504337 -1.21669,-0.691544 -1.80487,-0.988974 l -0.15879,0.635177 c -1.08774,-0.571337 -0.59579,-1.340064 0.31759,-1.746734 -0.54403,-1.841562 0.8875,-2.662192 2.06433,-3.811082 1.55015,-1.513309 3.5011,-3.416459 5.55781,-4.214869 0.69345,-0.26932 1.355,0.18499 2.06433,0.0191 0.80557,-0.1885 1.48076,-0.8521 2.22313,-1.2032 -0.9299,-1.86043 1.07234,-2.99169 2.54071,-3.83124 2.84938,-1.62923 6.527,-3.55446 8.41612,0.49655 h 0.1588 l -1.58795,-2.54071 c 0.10054,-0.76237 -0.21305,-2.08053 0.12645,-2.69951 0.85104,-1.55158 2.7355,-2.22075 4.16101,-3.07299 2.25304,-1.34706 5.26884,-3.58273 6.5863,0.37348 0.75754,2.27489 -2.33208,5.68612 -4.01863,6.95505 -0.51919,0.39079 -0.9207,1.11315 -1.61491,1.21224 -0.91984,0.13133 -2.00695,-1.15873 -2.6995,-1.65671 m 3.33468,-4.44625 c 0.648,0.0617 0.92787,-0.17531 1.11156,-0.79397 -0.66463,-0.0575 -0.86829,0.19548 -1.11156,0.79397 m -4.76384,2.69952 -0.1588,0.47637 0.79398,0.3176 -0.63518,-0.79397 m -2.22313,4.12865 -0.47639,0.79398 c 0.59235,0.01 0.80367,-0.20167 0.79399,-0.79398 h -0.3176 m -26.8363,0 0.3176,0.79398 -0.3176,-0.79398 m -13.497537,0 c 0.34141,0.3295 0.50894,0.40652 0.79397,0 h -0.79397 m -0.79397,0.15879 -0.63518,0.95277 1.27035,-0.15878 -0.63517,-0.79399 m 12.385977,9.210099 v 0.15879 l -0.79398,0.15879 0.1588,-0.63517 0.63518,0.31759 m 1.27036,-0.1588 0.47638,0.79397 -1.42915,0.3176 0.95277,-1.11157 m -19.372947,0.31759 1.11157,0.63518 0.15879,-0.31759 -1.27036,-0.31759 m 22.231247,0.63518 -0.63517,0.63518 c -0.011,-0.51847 0.1167,-0.64614 0.63517,-0.63518 m -12.703577,0.15878 0.47639,1.111552 c -0.69441,0.33188 -1.95158,2.776838 -0.46782,2.738898 1.30783,-0.0334 0.83511,-3.40758 -0.009,-3.85045 m 15.403067,1.587942 c -0.80207,-0.13038 -1.1319,-0.71362 -1.42916,-1.429162 0.91752,0.0694 1.32832,0.52419 1.42916,1.429162 m -13.179969,0.31759 c -1.499658,1.792321 1.599059,1.731491 0,0 m 16.197069,1.587941 -0.1588,0.635177 -0.15879,-0.635177 h 0.31759 m -20.802107,1.270354 c 0.40318,0.452247 0.85575,0.724264 1.27035,0.158787 l -1.27035,-0.158787 m -15.56187,3.334681 -0.1588,1.74674 h 0.31759 l 0.79397,-1.11155 -0.95276,-0.63519 m -0.47639,2.06433 -1.42915,2.69951 c 1.90506,0.91022 1.96699,-1.45265 1.42915,-2.69951 m -2.54071,5.87541 0.63518,0.15879 1.11156,-0.79397 v -0.1588 l -0.79397,-0.63518 -0.95277,1.42916 m 5.71661,-0.47639 0.79397,-0.47638 -0.79397,0.47638 m -6.66938,0.15879 -0.63518,2.54072 h -1.42915 c 0.55848,1.19683 1.2748,1.56032 2.22312,0.63518 l -0.95277,1.58795 c 1.50157,0.7106 1.73118,0.0192 3.1759,-0.14149 1.10934,-0.12354 2.09927,0.0575 3.17589,-0.3349 l -0.47639,1.74674 c 2.18121,-0.0465 3.39282,-1.90013 5.08144,-3.0171 v -0.15879 l -3.1759,1.27036 c -0.13259,-1.04614 0.71411,-1.5916 1.27036,-2.38193 -1.02851,0.009 -1.74039,0.28091 -2.38191,1.11157 h -0.1588 c -0.45574,-0.89449 -0.67695,-1.49918 0.1588,-2.22312 l -2.69952,0.7368 -3.17589,-1.37199 m 13.81514,0.63519 v 0.15878 l 2.06432,1.42916 c -0.44906,-0.89402 -1.03311,-1.513 -2.06432,-1.58794 m 6.03419,7.46334 0.47639,0.63519 -0.47639,-0.63519 m 5.240207,0.47639 0.47639,0.95277 -0.47639,-0.95277 m -31.123727,8.09853 0.63517,0.79396 -0.63517,-0.79396 m -7.62215,1.90553 v 0.31759 c -0.89735,0.38523 -1.55143,-0.007 -1.74674,-0.95277 l 1.74674,0.63518 m 5.5578,6.82817 -0.47637,-1.11156 c 0.51957,0.28679 0.605,0.53704 0.47637,1.11156 z"
   id="path773" />
  </g>
</svg>
