<?xml version="1.0" encoding="UTF-8" standalone="no"?>
<!-- Created with Inkscape (http://www.inkscape.org/) -->

<svg
   width="247.88081mm"
   height="222.75581mm"
   viewBox="0 0 247.88082 222.75582"
   version="1.1"
   id="svg8"
   inkscape:version="1.2.2 (b0a8486, 2022-12-01)"
   sodipodi:docname="logo-tacama backup.svg"
   xml:space="preserve"
   xmlns:inkscape="http://www.inkscape.org/namespaces/inkscape"
   xmlns:sodipodi="http://sodipodi.sourceforge.net/DTD/sodipodi-0.dtd"
   xmlns="http://www.w3.org/2000/svg"
   xmlns:svg="http://www.w3.org/2000/svg"
   xmlns:rdf="http://www.w3.org/1999/02/22-rdf-syntax-ns#"
   xmlns:cc="http://creativecommons.org/ns#"
   xmlns:dc="http://purl.org/dc/elements/1.1/"><defs
     id="defs2"><inkscape:path-effect
       effect="powerclip"
       id="path-effect989"
       is_visible="true"
       lpeversion="1"
       inverse="true"
       flatten="false"
       hide_clip="false"
       message="Use fill-rule evenodd on &lt;b&gt;fill and stroke&lt;/b&gt; dialog if no flatten result after convert clip to paths." /><inkscape:path-effect
       effect="powerclip"
       id="path-effect975"
       is_visible="true"
       lpeversion="1"
       inverse="true"
       flatten="false"
       hide_clip="false"
       message="Use fill-rule evenodd on &lt;b&gt;fill and stroke&lt;/b&gt; dialog if no flatten result after convert clip to paths." /><inkscape:path-effect
       effect="powerclip"
       id="path-effect867"
       is_visible="true"
       lpeversion="1"
       inverse="true"
       flatten="false"
       hide_clip="false"
       message="Use fill-rule evenodd on &lt;b&gt;fill and stroke&lt;/b&gt; dialog if no flatten result after convert clip to paths." /><inkscape:path-effect
       effect="powerclip"
       id="path-effect614"
       is_visible="true"
       lpeversion="1"
       inverse="true"
       flatten="false"
       hide_clip="false"
       message="Use fill-rule evenodd on &lt;b&gt;fill and stroke&lt;/b&gt; dialog if no flatten result after convert clip to paths." /><inkscape:path-effect
       effect="powerclip"
       id="path-effect509"
       is_visible="true"
       lpeversion="1"
       inverse="true"
       flatten="false"
       hide_clip="false"
       message="Use fill-rule evenodd on &lt;b&gt;fill and stroke&lt;/b&gt; dialog if no flatten result after convert clip to paths." /><clipPath
       clipPathUnits="userSpaceOnUse"
       id="clipPath941"><path
         style="fill:var(--logo-stroke-color); stroke: var(--logo-stroke-color);"
         id="path943"
         sodipodi:type="arc"
         sodipodi:cx="-128.76439"
         sodipodi:cy="63.161652"
         sodipodi:rx="30.944174"
         sodipodi:ry="30.944174"
         sodipodi:start="5.8371141"
         sodipodi:end="5.8231689"
         sodipodi:open="true"
         d="m -100.84813,49.811576 a 30.944174,30.944174 0 0 1 -14.46894,41.21962 30.944174,30.944174 0 0 1 -41.26981,-14.325146 30.944174,30.944174 0 0 1 14.18118,-41.319504 30.944174,30.944174 0 0 1 41.36869,14.037043"
         sodipodi:arc-type="arc" /></clipPath><clipPath
       clipPathUnits="userSpaceOnUse"
       id="clipPath505"><path
         id="path507"
         style="display:none;fill:#ffff00;stroke-width:0.506;stroke-miterlimit:0.5"
         d="M -7.8481293,70.172218 H 219.56689 V 161.03999 H -7.8481293 Z" /></clipPath><clipPath
       clipPathUnits="userSpaceOnUse"
       id="clipPath633"><rect
         style="fill:#ffff00;stroke-width:0.506;stroke-miterlimit:0.5"
         id="rect635"
         width="225.94148"
         height="166.50906"
         x="0.99306047"
         y="-95.354485" /></clipPath></defs><sodipodi:namedview
     id="base"
     pagecolor="#ffffff"
     bordercolor="#666666"
     borderopacity="1.0"
     inkscape:pageopacity="0.0"
     inkscape:pageshadow="2"
     inkscape:zoom="0.53867188"
     inkscape:cx="319.30384"
     inkscape:cy="489.16606"
     inkscape:document-units="mm"
     inkscape:current-layer="layer1"
     showgrid="false"
     inkscape:window-width="1280"
     inkscape:window-height="747"
     inkscape:window-x="0"
     inkscape:window-y="25"
     inkscape:window-maximized="0"
     showguides="false"
     inkscape:showpageshadow="2"
     inkscape:pagecheckerboard="0"
     inkscape:deskcolor="#d1d1d1" /><metadata
     id="metadata5"><rdf:RDF><cc:Work
         rdf:about=""><dc:format>image/svg+xml</dc:format><dc:type
           rdf:resource="http://purl.org/dc/dcmitype/StillImage" /></cc:Work></rdf:RDF></metadata><g
     inkscape:label="Capa 1"
     inkscape:groupmode="layer"
     id="layer1"
     transform="translate(18.16285,-11.23096)"><g
       aria-label="T A C A M A"
       transform="matrix(1.7963567,0,0,1.8137041,-68.163573,-36.918053)"
       style="stroke-width:1.13019;font-style:normal;font-variant:normal;font-weight:normal;font-stretch:normal;font-size:14.692px;line-height:37.65;font-family:Mistral;-inkscape-font-specification:'Mistral, Normal';font-variant-ligatures:normal;font-variant-caps:normal;font-variant-numeric:normal;font-feature-settings:normal;text-align:center;writing-mode:lr-tb;text-orientation:upright;text-anchor:middle;opacity:0.992327;fill:#050000;fill-opacity:1;stroke:#030003;stroke-linecap:round;stroke-linejoin:bevel;stroke-miterlimit:4;stroke-dasharray:none;stroke-dashoffset:0;stroke-opacity:1;paint-order:normal"
       id="text951"><path
         d="m 42.828999,121.88027 h -4.810043 v 14.75295 H 35.856051 V 121.88027 H 31.06753 v -1.9154 h 11.761469 z"
         style="font-style:normal;font-variant:normal;font-weight:normal;font-stretch:normal;font-size:22.038px;font-family:'Microsoft YaHei UI';-inkscape-font-specification:'Microsoft YaHei UI';stroke-width:1.13019;stroke-miterlimit:4;stroke-dasharray:none"
         id="path964"
         inkscape:connector-curvature="0" /><path
         d="m 65.04989,136.63322 h -2.37812 l -1.700194,-4.56254 h -6.940665 l -1.603348,4.56254 h -2.378119 l 6.348826,-16.66835 h 2.302794 z m -4.745478,-6.44567 -2.518009,-6.9299 q -0.118368,-0.33359 -0.258258,-1.16216 h -0.0538 q -0.118368,0.75325 -0.269018,1.16216 l -2.496488,6.9299 z"
         style="font-style:normal;font-variant:normal;font-weight:normal;font-stretch:normal;font-size:22.038px;font-family:'Microsoft YaHei UI';-inkscape-font-specification:'Microsoft YaHei UI';stroke-width:1.13019;stroke-miterlimit:4;stroke-dasharray:none"
         id="path966"
         inkscape:connector-curvature="0" /><path
         d="m 85.398413,135.94454 q -1.840084,0.96846 -4.61635,0.96846 -3.58332,0 -5.724704,-2.27051 -2.141383,-2.28127 -2.141383,-6.026 0,-4.02451 2.410401,-6.47796 2.410402,-2.45344 6.122851,-2.45344 2.38888,0 3.949185,0.67792 v 2.24899 q -1.78628,-0.98998 -3.927664,-0.98998 -2.787027,0 -4.541024,1.8616 -1.753998,1.85085 -1.753998,5.00374 0,2.99148 1.63563,4.75624 1.63563,1.75399 4.282767,1.75399 2.474966,0 4.304289,-1.11911 z"
         style="font-style:normal;font-variant:normal;font-weight:normal;font-stretch:normal;font-size:22.038px;font-family:'Microsoft YaHei UI';-inkscape-font-specification:'Microsoft YaHei UI';stroke-width:1.13019;stroke-miterlimit:4;stroke-dasharray:none"
         id="path968"
         inkscape:connector-curvature="0" /><path
         d="m 108.39407,136.63322 h -2.37811 l -1.7002,-4.56254 h -6.940664 l -1.603348,4.56254 h -2.378119 l 6.348825,-16.66835 h 2.302796 z m -4.74547,-6.44567 -2.51801,-6.9299 q -0.11837,-0.33359 -0.25826,-1.16216 h -0.0538 q -0.11837,0.75325 -0.26902,1.16216 l -2.496489,6.9299 z"
         style="font-style:normal;font-variant:normal;font-weight:normal;font-stretch:normal;font-size:22.038px;font-family:'Microsoft YaHei UI';-inkscape-font-specification:'Microsoft YaHei UI';stroke-width:1.13019;stroke-miterlimit:4;stroke-dasharray:none"
         id="path970"
         inkscape:connector-curvature="0" /><path
         d="m 132.412,136.63322 v -11.0405 q 0,-1.36661 0.16141,-3.28202 h -0.0538 q -0.27978,1.2052 -0.49499,1.67868 l -5.49873,12.64384 h -1.19444 l -5.48797,-12.547 q -0.19369,-0.43043 -0.49499,-1.77552 h -0.0646 q 0.10761,1.16216 0.10761,3.37887 v 10.94365 h -2.0553 v -16.66835 h 2.91616 l 4.91765,11.42788 q 0.55956,1.31281 0.74249,2.04454 h 0.0753 q 0.55956,-1.53878 0.78554,-2.08758 l 5.00373,-11.38484 h 2.77627 v 16.66835 z"
         style="font-style:normal;font-variant:normal;font-weight:normal;font-stretch:normal;font-size:22.038px;font-family:'Microsoft YaHei UI';-inkscape-font-specification:'Microsoft YaHei UI';stroke-width:1.13019;stroke-miterlimit:4;stroke-dasharray:none"
         id="path972"
         inkscape:connector-curvature="0" /><path
         d="m 158.496,136.63322 h -2.37812 l -1.7002,-4.56254 h -6.94066 l -1.60335,4.56254 h -2.37812 l 6.34883,-16.66835 h 2.30279 z m -4.74548,-6.44567 -2.51801,-6.9299 q -0.11837,-0.33359 -0.25826,-1.16216 h -0.0538 q -0.11837,0.75325 -0.26902,1.16216 l -2.49649,6.9299 z"
         style="font-style:normal;font-variant:normal;font-weight:normal;font-stretch:normal;font-size:22.038px;font-family:'Microsoft YaHei UI';-inkscape-font-specification:'Microsoft YaHei UI';stroke-width:1.13019;stroke-miterlimit:4;stroke-dasharray:none"
         id="path974"
         inkscape:connector-curvature="0" /></g><g
       aria-label="Pasion en cada creacion"
       transform="matrix(1.9481179,0,0,1.672414,-64.052903,-38.827569)"
       style="stroke-width:0.0664816;font-style:normal;font-variant:normal;font-weight:normal;font-stretch:normal;font-size:16.2885px;line-height:37.65;font-family:'Segoe Print';-inkscape-font-specification:'Segoe Print';font-variant-ligatures:normal;font-variant-caps:normal;font-variant-numeric:normal;font-feature-settings:normal;text-align:center;writing-mode:lr-tb;text-orientation:upright;text-anchor:middle;opacity:0.992327;fill:#050000;fill-opacity:1;stroke:#030003;stroke-linecap:round;stroke-linejoin:bevel;stroke-miterlimit:4;stroke-dasharray:none;stroke-dashoffset:0;stroke-opacity:1;paint-order:normal"
       id="text955"><path
         d="m 24.591464,159.71662 v 3.23306 h -1.002127 v -8.55387 h 2.350226 q 1.371959,0 2.123554,0.66808 0.75756,0.66809 0.75756,1.88496 0,1.21686 -0.841071,1.99232 -0.835105,0.77545 -2.26075,0.77545 z m 0,-4.41412 v 3.50744 h 1.049847 q 1.037917,0 1.580735,-0.47124 0.548784,-0.4772 0.548784,-1.34213 0,-1.69407 -2.004254,-1.69407 z"
         style="font-style:normal;font-variant:normal;font-weight:normal;font-stretch:normal;font-size:12.2164px;font-family:'Segoe UI Emoji';-inkscape-font-specification:'Segoe UI Emoji';stroke-width:0.0664816;stroke-miterlimit:4;stroke-dasharray:none"
         id="path977"
         inkscape:connector-curvature="0" /><path
         d="M 34.678346,162.94968 H 33.70008 v -0.95441 h -0.02386 q -0.63826,1.09757 -1.878988,1.09757 -0.912651,0 -1.43161,-0.48317 -0.512993,-0.48317 -0.512993,-1.28248 0,-1.71197 2.016184,-1.99233 l 1.831267,-0.25649 q 0,-1.55688 -1.258624,-1.55688 -1.103532,0 -1.992323,0.7516 v -1.00213 q 0.900721,-0.57265 2.075834,-0.57265 2.153379,0 2.153379,2.27865 z m -0.978266,-3.08989 -1.473365,0.20281 q -0.680015,0.0954 -1.025987,0.34 -0.345972,0.23861 -0.345972,0.85301 0,0.44737 0.316147,0.7337 0.322112,0.28035 0.853001,0.28035 0.727734,0 1.198973,-0.50703 0.477203,-0.51299 0.477203,-1.29441 z"
         style="font-style:normal;font-variant:normal;font-weight:normal;font-stretch:normal;font-size:12.2164px;font-family:'Segoe UI Emoji';-inkscape-font-specification:'Segoe UI Emoji';stroke-width:0.0664816;stroke-miterlimit:4;stroke-dasharray:none"
         id="path979"
         inkscape:connector-curvature="0" /><path
         d="m 36.163641,162.72897 v -1.04985 q 0.799316,0.59054 1.759687,0.59054 1.288449,0 1.288449,-0.85896 0,-0.24457 -0.113336,-0.41159 -0.107371,-0.17299 -0.298252,-0.30422 -0.184916,-0.13123 -0.441413,-0.23264 -0.250532,-0.10737 -0.542819,-0.2207 -0.405622,-0.16106 -0.715804,-0.32211 -0.304217,-0.16702 -0.512994,-0.36984 -0.202811,-0.20877 -0.310182,-0.47123 -0.101406,-0.26247 -0.101406,-0.6144 0,-0.42949 0.196847,-0.75756 0.196846,-0.33405 0.524923,-0.55475 0.328078,-0.22667 0.74563,-0.34001 0.423518,-0.11334 0.870896,-0.11334 0.793351,0 1.41968,0.2744 v 0.99019 q -0.67405,-0.44141 -1.550911,-0.44141 -0.274392,0 -0.495098,0.0656 -0.220707,0.0597 -0.381763,0.17298 -0.155091,0.11334 -0.244566,0.27439 -0.08351,0.15509 -0.08351,0.34598 0,0.2386 0.08351,0.39965 0.08948,0.16106 0.256496,0.28633 0.167022,0.12526 0.405623,0.22667 0.238602,0.1014 0.542819,0.2207 0.405623,0.15509 0.727735,0.32212 0.322112,0.16105 0.548783,0.36983 0.226672,0.20281 0.345973,0.47124 0.125266,0.26842 0.125266,0.63826 0,0.45334 -0.202812,0.78738 -0.196846,0.33404 -0.530888,0.55475 -0.334043,0.22071 -0.769491,0.32808 -0.435447,0.10737 -0.912651,0.10737 -0.942476,0 -1.634421,-0.36387 z"
         style="font-style:normal;font-variant:normal;font-weight:normal;font-stretch:normal;font-size:12.2164px;font-family:'Segoe UI Emoji';-inkscape-font-specification:'Segoe UI Emoji';stroke-width:0.0664816;stroke-miterlimit:4;stroke-dasharray:none"
         id="path981"
         inkscape:connector-curvature="0" /><path
         d="m 42.212192,155.29057 q -0.262461,0 -0.447378,-0.17896 -0.184916,-0.17895 -0.184916,-0.45334 0,-0.27439 0.184916,-0.45334 0.184917,-0.18492 0.447378,-0.18492 0.268427,0 0.453344,0.18492 0.190881,0.17895 0.190881,0.45334 0,0.26246 -0.190881,0.44738 -0.184917,0.18492 -0.453344,0.18492 z m 0.477204,7.65911 h -0.978267 v -6.1082 h 0.978267 z"
         style="font-style:normal;font-variant:normal;font-weight:normal;font-stretch:normal;font-size:12.2164px;font-family:'Segoe UI Emoji';-inkscape-font-specification:'Segoe UI Emoji';stroke-width:0.0664816;stroke-miterlimit:4;stroke-dasharray:none"
         id="path983"
         inkscape:connector-curvature="0" /><path
         d="m 47.222826,163.09284 q -1.354064,0 -2.165309,-0.853 -0.805281,-0.85897 -0.805281,-2.27268 0,-1.53898 0.841071,-2.40391 0.841071,-0.86494 2.27268,-0.86494 1.365995,0 2.12952,0.84108 0.76949,0.84107 0.76949,2.33233 0,1.46143 -0.829141,2.34426 -0.823175,0.87686 -2.21303,0.87686 z m 0.07158,-5.57135 q -0.942476,0 -1.49126,0.64422 -0.548784,0.63826 -0.548784,1.76566 0,1.08563 0.554749,1.71196 0.554749,0.62633 1.485295,0.62633 0.948441,0 1.45547,-0.6144 0.512993,-0.6144 0.512993,-1.74775 0,-1.14529 -0.512993,-1.76566 -0.507029,-0.62036 -1.45547,-0.62036 z"
         style="font-style:normal;font-variant:normal;font-weight:normal;font-stretch:normal;font-size:12.2164px;font-family:'Segoe UI Emoji';-inkscape-font-specification:'Segoe UI Emoji';stroke-width:0.0664816;stroke-miterlimit:4;stroke-dasharray:none"
         id="path985"
         inkscape:connector-curvature="0" /><path
         d="m 56.89812,162.94968 h -0.978267 v -3.48359 q 0,-1.9446 -1.419679,-1.9446 -0.7337,0 -1.216868,0.55475 -0.477203,0.54878 -0.477203,1.38985 v 3.48359 h -0.978267 v -6.1082 h 0.978267 v 1.01405 h 0.02386 q 0.691944,-1.15722 2.004253,-1.15722 1.002127,0 1.533015,0.65019 0.530889,0.64423 0.530889,1.86706 z"
         style="font-style:normal;font-variant:normal;font-weight:normal;font-stretch:normal;font-size:12.2164px;font-family:'Segoe UI Emoji';-inkscape-font-specification:'Segoe UI Emoji';stroke-width:0.0664816;stroke-miterlimit:4;stroke-dasharray:none"
         id="path987"
         inkscape:connector-curvature="0" /><path
         d="M 66.996934,160.14014 H 62.68421 q 0.02386,1.02002 0.548784,1.57477 0.524924,0.55475 1.44354,0.55475 1.031952,0 1.896883,-0.68001 v 0.91861 q -0.805281,0.58458 -2.12952,0.58458 -1.294413,0 -2.034078,-0.82914 -0.739665,-0.83511 -0.739665,-2.34426 0,-1.42565 0.80528,-2.3204 0.811246,-0.90073 2.010219,-0.90073 1.198973,0 1.855127,0.77546 0.656154,0.77545 0.656154,2.15338 z M 65.994808,159.311 q -0.006,-0.84703 -0.411588,-1.31827 -0.399658,-0.47124 -1.115463,-0.47124 -0.691944,0 -1.175112,0.4951 -0.483169,0.4951 -0.596504,1.29441 z"
         style="font-style:normal;font-variant:normal;font-weight:normal;font-stretch:normal;font-size:12.2164px;font-family:'Segoe UI Emoji';-inkscape-font-specification:'Segoe UI Emoji';stroke-width:0.0664816;stroke-miterlimit:4;stroke-dasharray:none"
         id="path989"
         inkscape:connector-curvature="0" /><path
         d="m 73.552514,162.94968 h -0.978266 v -3.48359 q 0,-1.9446 -1.41968,-1.9446 -0.7337,0 -1.216868,0.55475 -0.477203,0.54878 -0.477203,1.38985 v 3.48359 H 68.48223 v -6.1082 h 0.978267 v 1.01405 h 0.02386 q 0.691944,-1.15722 2.004253,-1.15722 1.002127,0 1.533016,0.65019 0.530888,0.64423 0.530888,1.86706 z"
         style="font-style:normal;font-variant:normal;font-weight:normal;font-stretch:normal;font-size:12.2164px;font-family:'Segoe UI Emoji';-inkscape-font-specification:'Segoe UI Emoji';stroke-width:0.0664816;stroke-miterlimit:4;stroke-dasharray:none"
         id="path991"
         inkscape:connector-curvature="0" /><path
         d="m 82.905697,162.66932 q -0.703875,0.42352 -1.670212,0.42352 -1.306343,0 -2.111624,-0.84704 -0.799315,-0.853 -0.799315,-2.20706 0,-1.50916 0.864931,-2.42181 0.864931,-0.91862 2.30847,-0.91862 0.805281,0 1.41968,0.29826 v 1.00212 q -0.680015,-0.4772 -1.45547,-0.4772 -0.936511,0 -1.53898,0.67405 -0.596504,0.66808 -0.596504,1.75969 0,1.0737 0.560713,1.69407 0.566679,0.62036 1.515121,0.62036 0.799315,0 1.50319,-0.53089 z"
         style="font-style:normal;font-variant:normal;font-weight:normal;font-stretch:normal;font-size:12.2164px;font-family:'Segoe UI Emoji';-inkscape-font-specification:'Segoe UI Emoji';stroke-width:0.0664816;stroke-miterlimit:4;stroke-dasharray:none"
         id="path993"
         inkscape:connector-curvature="0" /><path
         d="m 88.769331,162.94968 h -0.978267 v -0.95441 h -0.02386 q -0.638259,1.09757 -1.878988,1.09757 -0.912651,0 -1.431609,-0.48317 -0.512994,-0.48317 -0.512994,-1.28248 0,-1.71197 2.016184,-1.99233 l 1.831267,-0.25649 q 0,-1.55688 -1.258623,-1.55688 -1.103533,0 -1.992324,0.7516 v -1.00213 q 0.900721,-0.57265 2.075834,-0.57265 2.15338,0 2.15338,2.27865 z m -0.978267,-3.08989 -1.473365,0.20281 q -0.680014,0.0954 -1.025987,0.34 -0.345972,0.23861 -0.345972,0.85301 0,0.44737 0.316147,0.7337 0.322112,0.28035 0.853001,0.28035 0.727735,0 1.198973,-0.50703 0.477203,-0.51299 0.477203,-1.29441 z"
         style="font-style:normal;font-variant:normal;font-weight:normal;font-stretch:normal;font-size:12.2164px;font-family:'Segoe UI Emoji';-inkscape-font-specification:'Segoe UI Emoji';stroke-width:0.0664816;stroke-miterlimit:4;stroke-dasharray:none"
         id="path995"
         inkscape:connector-curvature="0" /><path
         d="m 95.837902,162.94968 h -0.978266 v -1.03792 h -0.02386 q -0.680015,1.18108 -2.099695,1.18108 -1.151252,0 -1.843197,-0.81721 -0.68598,-0.82318 -0.68598,-2.23689 0,-1.51512 0.763526,-2.42777 0.763525,-0.91266 2.034078,-0.91266 1.258624,0 1.831268,0.9902 h 0.02386 v -3.78183 h 0.978266 z m -0.978266,-2.76182 v -0.90072 q 0,-0.73966 -0.489134,-1.25266 -0.489133,-0.51299 -1.240728,-0.51299 -0.894756,0 -1.407749,0.65615 -0.512994,0.65616 -0.512994,1.81338 0,1.05581 0.489133,1.67021 0.495099,0.60843 1.324239,0.60843 0.817211,0 1.324239,-0.59054 0.512994,-0.59054 0.512994,-1.49126 z"
         style="font-style:normal;font-variant:normal;font-weight:normal;font-stretch:normal;font-size:12.2164px;font-family:'Segoe UI Emoji';-inkscape-font-specification:'Segoe UI Emoji';stroke-width:0.0664816;stroke-miterlimit:4;stroke-dasharray:none"
         id="path997"
         inkscape:connector-curvature="0" /><path
         d="m 102.2026,162.94968 h -0.97826 v -0.95441 h -0.0239 q -0.63826,1.09757 -1.87899,1.09757 -0.912651,0 -1.43161,-0.48317 -0.512993,-0.48317 -0.512993,-1.28248 0,-1.71197 2.016183,-1.99233 l 1.83127,-0.25649 q 0,-1.55688 -1.258626,-1.55688 -1.103532,0 -1.992323,0.7516 v -1.00213 q 0.900721,-0.57265 2.075829,-0.57265 2.15338,0 2.15338,2.27865 z m -0.97826,-3.08989 -1.473367,0.20281 q -0.680015,0.0954 -1.025987,0.34 -0.345973,0.23861 -0.345973,0.85301 0,0.44737 0.316147,0.7337 0.322113,0.28035 0.853001,0.28035 0.727739,0 1.198969,-0.50703 0.47721,-0.51299 0.47721,-1.29441 z"
         style="font-style:normal;font-variant:normal;font-weight:normal;font-stretch:normal;font-size:12.2164px;font-family:'Segoe UI Emoji';-inkscape-font-specification:'Segoe UI Emoji';stroke-width:0.0664816;stroke-miterlimit:4;stroke-dasharray:none"
         id="path999"
         inkscape:connector-curvature="0" /><path
         d="m 111.56175,162.66932 q -0.70387,0.42352 -1.67021,0.42352 -1.30634,0 -2.11162,-0.84704 -0.79932,-0.853 -0.79932,-2.20706 0,-1.50916 0.86493,-2.42181 0.86493,-0.91862 2.30847,-0.91862 0.80528,0 1.41968,0.29826 v 1.00212 q -0.68001,-0.4772 -1.45547,-0.4772 -0.93651,0 -1.53898,0.67405 -0.5965,0.66808 -0.5965,1.75969 0,1.0737 0.56071,1.69407 0.56668,0.62036 1.51512,0.62036 0.79932,0 1.50319,-0.53089 z"
         style="font-style:normal;font-variant:normal;font-weight:normal;font-stretch:normal;font-size:12.2164px;font-family:'Segoe UI Emoji';-inkscape-font-specification:'Segoe UI Emoji';stroke-width:0.0664816;stroke-miterlimit:4;stroke-dasharray:none"
         id="path1001"
         inkscape:connector-curvature="0" /><path
         d="m 116.23834,157.83167 q -0.2565,-0.19684 -0.73967,-0.19684 -0.62632,0 -1.04984,0.59053 -0.41756,0.59054 -0.41756,1.61057 v 3.11375 h -0.97826 v -6.1082 h 0.97826 v 1.25862 h 0.0239 q 0.20878,-0.64423 0.63826,-1.00213 0.42949,-0.36387 0.96038,-0.36387 0.38176,0 0.58457,0.0835 z"
         style="font-style:normal;font-variant:normal;font-weight:normal;font-stretch:normal;font-size:12.2164px;font-family:'Segoe UI Emoji';-inkscape-font-specification:'Segoe UI Emoji';stroke-width:0.0664816;stroke-miterlimit:4;stroke-dasharray:none"
         id="path1003"
         inkscape:connector-curvature="0" /><path
         d="m 122.20934,160.14014 h -4.31272 q 0.0239,1.02002 0.54878,1.57477 0.52493,0.55475 1.44354,0.55475 1.03196,0 1.89689,-0.68001 v 0.91861 q -0.80528,0.58458 -2.12952,0.58458 -1.29442,0 -2.03408,-0.82914 -0.73967,-0.83511 -0.73967,-2.34426 0,-1.42565 0.80528,-2.3204 0.81125,-0.90073 2.01022,-0.90073 1.19898,0 1.85513,0.77546 0.65615,0.77545 0.65615,2.15338 z m -1.00212,-0.82914 q -0.006,-0.84703 -0.41159,-1.31827 -0.39966,-0.47124 -1.11546,-0.47124 -0.69195,0 -1.17512,0.4951 -0.48316,0.4951 -0.5965,1.29441 z"
         style="font-style:normal;font-variant:normal;font-weight:normal;font-stretch:normal;font-size:12.2164px;font-family:'Segoe UI Emoji';-inkscape-font-specification:'Segoe UI Emoji';stroke-width:0.0664816;stroke-miterlimit:4;stroke-dasharray:none"
         id="path1005"
         inkscape:connector-curvature="0" /><path
         d="m 128.06701,162.94968 h -0.97826 v -0.95441 h -0.0239 q -0.63826,1.09757 -1.87899,1.09757 -0.91265,0 -1.43161,-0.48317 -0.51299,-0.48317 -0.51299,-1.28248 0,-1.71197 2.01618,-1.99233 l 1.83127,-0.25649 q 0,-1.55688 -1.25863,-1.55688 -1.10353,0 -1.99232,0.7516 v -1.00213 q 0.90072,-0.57265 2.07583,-0.57265 2.15338,0 2.15338,2.27865 z m -0.97826,-3.08989 -1.47337,0.20281 q -0.68001,0.0954 -1.02598,0.34 -0.34598,0.23861 -0.34598,0.85301 0,0.44737 0.31615,0.7337 0.32211,0.28035 0.853,0.28035 0.72774,0 1.19897,-0.50703 0.47721,-0.51299 0.47721,-1.29441 z"
         style="font-style:normal;font-variant:normal;font-weight:normal;font-stretch:normal;font-size:12.2164px;font-family:'Segoe UI Emoji';-inkscape-font-specification:'Segoe UI Emoji';stroke-width:0.0664816;stroke-miterlimit:4;stroke-dasharray:none"
         id="path1007"
         inkscape:connector-curvature="0" /><path
         d="m 134.08574,162.66932 q -0.70388,0.42352 -1.67021,0.42352 -1.30635,0 -2.11163,-0.84704 -0.79931,-0.853 -0.79931,-2.20706 0,-1.50916 0.86493,-2.42181 0.86493,-0.91862 2.30847,-0.91862 0.80528,0 1.41968,0.29826 v 1.00212 q -0.68002,-0.4772 -1.45547,-0.4772 -0.93651,0 -1.53898,0.67405 -0.59651,0.66808 -0.59651,1.75969 0,1.0737 0.56072,1.69407 0.56668,0.62036 1.51512,0.62036 0.79931,0 1.50319,-0.53089 z"
         style="font-style:normal;font-variant:normal;font-weight:normal;font-stretch:normal;font-size:12.2164px;font-family:'Segoe UI Emoji';-inkscape-font-specification:'Segoe UI Emoji';stroke-width:0.0664816;stroke-miterlimit:4;stroke-dasharray:none"
         id="path1009"
         inkscape:connector-curvature="0" /><path
         d="m 136.07807,155.29057 q -0.26247,0 -0.44738,-0.17896 -0.18492,-0.17895 -0.18492,-0.45334 0,-0.27439 0.18492,-0.45334 0.18491,-0.18492 0.44738,-0.18492 0.26842,0 0.45334,0.18492 0.19088,0.17895 0.19088,0.45334 0,0.26246 -0.19088,0.44738 -0.18492,0.18492 -0.45334,0.18492 z m 0.4772,7.65911 H 135.577 v -6.1082 h 0.97827 z"
         style="font-style:normal;font-variant:normal;font-weight:normal;font-stretch:normal;font-size:12.2164px;font-family:'Segoe UI Emoji';-inkscape-font-specification:'Segoe UI Emoji';stroke-width:0.0664816;stroke-miterlimit:4;stroke-dasharray:none"
         id="path1011"
         inkscape:connector-curvature="0" /><path
         d="m 141.0887,163.09284 q -1.35407,0 -2.16531,-0.853 -0.80528,-0.85897 -0.80528,-2.27268 0,-1.53898 0.84107,-2.40391 0.84107,-0.86494 2.27268,-0.86494 1.36599,0 2.12952,0.84108 0.76949,0.84107 0.76949,2.33233 0,1.46143 -0.82914,2.34426 -0.82318,0.87686 -2.21303,0.87686 z m 0.0716,-5.57135 q -0.94248,0 -1.49126,0.64422 -0.54879,0.63826 -0.54879,1.76566 0,1.08563 0.55475,1.71196 0.55475,0.62633 1.4853,0.62633 0.94844,0 1.45547,-0.6144 0.51299,-0.6144 0.51299,-1.74775 0,-1.14529 -0.51299,-1.76566 -0.50703,-0.62036 -1.45547,-0.62036 z"
         style="font-style:normal;font-variant:normal;font-weight:normal;font-stretch:normal;font-size:12.2164px;font-family:'Segoe UI Emoji';-inkscape-font-specification:'Segoe UI Emoji';stroke-width:0.0664816;stroke-miterlimit:4;stroke-dasharray:none"
         id="path1013"
         inkscape:connector-curvature="0" /><path
         d="m 150.76399,162.94968 h -0.97826 v -3.48359 q 0,-1.9446 -1.41968,-1.9446 -0.7337,0 -1.21687,0.55475 -0.4772,0.54878 -0.4772,1.38985 v 3.48359 h -0.97827 v -6.1082 h 0.97827 v 1.01405 h 0.0239 q 0.69194,-1.15722 2.00425,-1.15722 1.00213,0 1.53301,0.65019 0.53089,0.64423 0.53089,1.86706 z"
         style="font-style:normal;font-variant:normal;font-weight:normal;font-stretch:normal;font-size:12.2164px;font-family:'Segoe UI Emoji';-inkscape-font-specification:'Segoe UI Emoji';stroke-width:0.0664816;stroke-miterlimit:4;stroke-dasharray:none"
         id="path1015"
         inkscape:connector-curvature="0" /></g><path
       clip-path="none"
       inkscape:connector-curvature="0"
       id="path1049"
       d="M 11.766642,56.187009 C -11.13227,54.342506 -28.15571,49.558681 -34.192233,43.271907 c -7.656218,-7.97361 -12.091156,-27.176884 -12.822205,-55.520235 -0.59201,-22.952582 1.3737,-41.131771 5.894248,-54.510897 3.467338,-10.261994 6.190003,-13.758135 13.551735,-17.401585 23.5402098,-11.650393 88.953817,-11.650393 112.494027,0 7.3617,3.64345 10.08443,7.139591 13.55174,17.401585 4.520548,13.379126 6.486268,31.558315 5.894228,54.510897 -0.73103,28.343351 -5.165998,47.546625 -12.822188,55.520235 -4.99729,5.204427 -16.4047,9.120005 -33.70193,11.568028 -8.22161,1.1636 -37.670843,2.024464 -46.08078,1.347074 z m 28.29139,-13.959583 c 29.82886,-5.515909 51.04634,-30.384302 51.19369,-60.002685 0.0914,-18.342392 -6.2586,-32.712147 -20.15353,-45.607339 -5.1185,-4.750206 -7.97215,-6.70614 -14.08428,-9.653563 -11.06528,-5.335931 -15.29531,-6.272259 -28.33537,-6.272259 -13.040041,0 -17.270041,0.936328 -28.33532722,6.272259 -6.11213698,2.947423 -8.96579898,4.903357 -14.08427678,9.653563 -13.89492,12.895192 -20.244823,27.264947 -20.153558,45.607339 0.190422,38.271874 35.6930978,67.077511 73.952652,60.002685 z"
       style="display:inline;fill:#f00000;fill-opacity:1;stroke-width:1.2"
       inkscape:label="path1049"
       transform="translate(71.220691,114.93546)"
       sodipodi:nodetypes="cssscsscsscccssssssc" /><ellipse
       style="display:none;fill:#ff0000;stroke-width:0.548386;stroke-miterlimit:0.5"
       id="ellipse973"
       cx="98.982903"
       cy="90.676941"
       rx="50.836838"
       ry="46.045929" /><path
       style="fill:#43aedf;fill-opacity:1;stroke:none;stroke-width:0.158794"
       d="m 134.79693,89.493982 h -0.15879 c -0.25986,-0.73918 -0.78431,-1.06868 -1.58796,-0.85844 -0.74966,0.19611 -1.37515,0.83526 -2.06433,1.18064 -1.36738,0.68552 -3.13476,0.99247 -4.20663,2.16596 -0.39555,0.43304 -1.53331,1.83694 -1.32386,2.40749 0.22295,0.60723 1.00136,0.89798 1.08171,1.60065 0.0484,0.42367 -0.34586,0.72791 -0.40922,1.13205 -0.0797,0.50766 0.17912,1.0798 0.25296,1.58175 l -0.95277,-0.63518 0.1588,1.11157 c -0.93482,-0.52149 -1.56699,-1.14968 -2.12547,-2.06434 -0.3033,-0.4967 -0.63391,-1.48425 -1.2386,-1.68037 -0.5534,-0.17943 -1.36706,0.43162 -1.87616,0.61724 -1.63256,0.59517 -4.51564,1.21002 -5.13812,3.12747 -0.25868,0.79651 0.26599,1.894898 0.37428,2.699508 h -0.15879 l -0.47639,-0.63519 0.63518,2.69951 -1.11156,-0.1588 c 0.91545,3.52048 6.77196,1.06314 8.73371,-0.21358 1.4012,-0.91194 2.30728,-2.6058 3.67991,-3.41265 0.71997,-0.423188 1.72895,-0.496708 2.51308,-0.821908 1.41359,-0.58612 2.75318,-1.44027 3.96987,-2.36398 1.42633,-1.08282 2.62988,-3.16827 4.14287,-3.98146 0.47675,-0.25629 1.06975,-0.14657 1.57373,-0.35586 3.18302,-1.32149 7.61264,-3.77328 8.97582,-7.11194 1.08527,-2.65791 -1.07079,-5.40235 -3.89439,-5.03554 -1.80076,0.23406 -2.76322,1.08425 -4.17399,2.08211 -0.54784,0.38763 -1.27893,0.26741 -1.83092,0.68314 -1.6938,1.2756 -3.35816,4.12835 -3.36397,6.24015 m -1.11156,22.390048 -0.47639,-0.63517 c -1.08599,0.21484 -1.51696,-0.59707 -2.54071,-0.73539 -1.71466,-0.23184 -4.62506,1.31229 -5.08143,2.9585 -2.1007,-0.74538 -2.20931,0.38556 -2.06433,2.22313 h -0.1588 c -0.92005,-3.33723 -4.15137,-4.44196 -6.74671,-1.80438 -1.00057,1.01708 -1.97525,4.04768 -1.98699,5.45666 -0.76,-0.3657 -2.25855,-0.11703 -2.68586,-0.98676 -0.40206,-0.81857 0.92323,-1.35022 1.1295,-2.03272 0.25646,-0.8486 -1.94301,-2.61487 0.1272,-2.22074 1.10331,-1.96954 0.0159,-3.65229 -0.95277,-5.39902 h -0.31759 l -0.15879,1.42915 -1.27036,-1.27036 h -0.15879 l -0.1588,1.11157 c -1.00294,-0.90831 -1.47472,-1.27147 -2.8583,-1.58796 0.78254,-1.52696 3.41059,-1.49107 4.69921,-2.39176 0.69314,-0.48464 -0.0463,-1.17317 -0.57055,-1.26051 v -3.49348 c -1.09616,0.80748 -1.56381,2.11864 -3.0171,2.38192 l -1.05472,-5.079038 1.05472,-1.59033 c -0.7927,-0.37476 -1.2675,0.0303 -2.05003,-0.0797 -0.82272,-0.11592 -1.75611,-1.4517 -2.07863,-2.14342 1.2259,0.19945 2.49514,2.85562 3.46998,0.47972 0.10671,-0.26026 0.14085,-0.52227 0.18229,-0.7973 l 0.95277,1.90554 c 1.33499,-0.2636 1.97128,-1.26083 0.61851,-2.22805 -0.74665,-0.53387 -1.70371,-0.65329 -2.52404,-1.03026 -1.21334,-0.55737 -1.63574,-1.12966 -3.01709,-1.18795 l -1.90554,3.96987 -0.79397,-0.1588 c 0.0732,1.70515 0.79493,3.70643 -1.429162,4.28746 0.611842,-0.8721 1.356432,-1.39612 1.111572,-2.54072 l -1.587952,0.79398 c 0.29901,-2.22074 1.676712,-5.0519 0.857022,-7.30456 -0.456532,-1.2548 -1.799626,-2.28601 -2.444966,-3.49348 h 0.63518 v -0.1588 c -1.33356,-0.70886 -0.69394,-1.90077 -1.52491,-2.72444 -1.63765,-1.62319 -4.65983,-0.50719 -5.30327,1.61289 -1.01596,-0.42034 -2.03908,-0.10323 -3.0171,0.31758 l 0.31759,0.79397 c -2.15023,0.83543 -3.01075,2.31936 -3.01709,4.60505 l -0.95277,0.1588 0.79397,1.58794 c -2.33683,-0.0482 -5.30962,-1.56364 -7.60102,-0.90227 -0.83177,0.2401 -0.57072,1.11331 -0.0118,1.48156 1.05582,0.69552 2.55866,1.42232 3.8017,1.64384 v 0.15879 c -1.9816,0 -4.17392,-1.37294 -6.03357,-1.17222 -1.42644,0.15403 -1.75404,2.43163 -1.06788,3.39472 0.40365,0.56674 0.93069,1.06154 1.38485,1.58858 l -0.63519,0.15879 1.11157,2.064338 -2.54072,-2.064338 c -0.95118,1.976358 0.93514,3.590818 0.95276,5.557798 h -0.15878 c -0.77842,-2.13879 -1.85584,-5.29833 -3.65467,-6.773688 -0.80175,-0.65757 -1.90379,-0.77079 -2.85592,-1.11759 -0.94784,-0.34522 -1.75277,-1.123 -2.69951,-1.39565 -0.8027,-0.23105 -1.70862,-0.0408 -2.54071,-0.24074 1.78644,-1.16348 0.38492,-2.9261 0,-4.60505 -0.72331,-0.11496 -1.23574,-0.32457 -1.27036,-1.11155 1.25385,1.83884 1.64639,-1.57159 1.90554,-2.38193 l -1.42915,-0.15879 c 0.89179,-0.46987 2.60185,-0.58992 3.17129,-1.49108 0.68503,-1.08442 -0.68425,-3.25435 -0.87385,-4.38433 -0.15038,-0.89671 0.31441,-1.66671 0.40207,-2.54071 l -0.95277,-0.3176 0.79397,-0.31759 c -0.78285,-1.45455 -2.82479,-0.58896 -3.33469,-2.54071 l 2.38192,-0.15879 c -0.16054,-1.45615 1.78708,-2.81988 2.41623,-4.12867 1.83264,-3.81243 1.24622,-8.4338 -3.0514,-10.0125 -0.52418,-0.19258 -1.18429,-0.6499 -1.74659,-0.65638 -1.40898,-0.0162 -1.73372,2.99777 -1.93729,3.99951 -0.88973,4.37893 -0.94959,8.75071 -1.25289,13.17996 -0.21056,3.07299 -0.40366,6.17839 -1.00994,9.21009 -0.31774,1.58906 -1.03836,3.17812 -1.26131,4.76384 -0.25533,1.81645 -0.30043,3.71056 -0.60849,5.55782 -0.10211,0.6128 -0.50846,1.12077 -0.56341,1.74674 -0.0548,0.623908 0.3268,1.229228 0.22914,1.838208 -0.66709,4.16105 -1.28544,8.75958 -0.87353,13.08848 0.15658,1.64527 0.39985,3.26085 1.12554,4.76384 0.4451,0.92164 1.39803,1.88807 1.6421,2.85831 0.34824,1.38469 -0.48798,3.11809 -0.21771,4.60504 0.21103,1.16016 1.44535,1.92078 1.86933,3.0171 l -0.63519,0.1588 v 0.15879 c 1.49458,0.65408 3.67071,0.20277 4.28747,2.38192 -1.06028,-0.48496 -1.50967,0.16991 -1.90553,1.11156 l 1.27035,1.11157 2.8583,1.27035 -0.15879,-0.63518 c 0.62517,-0.42271 0.12719,-1.09092 0.15879,-1.74674 1.13681,1.26353 1.7361,3.44013 3.65227,3.65228 -0.64612,2.12547 1.28974,2.85703 3.1759,2.8583 -0.12735,-0.35808 -0.50036,-1.6197 0.32792,-1.48775 1.13506,0.18088 0.56117,1.93206 1.15236,2.53278 0.82621,0.83971 3.10984,0.85368 4.23633,1.0193 0.68234,-1.69798 1.7866,0.23169 3.01709,0.0789 0.62249,-0.0773 0.98771,-0.69695 1.58796,-0.84637 2.3211,-0.57801 4.6503,-0.68473 6.98696,-1.45583 1.37071,-0.45225 2.97979,-0.56213 4.28745,-1.12443 3.026,-1.30085 6.358784,-3.3928 9.051316,-5.29453 1.6783,-1.18556 2.95373,-3.0217 4.61123,-4.12437 0.52005,-0.34602 1.19048,-0.25931 1.72625,-0.58643 1.25813,-0.76761 2.28585,-1.87807 3.3828,-2.78733 0.46289,-0.38364 1.05964,-0.15275 1.54539,-0.47241 0.75952,-0.49989 0.97072,-1.6432 1.27909,-2.44258 2.94136,0.9931 5.18148,-0.57579 7.93974,-1.53331 2.3381,-0.81161 4.8823,-1.21892 7.14577,-2.18677 2.10434,-0.89989 3.54776,-2.48069 5.44434,-3.58066 1.13815,-0.66011 2.70004,-0.8197 3.92454,-1.48203 2.20718,-1.19382 6.35056,-3.35676 5.92258,-6.46151 -0.64945,-4.71113 -7.37025,-1.18906 -9.41606,0.0319 -0.65121,0.38856 -1.68339,0.79968 -2.11248,1.449 -0.3915,0.5923 0.19211,1.79295 0.20694,2.48894 m 6.51059,-22.389958 c -1.26875,-1.52173 -0.82169,-2.36953 0.95277,-3.33469 0.18033,0.75015 0.77638,2.12753 1.42915,0.95277 0.8451,0.25677 0.86267,1.05122 0.20181,1.62892 -0.52755,0.46114 -1.886,0.50528 -2.58373,0.753 m -9.68647,-15.87946 c -1.2567,-0.22661 -2.14691,-1.00327 -3.49348,-0.94658 -2.68173,0.11306 -6.93679,3.62734 -7.30456,6.34559 h -0.79397 c 0.0752,0.67568 0.48591,1.75833 1.28464,1.86076 0.37619,0.0482 0.69727,-0.21215 1.06329,0.005 0.43526,0.25756 0.62232,0.87924 0.82795,1.31069 -1.59,0.29155 -2.22788,-1.66004 -3.81107,-1.74675 0.0421,1.74326 1.72277,2.47117 2.38193,3.96987 -1.9851,0.36396 -1.67751,-1.7669 -2.67458,-2.72205 -0.48289,-0.46257 -1.50236,-0.32173 -2.08926,-0.18691 -2.49086,0.5715 -4.33383,3.03584 -5.77537,4.9733 -0.49099,0.65979 -1.2197,1.41994 -1.44709,2.22312 -0.50576,1.78707 1.73419,4.89803 3.57018,4.97329 0.94864,0.0388 2.06322,-0.8054 2.8583,-1.25368 2.26823,-1.27862 4.71303,-2.52563 6.46216,-4.51978 0.75363,-0.85924 0.43572,-2.16786 1.47757,-2.69331 l -0.47638,-1.27036 c 0.56849,0.0856 1.35404,0.59707 1.90554,0.42858 0.72919,-0.22263 1.47123,-1.12982 2.06433,-1.60366 1.69862,-1.3569 3.64259,-2.59963 4.93406,-4.38273 0.50053,-0.69108 0.35031,-1.91698 0.87831,-2.44496 0.4823,-0.48211 1.38581,-0.14753 1.96857,-0.50863 1.91986,-1.18905 3.81349,-3.2437 5.22516,-4.98615 1.5901,-1.9627 2.80911,-5.17566 0.49085,-7.10962 -1.9096,-1.59303 -4.44775,-0.0297 -6.0336,1.23484 -1.8868,1.50446 -4.26126,3.19288 -4.84784,5.55719 -0.11132,0.44876 -0.49083,0.95515 -0.34443,1.42916 0.22708,0.73569 1.18191,1.50314 1.69879,2.06433 m 8.41612,15.40308 -0.47639,-0.1588 v -0.31759 l 0.47639,-0.15879 v 0.63518 m -0.79398,-21.59607 c -0.13917,0.92434 -0.57174,1.84296 -1.58795,2.02812 -1.12141,0.20421 -3.05671,-0.52974 -2.58935,-2.01391 0.14724,-0.46759 0.65858,-0.80965 1.00154,-1.12958 0.3928,-0.36645 1.08488,-1.17187 1.71034,-0.91062 0.72063,0.301 0.67863,1.57091 1.46542,2.02599 m -3.01709,22.54884 -0.3176,-0.47639 h 0.15881 l 0.1588,0.47639 m -0.1588,25.406638 h -0.1588 l -0.63518,-1.90553 c 0.74014,0.42113 0.78691,1.11061 0.79401,1.90522 m -11.27443,0.47639 -0.15879,-0.1588 0.15879,0.1588 m -10.16286,-55.101758 -2.38192,-0.63517 0.63518,1.11156 c -2.45433,1.0865 -4.46341,1.35578 -6.46262,3.58488 -0.51322,0.57233 -0.69393,1.36271 -1.17905,1.9706 -0.45923,0.57526 -1.23494,1.01233 -1.60207,1.63617 -0.27139,0.46114 0.0984,1.02916 -0.34078,1.42487 -0.61009,0.54958 -1.51776,0.61041 -2.1639,1.23558 -2.053856,1.98731 -3.079666,4.60743 -4.212826,7.13892 -0.2906,0.64933 -1.31832,1.53159 -1.31466,2.22313 0.006,1.23369 2.18597,1.97017 2.94818,2.64139 0.50434,0.44415 0.69155,1.21669 0.98898,1.80487 l -0.63518,0.15879 c 0.57134,1.08774 1.340064,0.59579 1.746734,-0.31759 1.841562,0.54403 2.662192,-0.8875 3.811082,-2.06433 1.51331,-1.55015 3.41646,-3.5011 4.21487,-5.55781 0.26932,-0.69345 -0.18499,-1.355 -0.0191,-2.06433 0.1885,-0.80557 0.8521,-1.48076 1.2032,-2.22313 1.86043,0.9299 2.99169,-1.07234 3.83124,-2.54071 1.62923,-2.84938 3.55446,-6.527 -0.49655,-8.41612 v -0.1588 l 2.54071,1.58795 c 0.76237,-0.10054 2.08053,0.21305 2.69951,-0.12645 1.55158,-0.85104 2.22075,-2.7355 3.07299,-4.16101 1.34706,-2.25304 3.58273,-5.26884 -0.37348,-6.5863 -2.27489,-0.75754 -5.68612,2.33208 -6.95505,4.01863 -0.39079,0.51919 -1.11315,0.9207 -1.21224,1.61491 -0.13133,0.91984 1.15873,2.00695 1.65671,2.6995 m 4.44625,-3.33468 c -0.0617,-0.648 0.17531,-0.92787 0.79397,-1.11156 0.0575,0.66463 -0.19548,0.86829 -0.79397,1.11156 m -2.69952,4.76384 -0.47637,0.1588 -0.3176,-0.79398 0.79397,0.63518 m -4.12865,2.22313 -0.79398,0.47639 c -0.01,-0.59235 0.20167,-0.80367 0.79398,-0.79399 v 0.3176 m 0,26.8363 -0.79398,-0.3176 0.79398,0.3176 m 0,13.497538 c -0.3295,-0.34141 -0.40652,-0.50894 0,-0.79397 v 0.79397 m -0.15879,0.79397 -0.95277,0.63518 0.15878,-1.27035 0.79399,0.63517 m -9.2101,-12.385978 h -0.15879 l -0.15879,0.79398 0.63517,-0.1588 -0.31759,-0.63518 m 0.1588,-1.27036 -0.79397,-0.47638 -0.3176,1.42915 1.11157,-0.95277 m -0.31759,19.372948 -0.63518,-1.11157 0.31759,-0.15879 0.31759,1.27036 m -0.63518,-22.231248 -0.63518,0.63517 c 0.51847,0.011 0.64614,-0.1167 0.63518,-0.63517 m -0.15878,12.703578 -1.111552,-0.47639 c -0.33188,0.69441 -2.776844,1.95158 -2.738904,0.46782 0.0334,-1.30783 3.407586,-0.83511 3.850456,0.009 M 99.226898,86.318342 c 0.13038,0.80207 0.71362,1.1319 1.429162,1.42916 -0.0694,-0.91752 -0.52419,-1.32832 -1.429162,-1.42916 m -0.31759,13.17997 c -1.792324,1.499658 -1.731494,-1.59906 0,0 m -1.587944,-16.19707 -0.63518,0.1588 0.63518,0.15879 v -0.31759 m -1.27036,20.802108 c -0.45225,-0.40318 -0.72427,-0.85575 -0.15879,-1.27035 l 0.15879,1.27035 m -3.33469,15.56187 -1.74674,0.1588 v -0.31759 l 1.11155,-0.79397 0.63519,0.95276 m -2.06433,0.47639 -2.69951,1.42915 c -0.91022,-1.90506 1.45265,-1.96699 2.69951,-1.42915 m -5.87541,2.54071 -0.15879,-0.63518 0.79397,-1.11156 h 0.1588 l 0.63518,0.79397 -1.42916,0.95277 m 0.47639,-5.71661 0.47638,-0.79397 -0.47638,0.79397 m -0.15879,6.66938 -2.54072,0.63518 v 1.42915 c -1.19683,-0.55848 -1.56032,-1.2748 -0.63518,-2.22312 l -1.58795,0.95277 c -0.7106,-1.50157 -0.0192,-1.73118 0.14149,-3.1759 0.12354,-1.10934 -0.0575,-2.09927 0.3349,-3.17589 l -1.74674,0.47639 c 0.0465,-2.18121 1.90013,-3.39282 3.0171,-5.08144 h 0.15879 l -1.27036,3.1759 c 1.04614,0.13259 1.5916,-0.71411 2.38193,-1.27036 -0.009,1.02851 -0.28091,1.74039 -1.11157,2.38191 v 0.1588 c 0.89449,0.45574 1.49918,0.67695 2.22312,-0.1588 l -0.7368,2.69952 1.37199,3.17589 m -0.63519,-13.81514 h -0.15878 l -1.42916,-2.06432 c 0.89402,0.44906 1.513,1.03311 1.58794,2.06432 m -7.46334,-6.03419 -0.63519,-0.47639 0.63519,0.47639 m -0.47639,-5.240208 -0.95277,-0.47639 0.95277,0.47639 m -8.09853,31.123728 -0.79396,-0.63517 0.79396,0.63517 m -1.90553,7.62215 h -0.31759 c -0.38523,0.89735 0.007,1.55143 0.95277,1.74674 l -0.63518,-1.74674 m -6.82817,-5.5578 1.11156,0.47637 c -0.28679,-0.51957 -0.53704,-0.605 -1.11156,-0.47637 z"
       id="path773" /></g></svg>
